<svg xmlns="http://www.w3.org/2000/svg" width="80" height="80" viewBox="0 0 80 80" fill="none">
  <g clip-path="url(#clip0_56_574)">
    <path d="M40 80C62.0914 80 80 62.0914 80 40C80 17.9086 62.0914 0 40 0C17.9086 0 0 17.9086 0 40C0 62.0914 17.9086 80 40 80Z" fill="black"/>
    <path d="M26.5293 68.5822L26.4969 68.0367C26.8384 67.9188 27.2558 67.9681 27.6198 68.1203C28.4987 68.4884 28.7788 69.1898 28.4183 70.0511L27.2366 72.874L28.071 73.2235L27.8481 73.7558L27.0136 73.4069L26.5862 74.4277L25.9559 74.1636L26.3833 73.1428L24.9629 72.5486L25.1859 72.0156L26.6063 72.6105L27.7732 69.8225C28.0036 69.2722 27.8459 68.8517 27.3221 68.6322C27.0647 68.5245 26.7737 68.4968 26.5293 68.5822Z" fill="white"/>
    <path d="M20.6105 70.0613C19.5128 69.3486 19.2477 68.3964 19.9605 67.2986L21.6691 64.6671L22.218 65.0237L21.7882 65.6854C22.3296 65.4171 23.003 65.4761 23.7052 65.932C24.6657 66.5558 24.93 67.4388 24.453 68.1732C24.0285 68.8271 23.2524 69.1031 22.0335 68.3116L20.6856 67.4364L20.5179 67.695C20.0462 68.421 20.201 69.0839 20.992 69.5976C21.5408 69.9543 22.1832 70.0956 22.7295 70.0144L22.71 70.6099C22.0463 70.6953 21.2804 70.4962 20.6105 70.0613ZM23.3229 66.326C22.6772 65.9067 22.0018 65.9043 21.4141 66.3146L20.9634 67.0087L22.2952 67.8737C23.1185 68.4084 23.5945 68.258 23.8776 67.8225C24.1973 67.3299 24.0009 66.7663 23.3229 66.326Z" fill="white"/>
    <path d="M17.3065 60.5029L16.9853 63.7456L18.6055 63.7973L19.616 62.7663L20.104 63.2445L15.1057 68.3447L14.6176 67.8665L18.006 64.409L13.9144 64.2665L13.3096 63.6734L16.3044 63.7113L16.7085 59.9167L17.3065 60.5029Z" fill="white"/>
    <path d="M11.5486 56.6309C11.5963 56.5985 11.6654 56.5632 11.7292 56.52L14.1065 60.0243C14.9393 59.3663 15.0669 58.3029 14.4455 57.387C14.0997 56.8773 13.6086 56.5476 13.0261 56.4775L13.1764 55.9104C13.8763 55.9822 14.5097 56.4015 14.9581 57.0625C15.8441 58.3687 15.5573 59.8658 14.3148 60.7086C13.0724 61.5513 11.5994 61.283 10.7998 60.1044C10.0002 58.9257 10.2902 57.4846 11.5486 56.6309ZM11.2857 59.7748C11.8367 60.5871 12.8154 60.7958 13.6843 60.3104L11.669 57.34C10.8973 57.9681 10.7291 58.9545 11.2857 59.7748Z" fill="white"/>
    <path d="M5.81861 47.9843L5.63867 47.335L11.7774 48.2602C12.8457 48.4035 13.2957 48.8381 13.4885 49.5336C13.6145 49.9881 13.5869 50.4651 13.3724 50.8441L12.796 50.6743C12.9703 50.3664 13.0179 50.0336 12.9202 49.6811C12.7994 49.2453 12.5131 49.005 11.8239 48.8965L11.2918 48.8142L7.02674 52.3433L6.83655 51.6569L10.4732 48.6716L5.81861 47.9843Z" fill="white"/>
    <path d="M10.3789 42.6624C10.484 44.1408 9.48663 45.3116 7.98907 45.4181C6.49144 45.5246 5.34809 44.5059 5.24299 43.0276C5.1379 41.5492 6.12639 40.3886 7.62396 40.2822C9.12152 40.1757 10.2738 41.1841 10.3789 42.6624ZM9.77409 42.7055C9.6977 41.6303 8.85385 40.8895 7.6731 40.9734C6.49229 41.0573 5.76175 41.9101 5.83818 42.9852C5.91461 44.0604 6.75911 44.8108 7.93992 44.7269C9.12068 44.643 9.85054 43.7806 9.77409 42.7055Z" fill="white"/>
    <path d="M5.92478 33.8625L6.02129 33.186L11.0328 33.9011L10.9403 34.549L10.0257 34.4185C10.5851 34.858 10.8452 35.5561 10.7311 36.3564C10.5489 37.6332 9.71471 38.3696 8.27603 38.1644L5.37012 37.7497L5.46664 37.0733L8.30586 37.4784C9.37293 37.6307 9.99489 37.1555 10.1308 36.2028C10.2804 35.1548 9.69768 34.4008 8.55441 34.2377L5.92478 33.8625Z" fill="white"/>
    <path d="M8.04669 30.2201C7.51111 29.7025 7.38167 28.9774 7.68224 28.0936L8.31093 28.3074C8.29235 28.3621 8.26462 28.4137 8.24916 28.4592C7.90823 29.4615 8.33842 30.2889 9.46823 30.6732L11.9102 31.5037L11.6901 32.1506L6.89746 30.5205L7.10817 29.901L8.04669 30.2201Z" fill="white"/>
    <path d="M12.9143 19.2733C13.7844 18.1214 15.2634 17.8877 16.4844 18.81C17.7132 19.738 17.8929 21.2247 17.0229 22.3766C16.5356 23.0217 15.8416 23.3658 15.0641 23.3093L17.3142 25.0088L16.9024 25.5541L11.373 21.3777L11.7675 20.8555L12.5662 21.4588C12.278 20.7225 12.4096 19.9415 12.9143 19.2733ZM16.5101 22.0496C17.1539 21.1971 17.0172 20.0687 16.0726 19.3553C15.1357 18.6476 14.0052 18.819 13.3614 19.6713C12.7118 20.5315 12.8619 21.658 13.7989 22.3657C14.7435 23.0792 15.8604 22.9097 16.5101 22.0496Z" fill="white"/>
    <path d="M17.3307 16.1225C17.1126 15.4104 17.3502 14.7131 18.0409 14.0851L18.4877 14.5765C18.4449 14.6154 18.3957 14.6471 18.3601 14.6795C17.5767 15.3916 17.5528 16.3238 18.3555 17.2069L20.0905 19.1154L19.5849 19.575L16.1797 15.8292L16.664 15.389L17.3307 16.1225Z" fill="white"/>
    <path d="M24.9674 15.5885C23.7052 16.3654 22.2059 16.0224 21.4191 14.7438C20.6321 13.4651 21.0066 11.9803 22.2688 11.2036C23.5311 10.4267 25.0171 10.7665 25.804 12.0451C26.5909 13.3237 26.2297 14.8117 24.9674 15.5885ZM24.6497 15.0722C25.5677 14.5073 25.8343 13.4165 25.2139 12.4083C24.5934 11.4002 23.4995 11.1468 22.5816 11.7117C21.6636 12.2766 21.3887 13.3725 22.0091 14.3806C22.6296 15.3888 23.7317 15.6371 24.6497 15.0722Z" fill="white"/>
    <path d="M26.9602 7.73842C26.7009 7.8417 26.4134 7.71791 26.3137 7.4675C26.2176 7.22612 26.3414 6.9386 26.6007 6.83532C26.86 6.7321 27.144 6.84693 27.2401 7.08837C27.3433 7.34768 27.2285 7.63165 26.9602 7.73842ZM28.8863 15.673C28.5108 15.8224 28.0871 15.8772 27.7728 15.764L27.804 15.1922C28.0559 15.2784 28.3383 15.2592 28.6334 15.1417C29.1341 14.9424 29.2902 14.5281 29.0589 13.9468L27.0477 8.89487L27.6825 8.64212L29.6937 13.6941C30.039 14.5615 29.7804 15.317 28.8863 15.673Z" fill="white"/>
    <path d="M36.2908 8.98126C36.3029 9.03768 36.3098 9.11497 36.326 9.19022L32.1869 10.0841C32.4856 11.1026 33.4241 11.6187 34.5059 11.3851C35.1081 11.2551 35.5975 10.9229 35.8803 10.4089L36.3501 10.7604C36.0217 11.3826 35.3959 11.8132 34.6151 11.9818C33.0724 12.315 31.7912 11.4889 31.4743 10.0214C31.1574 8.55389 31.9572 7.28827 33.3495 6.98757C34.7417 6.68688 35.9698 7.49488 36.2908 8.98126ZM33.4734 7.56141C32.5139 7.76863 31.9546 8.59834 32.0792 9.58553L35.5881 8.82775C35.2942 7.87708 34.4424 7.35215 33.4734 7.56141Z" fill="white"/>
    <path d="M40.453 11.4939C38.9421 11.514 37.8309 10.4604 37.8108 8.94953C37.7907 7.43867 38.8737 6.36553 40.3845 6.34544C41.241 6.33407 41.9672 6.66129 42.3802 7.31994L41.8748 7.67314C41.5216 7.1677 40.9795 6.93431 40.3925 6.94207C39.2858 6.95681 38.4879 7.75663 38.5037 8.94033C38.5195 10.1336 39.3382 10.9023 40.4449 10.8876C41.0319 10.8798 41.5678 10.6417 41.9074 10.127L42.4221 10.4667C42.0266 11.1264 41.3095 11.4825 40.453 11.4939Z" fill="white"/>
    <path d="M46.8553 11.3794L47.0115 11.9032C46.7059 12.0959 46.2882 12.143 45.899 12.0777C44.9593 11.9201 44.5265 11.3011 44.6809 10.3803L45.1871 7.36205L44.2949 7.21239L44.3904 6.64295L45.2826 6.79254L45.4657 5.70105L46.1396 5.81407L45.9565 6.90557L47.4751 7.1603L47.3796 7.72981L45.861 7.47507L45.3612 10.4554C45.2624 11.0439 45.5121 11.4176 46.0721 11.5115C46.3473 11.5576 46.6369 11.5184 46.8553 11.3794Z" fill="white"/>
    <path d="M55.1496 14.6201L55.1481 15.1667C54.8 15.2631 54.3864 15.1878 54.0326 15.013C53.1783 14.5912 52.9422 13.8737 53.3555 13.0366L54.7105 10.2924L53.8993 9.89188L54.1549 9.37411L54.9661 9.77465L55.4561 8.78223L56.0688 9.08472L55.5788 10.0771L56.9595 10.7589L56.7039 11.2766L55.3232 10.5949L53.9853 13.3046C53.7211 13.8396 53.8524 14.2693 54.3615 14.5208C54.6118 14.6443 54.9004 14.6902 55.1496 14.6201Z" fill="white"/>
    <path d="M58.2991 17.8146C57.1145 16.9238 56.8854 15.4029 57.7877 14.203C58.6901 13.003 60.2089 12.8086 61.3938 13.6993C62.5782 14.59 62.8055 16.0975 61.9033 17.2974C61.0004 18.4974 59.4837 18.7053 58.2991 17.8146ZM58.6635 17.33C59.525 17.9778 60.6377 17.8271 61.3493 16.881C62.0609 15.9348 61.8967 14.824 61.0347 14.1762C60.1734 13.5284 59.053 13.6733 58.3415 14.6194C57.6301 15.5656 57.802 16.6821 58.6635 17.33Z" fill="white"/>
    <path d="M69.7103 22.9978C70.3858 24.0279 70.2546 25.1267 69.0396 25.9236L66.5849 27.5333L66.2101 26.9618L68.6083 25.3892C69.5016 24.8034 69.6543 24.0357 69.1268 23.2309C68.5301 22.3215 67.5924 22.1196 66.6264 22.7528L64.405 24.2095L64.0303 23.6381L68.2637 20.8621L68.6228 21.4093L67.842 21.9212C68.5578 21.8893 69.2303 22.2654 69.7103 22.9978Z" fill="white"/>
    <path d="M71.1588 32.3162C71.1053 32.3373 71.0301 32.3565 70.9585 32.3847L69.4096 28.4434C68.4526 28.9021 68.0941 29.9115 68.499 30.9416C68.7245 31.5149 69.1311 31.9445 69.6839 32.1409L69.4126 32.6611C68.7456 32.4372 68.2199 31.8889 67.9275 31.1455C67.3507 29.6764 67.9594 28.279 69.3567 27.73C70.754 27.1809 72.132 27.7667 72.6529 29.0923C73.1739 30.4181 72.5742 31.7601 71.1588 32.3162ZM72.1068 29.3071C71.7477 28.3934 70.8388 27.975 69.8842 28.2569L71.1973 31.598C72.0881 31.1549 72.4689 30.2297 72.1068 29.3071Z" fill="white"/>
    <path d="M75.0445 40.6522L75.133 41.2715L69.8512 40.0906L69.7597 39.4523L73.6406 37.2847L69.3086 36.2891L69.2178 35.6508L73.96 33.0492L74.0521 33.6971L70.0178 35.8768L74.5062 36.8793L74.5892 37.4605L70.5585 39.6688L75.0445 40.6522Z" fill="white"/>
    <path d="M73.6291 50.1855C73.3482 51.3848 72.461 52.0466 71.0462 51.7146L68.1885 51.044L68.3449 50.3787L71.137 51.034C72.177 51.278 72.8381 50.8599 73.0583 49.923C73.3067 48.8642 72.8068 48.045 71.6826 47.7812L69.0967 47.1744L69.2525 46.5092L76.2047 48.1406L76.0489 48.8058L73.1629 48.1286C73.6489 48.6281 73.8252 49.3516 73.6291 50.1855Z" fill="white"/>
    <path d="M67.8709 57.654C67.8186 57.6296 67.753 57.5883 67.6832 57.5557L69.4733 53.7183C68.4814 53.3404 67.5028 53.776 67.0354 54.779C66.775 55.3371 66.7431 55.9279 66.9819 56.4639L66.4177 56.6256C66.1205 55.9878 66.156 55.229 66.4941 54.5052C67.1611 53.0749 68.5939 52.5538 69.9545 53.1885C71.3145 53.8234 71.8396 55.2257 71.2369 56.5165C70.6348 57.8073 69.2489 58.2969 67.8709 57.654ZM70.7052 56.2682C71.1202 55.3786 70.7972 54.4316 69.9359 53.9339L68.4177 57.187C69.353 57.5277 70.2859 57.1665 70.7052 56.2682Z" fill="white"/>
    <path d="M69.4384 61.6529C69.5966 61.4231 69.904 61.366 70.1259 61.5188C70.3401 61.6662 70.3972 61.9741 70.239 62.2039C70.0808 62.4343 69.7807 62.4962 69.5665 62.3489C69.3368 62.1907 69.2742 61.8911 69.4384 61.6529ZM64.5524 57.8705L68.7226 60.7404L68.3353 61.3034L64.165 58.4335L64.5524 57.8705Z" fill="white"/>
    <path d="M63.0306 67.3227L62.5723 67.7901L59.3974 64.6773C58.1535 63.4581 58.1897 62.2936 59.3621 61.0978C60.0089 60.4385 60.8418 59.9878 61.5696 59.9601L61.6977 60.5715C61.0517 60.6118 60.3539 60.9522 59.8084 61.5086C58.9123 62.4229 58.9205 63.253 59.8139 64.1287L60.2745 64.5805C60.1103 63.8268 60.375 63.0755 60.9548 62.4842C61.9654 61.4533 63.4547 61.3775 64.4929 62.3952C65.5305 63.4124 65.4697 64.8896 64.4592 65.9206C63.8667 66.5251 63.107 66.8048 62.3365 66.6424L63.0306 67.3227ZM61.3404 62.957C60.5591 63.754 60.5356 64.8638 61.3194 65.6319C62.1025 66.4 63.2045 66.3483 63.9864 65.5507C64.7678 64.7537 64.7906 63.6578 64.0075 62.8896C63.2243 62.1215 62.1218 62.1594 61.3404 62.957Z" fill="white"/>
    <path d="M58.2219 70.8277C57.1932 71.505 56.0941 71.3762 55.2946 70.163L53.6797 67.7119L54.2503 67.3359L55.8281 69.7305C56.4159 70.6226 57.1838 70.7735 57.9875 70.2442C58.8956 69.6457 59.0956 68.7074 58.4602 67.7432L56.9988 65.5248L57.5694 65.1489L61.4981 71.1122L60.9279 71.4881L59.2968 69.0129C59.3063 69.7095 58.9371 70.3561 58.2219 70.8277Z" fill="white"/>
    <path d="M50.0853 69.9994L49.6738 69.6397C49.8295 69.3137 50.1577 69.0508 50.5217 68.8987C51.4006 68.5305 52.097 68.8235 52.4575 69.6848L53.6393 72.5077L54.4738 72.1582L54.6967 72.6911L53.8623 73.0406L54.2896 74.0614L53.6593 74.3254L53.232 73.3041L51.8115 73.899L51.5885 73.366L53.009 72.7718L51.842 69.9838C51.6116 69.4334 51.2012 69.2505 50.6774 69.4701C50.4199 69.5778 50.1959 69.7654 50.0853 69.9994Z" fill="white"/>
    <path d="M38.2979 43.1367L41.3266 40.1505C41.3817 40.0937 41.4251 40.0266 41.4543 39.9529C41.5154 39.8069 41.5166 39.6427 41.4575 39.4958C41.4294 39.4218 41.3869 39.354 41.3326 39.2964L38.3464 36.2678C38.2907 36.2113 38.2244 36.1663 38.1514 36.1355C38.0783 36.1046 37.9998 36.0884 37.9206 36.0878C37.7604 36.0867 37.6063 36.1493 37.4922 36.2617C37.3782 36.3742 37.3135 36.5274 37.3123 36.6875C37.3112 36.8477 37.3737 37.0018 37.4862 37.1159L39.4572 39.1088L34.8919 39.0765C34.7323 39.0754 34.5789 39.1377 34.4653 39.2497C34.3517 39.3617 34.2872 39.5143 34.2861 39.6738C34.285 39.8333 34.3473 39.9867 34.4593 40.1004C34.5713 40.2139 34.7239 40.2784 34.8834 40.2795L39.4487 40.3117L37.4498 42.2766C37.393 42.3321 37.3478 42.3983 37.3168 42.4714C37.2857 42.5445 37.2694 42.623 37.2688 42.7024C37.2683 42.7818 37.2834 42.8605 37.3135 42.934C37.3435 43.0076 37.3878 43.0744 37.4437 43.1307C37.4993 43.1875 37.5655 43.2327 37.6386 43.2638C37.7117 43.2948 37.7901 43.3111 37.8695 43.3117C37.9489 43.3122 38.0277 43.297 38.1012 43.267C38.1747 43.237 38.2416 43.1927 38.2979 43.1367Z" fill="white"/>
  </g>
  <defs>
    <clipPath id="clip0_56_574">
      <rect width="80" height="80" fill="white"/>
    </clipPath>
  </defs>
</svg>