<svg width="300" height="224" viewBox="0 0 300 224" fill="none" xmlns="http://www.w3.org/2000/svg">
<g clip-path="url(#clip0_147_833)">
<path d="M269.94 206.124H250.068V206.274H269.94V206.124Z" fill="#EBEBEB"/>
<path d="M198.732 207.756H193.518V207.906H198.732V207.756Z" fill="#EBEBEB"/>
<path d="M249.468 200.556H237.954V200.706H249.468V200.556Z" fill="#EBEBEB"/>
<path d="M57.3896 201.564H31.4756V201.714H57.3896V201.564Z" fill="#EBEBEB"/>
<path d="M66.5343 201.564H62.7363V201.714H66.5343V201.564Z" fill="#EBEBEB"/>
<path d="M135.09 204.096H78.8818V204.246H135.09V204.096Z" fill="#EBEBEB"/>
<path d="M143.04 169.71H27.1799C25.2899 169.71 23.7539 168.174 23.7539 166.284V3.426C23.7539 1.536 25.2899 0 27.1799 0H143.04C144.93 0 146.466 1.536 146.466 3.426V166.284C146.466 168.174 144.93 169.71 143.04 169.71ZM27.1799 0.15C25.3739 0.15 23.9039 1.62 23.9039 3.426V166.284C23.9039 168.09 25.3739 169.56 27.1799 169.56H143.04C144.846 169.56 146.316 168.09 146.316 166.284V3.426C146.316 1.62 144.846 0.15 143.04 0.15H27.1799Z" fill="#EBEBEB"/>
<path d="M272.82 169.71H156.96C155.07 169.71 153.534 168.174 153.534 166.284V3.426C153.534 1.536 155.07 0 156.96 0H272.82C274.71 0 276.246 1.536 276.246 3.426V166.284C276.246 168.174 274.71 169.71 272.82 169.71ZM156.96 0.15C155.154 0.15 153.684 1.62 153.684 3.426V166.284C153.684 168.09 155.154 169.56 156.96 169.56H272.82C274.626 169.56 276.096 168.09 276.096 166.284V3.426C276.096 1.62 274.626 0.15 272.82 0.15H156.96Z" fill="#EBEBEB"/>
<path d="M300 196.47H0V196.62H300V196.47Z" fill="#EBEBEB"/>
<path d="M210.041 192.99H267.149V117H210.041V192.99Z" fill="#F5F5F5"/>
<path d="M199.145 192.99H210.041V117H199.145V192.99Z" fill="#E6E6E6"/>
<path d="M213.749 141.09H263.147V122.634H213.749V141.09Z" fill="#FAFAFA"/>
<path d="M244.89 122.634L244.674 125.094C244.602 125.904 243.924 126.528 243.108 126.528H233.784C232.968 126.528 232.29 125.904 232.218 125.094L232.002 122.634H244.884H244.89Z" fill="#EBEBEB"/>
<path d="M213.749 161.556H263.147V143.1H213.749V161.556Z" fill="#FAFAFA"/>
<path d="M244.89 143.106L244.674 145.566C244.602 146.376 243.924 147 243.108 147H233.784C232.968 147 232.29 146.376 232.218 145.566L232.002 143.106H244.884H244.89Z" fill="#EBEBEB"/>
<path d="M213.749 182.028H263.147V163.572H213.749V182.028Z" fill="#FAFAFA"/>
<path d="M244.89 163.572L244.674 166.032C244.602 166.842 243.924 167.466 243.108 167.466H233.784C232.968 167.466 232.29 166.842 232.218 166.032L232.002 163.572H244.884H244.89Z" fill="#EBEBEB"/>
<path d="M213.749 196.776H262.547L263.147 192.978H213.749V196.776Z" fill="#E6E6E6"/>
<path d="M203.549 196.776H213.749V192.978H202.949L203.549 196.776Z" fill="#E0E0E0"/>
<path d="M236.687 117.078H256.187L254.027 92.352H234.527L236.687 117.078Z" fill="#FAFAFA"/>
<path d="M236.688 117.078H235.758L233.592 92.352H234.528L236.688 117.078Z" fill="#EBEBEB"/>
<path d="M238.457 114.558H253.979L252.257 94.872H236.735L238.457 114.558Z" fill="#F0F0F0"/>
<path d="M239.591 112.938H252.557L251.123 96.492H238.151L239.591 112.938Z" fill="#E6E6E6"/>
<path d="M231.21 117.078L232.548 101.772H213.138L211.8 117.078H231.21Z" fill="#F0F0F0"/>
<path d="M231.21 117.078L232.548 101.772H233.592L232.254 117.078H231.21Z" fill="#E0E0E0"/>
<path d="M229.368 115.518L230.436 103.332H214.98L213.912 115.518H229.368Z" fill="#EBEBEB"/>
<path d="M228.179 114.516L229.073 104.334H216.161L215.273 114.516H228.179Z" fill="#F5F5F5"/>
<path d="M186.383 186.492C186.383 190.548 185.747 193.17 184.673 194.856C183.869 196.122 182.417 196.836 180.917 196.836H175.043C173.543 196.836 172.097 196.122 171.287 194.856C170.213 193.17 169.577 190.548 169.577 186.492C169.577 180.606 172.139 175.902 172.979 172.14C173.279 170.784 172.277 166.638 172.277 166.638H183.677C183.677 166.638 182.675 170.79 182.975 172.14C183.815 175.902 186.377 180.612 186.377 186.492H186.383Z" fill="#EBEBEB"/>
<path d="M205.8 162.678C205.8 157.572 197.79 159.69 195.774 151.764C195.012 148.764 201.522 141.966 201.522 141.966H181.212C181.212 141.966 187.728 148.764 186.96 151.764C184.944 159.69 176.934 157.566 176.934 162.678C176.934 168.306 188.232 180.018 188.772 193.206C188.82 194.382 186.648 196.83 186.648 196.83H196.08C196.08 196.83 193.908 194.388 193.956 193.206C194.502 180.018 205.794 168.3 205.794 162.678H205.8Z" fill="#F5F5F5"/>
<path d="M199.661 175.956C200.843 173.472 198.402 165.03 198.402 165.03H207.203C207.203 165.03 204.761 173.472 205.943 175.956C206.777 177.708 208.673 178.83 208.673 180.9V193.362C208.673 196.59 206.033 196.83 202.805 196.83C199.577 196.83 196.938 196.59 196.938 193.362V180.9C196.938 178.824 198.833 177.708 199.667 175.956H199.661Z" fill="#F0F0F0"/>
<path d="M99.0896 102.348C94.0316 100.158 91.1516 95.538 92.6576 92.046C94.1696 88.554 99.5096 87.498 104.568 89.688C109.626 91.878 112.512 96.498 111 99.99C109.488 103.482 104.148 104.538 99.0896 102.348ZM103.116 93.054C100.746 92.028 98.2436 92.526 97.5356 94.158C96.8276 95.796 98.1776 97.956 100.548 98.982C102.918 100.008 105.42 99.51 106.128 97.878C106.836 96.24 105.486 94.08 103.116 93.054Z" fill="#FBF1F8"/>
<path d="M105.042 93.246L102.642 92.208L117.162 58.644C117.45 57.978 118.218 57.678 118.884 57.96C119.55 58.248 119.85 59.016 119.568 59.682L105.048 93.246H105.042Z" fill="#FBF1F8"/>
<path d="M120.672 62.928L116.058 60.912L117.102 58.512L121.71 60.522L120.672 62.928Z" fill="#FBF1F8"/>
<path d="M118.398 65.616L115.098 64.182L116.136 61.776L119.436 63.21L118.398 65.616Z" fill="#FBF1F8"/>
<path d="M114.793 66.3599L113.754 68.7605L117.454 70.3625L118.493 67.9618L114.793 66.3599Z" fill="#FBF1F8"/>
<path d="M105.972 89.664L104.652 89.094C103.992 88.812 103.692 88.044 103.974 87.39V87.372C104.268 86.712 105.03 86.412 105.69 86.694L107.01 87.264C107.67 87.546 107.97 88.314 107.688 88.968V88.986C107.394 89.646 106.632 89.946 105.972 89.664Z" fill="#FBF1F8"/>
<path d="M209.081 78.126C213.089 80.796 214.121 86.31 211.385 90.414C208.649 94.518 203.165 95.688 199.157 93.024C195.149 90.354 194.117 84.84 196.853 80.736C199.589 76.632 205.073 75.462 209.081 78.132V78.126ZM201.791 89.064C203.669 90.312 206.237 89.766 207.521 87.84C208.805 85.914 208.319 83.334 206.441 82.08C204.563 80.832 201.995 81.378 200.711 83.304C199.427 85.23 199.913 87.81 201.791 89.064Z" fill="#FBF1F8"/>
<path d="M200.825 87.996L203.309 89.652L185.543 116.844C185.087 117.528 184.157 117.714 183.473 117.258C182.789 116.802 182.603 115.878 183.059 115.188L200.825 87.996Z" fill="#FBF1F8"/>
<path d="M183.167 109.26L188.393 112.77L185.783 116.688L180.545 113.172C179.795 112.668 179.591 111.648 180.095 110.898L180.881 109.716C181.385 108.96 182.411 108.756 183.167 109.26Z" fill="#FBF1F8"/>
<path d="M136.524 26.16L133.764 33.306C133.518 33.948 132.792 34.272 132.15 34.02C131.508 33.774 131.184 33.048 131.436 32.406L134.196 25.26C135.084 22.95 133.932 20.352 131.628 19.458L129.072 18.474C126.762 17.586 124.164 18.738 123.27 21.042L122.142 23.958L119.808 23.058L120.936 20.142C122.322 16.548 126.378 14.754 129.966 16.14L132.522 17.124C136.116 18.51 137.91 22.566 136.524 26.16Z" fill="#FBF1F8"/>
<path d="M136.086 27.288C135.9 27.054 135.654 26.856 135.354 26.742L121.434 21.366C121.122 21.246 120.798 21.222 120.492 21.282C119.934 21.39 119.442 21.774 119.226 22.344L113.85 36.264C113.508 37.146 113.946 38.13 114.828 38.472L128.748 43.848C129.63 44.19 130.614 43.752 130.956 42.87L136.332 28.95C136.554 28.374 136.446 27.744 136.086 27.288ZM125.514 38.046L121.098 36.342L123.432 32.268C123.138 31.674 123.084 30.966 123.342 30.3C123.828 29.04 125.244 28.41 126.51 28.896C127.776 29.382 128.4 30.804 127.914 32.064C127.656 32.73 127.14 33.216 126.522 33.456L125.514 38.046Z" fill="#FBF1F8"/>
<path d="M41.4894 188.706H152.567V128.928H41.4894L41.4894 188.706Z" fill="#E6E6E6"/>
<path d="M143.663 196.458H150.647V191.184H143.663V196.458Z" fill="#E6E6E6"/>
<path d="M33.0121 196.458H39.9961L39.9961 124.476H33.0121L33.0121 196.458Z" fill="#E6E6E6"/>
<path d="M39.9121 124.476V196.458H43.6381V192.426H150.648V196.458H154.374V124.476H39.9121ZM43.6381 130.992H95.2801V155.994H43.6381V130.992ZM150.648 185.91H99.0061V130.992H150.648V185.91ZM43.6381 185.91V159.714H95.2801V185.91H43.6381Z" fill="#F0F0F0"/>
<path d="M98.9993 185.91H147.155V133.68H98.9993V185.91Z" fill="#F5F5F5"/>
<path d="M101.184 158.232C101.184 159.468 102.186 160.47 103.422 160.47C104.658 160.47 105.66 159.468 105.66 158.232C105.66 156.996 104.658 155.994 103.422 155.994C102.186 155.994 101.184 156.996 101.184 158.232Z" fill="#FAFAFA"/>
<path d="M103.422 160.47C104.322 160.47 105.096 159.93 105.45 159.162C105.582 159.444 105.66 159.762 105.66 160.092C105.66 161.328 104.658 162.33 103.422 162.33C102.186 162.33 101.184 161.328 101.184 160.092C101.184 159.756 101.262 159.444 101.394 159.162C101.748 159.93 102.522 160.47 103.422 160.47Z" fill="#E0E0E0"/>
<path d="M128.484 185.91H116.994L111.504 133.68H122.994L128.484 185.91Z" fill="#FAFAFA"/>
<path d="M114.053 185.91H111.761L106.277 133.68H108.563L114.053 185.91Z" fill="#FAFAFA"/>
<path d="M83.6454 155.97H88.1934V133.632H83.6454V155.97Z" fill="#FAFAFA"/>
<path d="M64.7752 155.97H69.3232V133.632H64.7752V155.97Z" fill="#F5F5F5"/>
<path d="M79.0917 155.97H83.6396V135.198H79.0917V155.97Z" fill="#F5F5F5"/>
<path d="M69.3241 155.97H73.8721V135.198H69.3241V155.97Z" fill="#FAFAFA"/>
<path d="M73.8774 155.97H76.8174V133.632H73.8774V155.97Z" fill="#EBEBEB"/>
<path d="M76.8119 155.97H79.0859V135.198H76.8119V155.97Z" fill="#FAFAFA"/>
<path d="M60.2274 155.97H64.7754V133.632H60.2274V155.97Z" fill="#EBEBEB"/>
<path d="M55.6737 155.97H60.2217V135.198H55.6737V155.97Z" fill="#E6E6E6"/>
<path d="M45.9061 155.97H50.4541V135.198H45.9061V155.97Z" fill="#E6E6E6"/>
<path d="M50.4594 155.97H53.3994V133.632H50.4594V155.97Z" fill="#FAFAFA"/>
<path d="M53.3998 155.97H55.6738V135.198H53.3998V155.97Z" fill="#EBEBEB"/>
<path d="M43.6313 155.964H45.9053V134.154H43.6313V155.964Z" fill="#EBEBEB"/>
<path d="M48.1798 163.572H43.6318V185.91H48.1798V163.572Z" fill="#EBEBEB"/>
<path d="M67.0441 163.572H62.4961V185.91H67.0441V163.572Z" fill="#FAFAFA"/>
<path d="M52.7277 165.138H48.1797V185.91H52.7277V165.138Z" fill="#FAFAFA"/>
<path d="M62.4953 165.138H57.9473V185.91H62.4953V165.138Z" fill="#EBEBEB"/>
<path d="M57.9478 163.572H55.0078V185.91H57.9478V163.572Z" fill="#FAFAFA"/>
<path d="M55.0074 165.138H52.7334V185.91H55.0074V165.138Z" fill="#F5F5F5"/>
<path d="M71.5978 163.572H67.0498V185.91H71.5978V163.572Z" fill="#EBEBEB"/>
<path d="M76.1457 165.138H71.5977V185.91H76.1457V165.138Z" fill="#F5F5F5"/>
<path d="M85.9132 165.138H81.3652V185.91H85.9132V165.138Z" fill="#E6E6E6"/>
<path d="M81.3658 163.572H78.4258V185.91H81.3658V163.572Z" fill="#FAFAFA"/>
<path d="M91.1334 163.572H88.1934V185.91H91.1334V163.572Z" fill="#FAFAFA"/>
<path d="M78.4254 165.138H76.1514V185.91H78.4254V165.138Z" fill="#EBEBEB"/>
<path d="M88.1881 164.1H85.9141V185.91H88.1881V164.1Z" fill="#EBEBEB"/>
<path d="M48.7074 86.004C48.7074 86.004 47.9454 86.358 47.5974 87.066C47.2494 87.774 48.3294 89.088 48.3294 89.088C48.3294 89.088 49.2414 89.724 50.1414 89.31L51.0474 88.902C51.0474 88.902 49.5054 86.22 48.7554 86.196L48.7134 86.01L48.7074 86.004Z" fill="#58126A"/>
<path d="M52.5777 85.98C52.6857 87.252 51.8997 88.854 50.7657 88.956C49.6317 89.052 48.5757 87.612 48.4677 86.34C48.3597 85.068 49.2717 84.942 50.4117 84.846C51.5457 84.75 52.4697 84.714 52.5837 85.986L52.5777 85.98Z" fill="#58126A"/>
<path d="M49.2479 85.608C49.2479 85.608 50.1179 86.298 51.9059 85.896C51.9059 85.896 49.0859 87.774 49.2479 85.608Z" fill="#58126A"/>
<path d="M50.0156 85.356C50.0156 85.356 51.0176 85.182 51.0296 85.602C51.0296 85.602 51.8756 85.554 51.7616 85.2C51.6416 84.846 50.0156 85.362 50.0156 85.362V85.356Z" fill="#58126A"/>
<g opacity="0.2">
<path d="M49.2479 85.608C49.2479 85.608 50.1179 86.298 51.9059 85.896C51.9059 85.896 49.0859 87.774 49.2479 85.608Z" fill="#FBF1F8"/>
</g>
<g opacity="0.2">
<path d="M50.0156 85.356C50.0156 85.356 51.0176 85.182 51.0296 85.602C51.0296 85.602 51.8756 85.554 51.7616 85.2C51.6416 84.846 50.0156 85.362 50.0156 85.362V85.356Z" fill="#FBF1F8"/>
</g>
<path d="M48.8574 89.358C49.2174 89.946 49.9554 90.246 50.6394 90.162C51.3234 90.078 51.9354 89.652 52.3314 89.088C52.7274 88.524 52.9134 87.834 52.9554 87.15C52.9674 86.97 52.9794 86.526 52.7454 86.46C52.5294 86.4 52.3974 86.7 52.3014 86.838C52.0134 87.24 51.7134 87.618 51.3474 87.954C50.9934 88.278 50.6034 88.566 50.1834 88.8C50.0634 88.866 48.9234 89.46 48.8574 89.358Z" fill="#58126A"/>
<path d="M53.7294 86.82C53.9454 87.336 53.8674 87.96 53.5314 88.41C53.3094 88.704 52.9974 88.914 52.6854 89.1C52.4694 89.232 52.1874 89.358 51.9714 89.22C51.7374 89.07 51.7614 88.734 51.8154 88.458C51.8994 88.044 51.9894 87.63 52.0914 87.216C52.1754 86.88 52.2294 86.316 52.4274 86.028C52.6134 85.758 52.8774 85.92 53.1594 86.112C53.4114 86.286 53.6154 86.532 53.7354 86.814L53.7294 86.82Z" fill="#58126A"/>
<g opacity="0.2">
<path d="M49.1451 88.65C48.7071 88.632 48.2931 88.332 48.1311 87.924C48.0111 87.624 48.0171 86.856 48.4071 86.754C48.5811 87.438 48.7311 88.056 49.1451 88.644V88.65Z" fill="#FBF1F8"/>
</g>
<g opacity="0.2">
<path d="M52.1037 88.62C52.5177 88.5 52.8597 88.164 52.9857 87.75C53.0577 87.522 52.9677 86.358 52.6197 86.85C52.5057 87.012 52.5297 87.522 52.4697 87.726C52.3797 88.038 52.2597 88.338 52.0977 88.62H52.1037Z" fill="#FBF1F8"/>
</g>
<g opacity="0.2">
<path d="M50.5192 89.34C50.8372 89.61 51.3532 89.628 51.6832 89.37C51.6412 89.592 50.9332 89.784 50.7112 89.85C50.1412 90.018 49.8412 89.766 49.2832 89.532C49.2832 89.532 50.1592 89.664 50.5132 89.34H50.5192Z" fill="#FBF1F8"/>
</g>
<path d="M49.5293 112.71L49.5833 95.4L50.4713 90.132L50.8073 90.192L49.9253 95.43L49.8593 113.04L49.5293 112.71Z" fill="#FBF1F8"/>
<path d="M49.8889 95.31L49.6189 95.52C49.3489 95.166 49.1029 94.704 48.8209 94.17C48.3829 93.342 47.8849 92.406 47.1289 91.578L47.3809 91.35C48.1669 92.214 48.6709 93.168 49.1209 94.014C49.3969 94.536 49.6369 94.986 49.8889 95.316V95.31Z" fill="#FBF1F8"/>
<path d="M50.0995 92.988C50.5615 92.868 50.9755 92.574 51.2395 92.178C51.5395 91.728 51.6475 91.182 51.7435 90.648C51.1435 90.828 50.5015 90.534 49.8835 90.606C49.3915 90.66 48.9295 90.966 48.6775 91.392C48.3535 91.95 48.2215 92.58 48.5095 92.838C48.7435 93.048 49.4815 93.15 50.0995 92.988Z" fill="#58126A"/>
<path d="M47.7952 91.794C47.2432 92.142 46.5352 92.232 45.9112 92.028C45.2872 91.824 45.1072 90.894 44.8672 90.282C45.4312 90.168 46.8592 90.246 47.1832 90.282C47.5072 90.312 47.8372 90.462 48.0112 90.738C48.1852 91.014 48.1552 91.428 47.8912 91.614C47.8732 91.602 47.7952 91.794 47.7952 91.794Z" fill="#58126A"/>
<path d="M44.9573 92.802C45.3353 92.34 46.2713 92.01 46.8593 92.118C47.4473 92.226 47.9453 92.628 48.1553 93.108C47.9993 93.48 47.5853 93.69 47.1833 93.72C46.7813 93.75 46.3853 93.63 46.0013 93.51C45.6173 93.39 45.2213 93.276 44.8193 93.3L44.9633 92.802H44.9573Z" fill="#58126A"/>
<path d="M56.508 89.826C56.508 89.826 57.132 90.384 57.258 91.17C57.384 91.95 55.962 92.886 55.962 92.886C55.962 92.886 54.906 93.222 54.162 92.568L53.418 91.908C53.418 91.908 55.68 89.802 56.406 89.994L56.502 89.826H56.508Z" fill="#58126A"/>
<path d="M52.8123 88.668C52.3323 89.85 52.6143 91.614 53.6703 92.046C54.7263 92.478 56.1543 91.404 56.6343 90.222C57.1143 89.04 56.2743 88.65 55.2183 88.224C54.1623 87.798 53.2863 87.492 52.8123 88.674V88.668Z" fill="#58126A"/>
<path d="M56.1064 89.292C56.1064 89.292 55.0744 89.7 53.4844 88.788C53.4844 88.788 55.6264 91.416 56.1064 89.292Z" fill="#58126A"/>
<path d="M55.4463 88.824C55.4463 88.824 54.5403 88.362 54.4023 88.758C54.4023 88.758 53.6043 88.464 53.8203 88.158C54.0363 87.852 55.4403 88.824 55.4403 88.824H55.4463Z" fill="#58126A"/>
<g opacity="0.2">
<path d="M56.1064 89.292C56.1064 89.292 55.0744 89.7 53.4844 88.788C53.4844 88.788 55.6264 91.416 56.1064 89.292Z" fill="#FBF1F8"/>
</g>
<g opacity="0.2">
<path d="M55.4463 88.824C55.4463 88.824 54.5403 88.362 54.4023 88.758C54.4023 88.758 53.6043 88.464 53.8203 88.158C54.0363 87.852 55.4403 88.824 55.4403 88.824H55.4463Z" fill="#FBF1F8"/>
</g>
<path d="M55.3737 92.988C54.8577 93.444 54.0657 93.51 53.4357 93.234C52.8057 92.958 52.3437 92.364 52.1337 91.71C51.9237 91.056 51.9477 90.342 52.1037 89.67C52.1457 89.496 52.2597 89.07 52.5057 89.07C52.7277 89.07 52.7697 89.4 52.8237 89.562C52.9797 90.03 53.1597 90.48 53.4057 90.912C53.6457 91.326 53.9397 91.716 54.2697 92.064C54.3597 92.16 55.2837 93.066 55.3737 92.988Z" fill="#58126A"/>
<path d="M51.4681 89.13C51.1141 89.562 51.0001 90.18 51.1921 90.708C51.3181 91.056 51.5521 91.344 51.7981 91.62C51.9661 91.812 52.2001 92.01 52.4461 91.944C52.7101 91.872 52.7881 91.536 52.8181 91.266C52.8601 90.846 52.8961 90.42 52.9141 90C52.9321 89.652 53.0461 89.1 52.9441 88.764C52.8481 88.452 52.5481 88.524 52.2241 88.632C51.9301 88.728 51.6661 88.896 51.4681 89.136V89.13Z" fill="#58126A"/>
<g opacity="0.2">
<path d="M55.3086 92.232C55.7346 92.346 56.2146 92.184 56.4906 91.836C56.6946 91.584 56.9166 90.846 56.5686 90.642C56.2026 91.242 55.8786 91.788 55.3086 92.232Z" fill="#FBF1F8"/>
</g>
<g opacity="0.2">
<path d="M52.4885 91.332C52.1285 91.098 51.8945 90.672 51.9005 90.24C51.9005 90 52.3265 88.92 52.5125 89.484C52.5725 89.67 52.4045 90.15 52.3985 90.366C52.3925 90.69 52.4225 91.014 52.4885 91.332Z" fill="#FBF1F8"/>
</g>
<g opacity="0.2">
<path d="M53.7897 92.484C53.4057 92.652 52.9077 92.514 52.6677 92.172C52.6437 92.4 53.2677 92.79 53.4537 92.916C53.9517 93.246 54.3117 93.09 54.9117 93.036C54.9117 93.036 54.0297 92.904 53.7897 92.49V92.484Z" fill="#FBF1F8"/>
</g>
<path d="M49.0381 110.124L49.2541 109.416L49.5421 108.462L49.8781 107.346L52.5721 98.484L52.9081 95.94L53.2081 93.684L53.2681 93.216L53.4361 93.234V93.24L53.6101 93.258L53.6041 93.3L53.5441 93.744L53.2261 96.156L52.9621 98.118L52.9081 98.55L52.8841 98.622L49.8781 108.522L49.5361 109.632L49.3801 110.148L49.1701 110.85L49.0381 110.124Z" fill="#FBF1F8"/>
<path d="M52.6377 98.376L52.8357 98.652C53.2017 98.394 53.5677 98.022 53.9997 97.596C54.6597 96.936 55.4097 96.186 56.3757 95.616L56.2017 95.322C55.1997 95.916 54.4317 96.684 53.7597 97.356C53.3397 97.776 52.9797 98.136 52.6437 98.376H52.6377Z" fill="#FBF1F8"/>
<path d="M53.1241 96.096C52.7221 95.844 52.4101 95.442 52.2721 94.986C52.1161 94.47 52.1761 93.912 52.2361 93.378C52.7521 93.726 53.4541 93.636 54.0241 93.888C54.4801 94.086 54.8281 94.512 54.9421 94.992C55.0861 95.622 55.0261 96.264 54.6781 96.42C54.3901 96.552 53.6581 96.432 53.1181 96.096H53.1241Z" fill="#58126A"/>
<path d="M55.674 95.634C56.1 96.132 56.754 96.426 57.402 96.414C58.056 96.402 58.506 95.562 58.914 95.052C58.41 94.776 57.018 94.434 56.7 94.368C56.382 94.302 56.022 94.344 55.776 94.56C55.53 94.77 55.44 95.178 55.632 95.436C55.65 95.43 55.674 95.634 55.674 95.634Z" fill="#58126A"/>
<path d="M58.0922 97.434C57.8642 96.882 57.0662 96.288 56.4782 96.222C55.8842 96.15 55.2902 96.39 54.9482 96.786C54.9842 97.188 55.3202 97.512 55.6982 97.656C56.0762 97.8 56.4902 97.806 56.8922 97.806C57.2942 97.806 57.7082 97.806 58.0862 97.956L58.0982 97.434H58.0922Z" fill="#58126A"/>
<path d="M44.3521 89.136C44.3521 89.136 43.6621 89.622 43.4461 90.378C43.2301 91.14 44.5321 92.238 44.5321 92.238C44.5321 92.238 45.5401 92.7 46.3561 92.13L47.1721 91.566C47.1721 91.566 45.1681 89.208 44.4301 89.316L44.3521 89.136Z" fill="#58126A"/>
<path d="M48.1562 88.422C48.4922 89.652 48.0062 91.374 46.9082 91.674C45.8102 91.974 44.5142 90.744 44.1782 89.514C43.8422 88.284 44.7182 87.996 45.8222 87.696C46.9262 87.396 47.8262 87.192 48.1622 88.428L48.1562 88.422Z" fill="#58126A"/>
<path d="M44.8145 88.65C44.8145 88.65 45.7925 89.172 47.4785 88.458C47.4785 88.458 45.0425 90.816 44.8145 88.65Z" fill="#58126A"/>
<path d="M45.5225 88.266C45.5225 88.266 46.4765 87.912 46.5665 88.326C46.5665 88.326 47.3945 88.128 47.2145 87.798C47.0345 87.468 45.5225 88.266 45.5225 88.266Z" fill="#58126A"/>
<g opacity="0.2">
<path d="M44.8145 88.65C44.8145 88.65 45.7925 89.172 47.4785 88.458C47.4785 88.458 45.0425 90.816 44.8145 88.65Z" fill="#FBF1F8"/>
</g>
<g opacity="0.2">
<path d="M45.5225 88.266C45.5225 88.266 46.4765 87.912 46.5665 88.326C46.5665 88.326 47.3945 88.128 47.2145 87.798C47.0345 87.468 45.5225 88.266 45.5225 88.266Z" fill="#FBF1F8"/>
</g>
<path d="M45.1017 92.412C45.5637 92.922 46.3437 93.09 46.9977 92.886C47.6577 92.682 48.1857 92.154 48.4677 91.53C48.7557 90.906 48.8157 90.192 48.7317 89.508C48.7137 89.334 48.6417 88.89 48.4017 88.866C48.1797 88.842 48.1017 89.16 48.0297 89.316C47.8197 89.766 47.5917 90.192 47.2917 90.588C47.0037 90.972 46.6677 91.32 46.3017 91.632C46.1997 91.716 45.1797 92.508 45.0957 92.418L45.1017 92.412Z" fill="#58126A"/>
<path d="M49.4401 89.034C49.7461 89.502 49.7821 90.132 49.5301 90.63C49.3681 90.96 49.0981 91.218 48.8221 91.464C48.6301 91.632 48.3781 91.806 48.1381 91.71C47.8861 91.602 47.8441 91.266 47.8501 90.99C47.8501 90.564 47.8741 90.144 47.9041 89.718C47.9281 89.37 47.8741 88.806 48.0181 88.488C48.1501 88.188 48.4381 88.302 48.7501 88.44C49.0261 88.566 49.2721 88.77 49.4401 89.028V89.034Z" fill="#58126A"/>
<g opacity="0.2">
<path d="M45.2641 91.662C44.8321 91.722 44.3701 91.506 44.1361 91.134C43.9681 90.858 43.8301 90.102 44.1961 89.934C44.4901 90.576 44.7481 91.158 45.2581 91.662H45.2641Z" fill="#FBF1F8"/>
</g>
<g opacity="0.2">
<path d="M48.168 91.104C48.552 90.912 48.834 90.516 48.882 90.09C48.912 89.856 48.612 88.728 48.36 89.268C48.276 89.448 48.39 89.946 48.372 90.156C48.342 90.48 48.27 90.798 48.168 91.104Z" fill="#FBF1F8"/>
</g>
<g opacity="0.2">
<path d="M46.7405 92.094C47.1065 92.304 47.6105 92.226 47.8925 91.914C47.8925 92.142 47.2265 92.454 47.0225 92.556C46.4885 92.826 46.1525 92.628 45.5645 92.502C45.5645 92.502 46.4525 92.478 46.7405 92.094Z" fill="#FBF1F8"/>
</g>
<path d="M49.9561 115.26L46.9021 98.22L46.8301 92.886L47.1721 92.88L47.2441 98.196L50.3461 115.524L49.9561 115.26Z" fill="#FBF1F8"/>
<path d="M47.1898 98.082L46.9618 98.334C46.6318 98.034 46.3078 97.626 45.9298 97.146C45.3478 96.414 44.6938 95.58 43.7998 94.896L44.0098 94.626C44.9338 95.334 45.6058 96.186 46.1998 96.936C46.5658 97.398 46.8778 97.8 47.1898 98.082Z" fill="#FBF1F8"/>
<path d="M46.9741 95.76C47.4061 95.556 47.7601 95.196 47.9521 94.758C48.1681 94.26 48.1741 93.702 48.1741 93.162C47.6161 93.444 46.9322 93.276 46.3382 93.456C45.8642 93.6 45.4621 93.978 45.2941 94.446C45.0781 95.052 45.0601 95.7 45.3841 95.898C45.6541 96.06 46.3921 96.03 46.9741 95.76Z" fill="#58126A"/>
<path d="M44.4957 94.998C44.0157 95.442 43.3317 95.658 42.6837 95.568C42.0357 95.478 41.6877 94.596 41.3457 94.038C41.8797 93.822 43.3017 93.648 43.6257 93.618C43.9497 93.588 44.2977 93.678 44.5197 93.918C44.7417 94.158 44.7837 94.566 44.5557 94.806C44.5377 94.8 44.4897 94.998 44.4897 94.998H44.4957Z" fill="#58126A"/>
<path d="M41.8859 96.504C42.1739 95.982 43.0379 95.49 43.6319 95.49C44.2259 95.49 44.7899 95.796 45.0839 96.234C44.9999 96.63 44.6279 96.912 44.2379 97.008C43.8479 97.104 43.4339 97.062 43.0379 97.014C42.6359 96.966 42.2279 96.924 41.8379 97.02L41.8859 96.504Z" fill="#58126A"/>
<path d="M51.2094 104.808H47.6214C47.3514 104.808 47.1114 104.976 47.0334 105.234C46.7394 106.164 46.1094 108.612 46.1094 112.47C46.1094 116.706 47.2134 122.328 47.5614 123.99C47.6214 124.272 47.8674 124.47 48.1494 124.47H50.6454C50.9334 124.47 51.1734 124.266 51.2334 123.99C51.5814 122.328 52.6854 116.706 52.6854 112.47C52.6854 108.612 52.0554 106.17 51.7614 105.234C51.6834 104.988 51.4614 104.82 51.2034 104.808H51.2094Z" fill="#58126A"/>
<path d="M150 223.236C214.249 223.236 266.334 220.195 266.334 216.444C266.334 212.693 214.249 209.652 150 209.652C85.7505 209.652 33.666 212.693 33.666 216.444C33.666 220.195 85.7505 223.236 150 223.236Z" fill="black" fill-opacity="0.3"/>
<path d="M72.4676 193.092C72.2636 193.08 72.1016 192.906 72.1076 192.702C72.5516 175.068 73.4636 146.142 73.5116 145.98C73.5716 145.776 73.7876 145.668 73.9856 145.722C74.1896 145.782 74.3036 145.998 74.2436 146.196C74.2316 146.232 73.3136 175.26 72.8756 192.714C72.8756 192.924 72.6956 193.092 72.4856 193.086C72.4856 193.086 72.4736 193.086 72.4676 193.086V193.092Z" fill="#263238"/>
<path d="M70.098 134.208C70.248 135.564 71.874 140.274 73.23 140.13C74.586 139.98 75.162 135.036 75.018 133.674C74.868 132.318 73.65 131.334 72.294 131.484C70.938 131.634 69.954 132.852 70.104 134.208H70.098Z" fill="#58126A"/>
<path d="M76.6915 149.058C76.5415 147.702 74.9155 142.992 73.5595 143.142C72.2035 143.292 71.6275 148.236 71.7715 149.598C71.9215 150.954 73.1395 151.938 74.4955 151.788C75.8515 151.638 76.8355 150.42 76.6855 149.064L76.6915 149.058Z" fill="#58126A"/>
<path d="M65.9697 144.93C67.3257 144.78 72.0357 143.154 71.8857 141.798C71.7357 140.442 66.7917 139.866 65.4297 140.01C64.0737 140.16 63.0897 141.378 63.2397 142.734C63.3897 144.09 64.6077 145.074 65.9637 144.924L65.9697 144.93Z" fill="#58126A"/>
<path d="M80.8198 138.336C79.4638 138.486 74.7538 140.112 74.8978 141.468C75.0478 142.824 79.9918 143.4 81.3538 143.256C82.7098 143.106 83.6938 141.888 83.5438 140.532C83.3938 139.176 82.1758 138.192 80.8198 138.342V138.336Z" fill="#58126A"/>
<path d="M65.8135 138.714C66.8815 139.572 71.3575 141.75 72.2155 140.682C73.0735 139.614 69.9775 135.708 68.9155 134.856C67.8535 133.998 66.2935 134.172 65.4355 135.234C64.5775 136.296 64.7515 137.856 65.8135 138.714Z" fill="#58126A"/>
<path d="M80.9762 144.552C79.9142 143.694 75.4322 141.516 74.5742 142.584C73.7162 143.646 76.8122 147.552 77.8742 148.41C78.9362 149.268 80.4962 149.094 81.3542 148.032C82.2122 146.97 82.0382 145.41 80.9762 144.552Z" fill="#58126A"/>
<path d="M70.4761 149.214C71.3341 148.152 73.5121 143.67 72.4441 142.812C71.3821 141.954 67.4761 145.05 66.6181 146.112C65.7601 147.174 65.9341 148.734 66.9961 149.592C68.0581 150.45 69.6181 150.276 70.4761 149.214Z" fill="#58126A"/>
<path d="M76.3142 134.052C75.4562 135.114 73.2782 139.596 74.3462 140.454C75.4082 141.312 79.3141 138.216 80.1721 137.154C81.0301 136.092 80.8562 134.532 79.7942 133.674C78.7322 132.816 77.1722 132.99 76.3142 134.052Z" fill="#58126A"/>
<g opacity="0.6">
<path d="M70.098 134.208C70.248 135.564 71.874 140.274 73.23 140.13C74.586 139.98 75.162 135.036 75.018 133.674C74.868 132.318 73.65 131.334 72.294 131.484C70.938 131.634 69.954 132.852 70.104 134.208H70.098Z" fill="white"/>
<path d="M76.6915 149.058C76.5415 147.702 74.9155 142.992 73.5595 143.142C72.2035 143.292 71.6275 148.236 71.7715 149.598C71.9215 150.954 73.1395 151.938 74.4955 151.788C75.8515 151.638 76.8355 150.42 76.6855 149.064L76.6915 149.058Z" fill="white"/>
<path d="M65.9697 144.93C67.3257 144.78 72.0357 143.154 71.8857 141.798C71.7357 140.442 66.7917 139.866 65.4297 140.01C64.0737 140.16 63.0897 141.378 63.2397 142.734C63.3897 144.09 64.6077 145.074 65.9637 144.924L65.9697 144.93Z" fill="white"/>
<path d="M80.8198 138.336C79.4638 138.486 74.7538 140.112 74.8978 141.468C75.0478 142.824 79.9918 143.4 81.3538 143.256C82.7098 143.106 83.6938 141.888 83.5438 140.532C83.3938 139.176 82.1758 138.192 80.8198 138.342V138.336Z" fill="white"/>
<path d="M65.8135 138.714C66.8815 139.572 71.3575 141.75 72.2155 140.682C73.0735 139.614 69.9775 135.708 68.9155 134.856C67.8535 133.998 66.2935 134.172 65.4355 135.234C64.5775 136.296 64.7515 137.856 65.8135 138.714Z" fill="white"/>
<path d="M80.9762 144.552C79.9142 143.694 75.4322 141.516 74.5742 142.584C73.7162 143.646 76.8122 147.552 77.8742 148.41C78.9362 149.268 80.4962 149.094 81.3542 148.032C82.2122 146.97 82.0382 145.41 80.9762 144.552Z" fill="white"/>
<path d="M70.4761 149.214C71.3341 148.152 73.5121 143.67 72.4441 142.812C71.3821 141.954 67.4761 145.05 66.6181 146.112C65.7601 147.174 65.9341 148.734 66.9961 149.592C68.0581 150.45 69.6181 150.276 70.4761 149.214Z" fill="white"/>
<path d="M76.3142 134.052C75.4562 135.114 73.2782 139.596 74.3462 140.454C75.4082 141.312 79.3141 138.216 80.1721 137.154C81.0301 136.092 80.8562 134.532 79.7942 133.674C78.7322 132.816 77.1722 132.99 76.3142 134.052Z" fill="white"/>
</g>
<path d="M70.4821 141.948C70.6561 143.556 72.1021 144.72 73.7101 144.546C75.3181 144.372 76.4821 142.926 76.3081 141.318C76.1341 139.71 74.6881 138.546 73.0801 138.72C71.4721 138.894 70.3081 140.34 70.4821 141.948Z" fill="#58126A"/>
<path d="M70.7702 180.174C67.3922 180.246 61.6082 177.126 59.3282 174.078C57.0182 170.988 63.4982 172.89 62.8262 170.46C62.1542 168.03 54.1802 169.848 52.6982 166.368C51.2162 162.888 56.9762 163.668 56.7422 161.892C56.5082 160.11 50.5442 160.488 48.6182 156.792C46.6922 153.09 51.9422 155.154 51.1142 153.618C50.2862 152.082 43.6922 145.638 46.4402 144.282C49.1882 142.926 55.3682 149.64 57.4382 150.384C59.5082 151.128 59.9762 146.478 62.6702 148.692C65.3642 150.906 63.3782 160.638 66.5462 161.91C68.9042 162.858 67.8902 158.412 70.6082 159.528C75.3602 161.478 72.1442 180.144 70.7702 180.174Z" fill="#58126A"/>
<g opacity="0.2">
<path d="M70.7702 180.174C67.3922 180.246 61.6082 177.126 59.3282 174.078C57.0182 170.988 63.4982 172.89 62.8262 170.46C62.1542 168.03 54.1802 169.848 52.6982 166.368C51.2162 162.888 56.9762 163.668 56.7422 161.892C56.5082 160.11 50.5442 160.488 48.6182 156.792C46.6922 153.09 51.9422 155.154 51.1142 153.618C50.2862 152.082 43.6922 145.638 46.4402 144.282C49.1882 142.926 55.3682 149.64 57.4382 150.384C59.5082 151.128 59.9762 146.478 62.6702 148.692C65.3642 150.906 63.3782 160.638 66.5462 161.91C68.9042 162.858 67.8902 158.412 70.6082 159.528C75.3602 161.478 72.1442 180.144 70.7702 180.174Z" fill="white"/>
</g>
<path d="M75.6301 175.884C75.6841 175.98 75.1801 176.46 76.8481 176.526C80.9581 176.694 88.2241 176.418 90.9541 172.68C94.8481 167.346 85.8661 167.832 86.7361 164.892C87.6121 161.952 97.2661 164.352 99.1501 160.152C101.034 155.952 94.0141 156.774 94.3381 154.608C94.6621 152.448 102.03 155.25 104.46 150.792C106.89 146.334 100.452 148.722 101.496 146.874C102.54 145.026 110.712 137.34 107.4 135.63C104.088 133.92 96.4141 141.942 93.8821 142.8C91.3501 143.658 90.7621 135.792 87.4381 138.42C84.1081 141.054 86.2921 152.934 82.4101 154.404C79.5181 155.502 81.0961 151.248 77.5261 151.41C72.6781 151.632 71.0881 168.288 75.6241 175.878L75.6301 175.884Z" fill="#58126A"/>
<g opacity="0.3">
<path d="M75.6301 175.884C75.6841 175.98 75.1801 176.46 76.8481 176.526C80.9581 176.694 88.2241 176.418 90.9541 172.68C94.8481 167.346 85.8661 167.832 86.7361 164.892C87.6121 161.952 97.2661 164.352 99.1501 160.152C101.034 155.952 94.0141 156.774 94.3381 154.608C94.6621 152.448 102.03 155.25 104.46 150.792C106.89 146.334 100.452 148.722 101.496 146.874C102.54 145.026 110.712 137.34 107.4 135.63C104.088 133.92 96.4141 141.942 93.8821 142.8C91.3501 143.658 90.7621 135.792 87.4381 138.42C84.1081 141.054 86.2921 152.934 82.4101 154.404C79.5181 155.502 81.0961 151.248 77.5261 151.41C72.6781 151.632 71.0881 168.288 75.6241 175.878L75.6301 175.884Z" fill="white"/>
</g>
<path d="M72.552 190.428C72.552 190.428 72.54 190.428 72.528 190.428C72.384 190.41 72.276 190.278 72.294 190.128C75.666 162.516 91.572 151.296 91.734 151.188C91.854 151.104 92.022 151.134 92.106 151.254C92.19 151.374 92.16 151.542 92.04 151.626C91.884 151.734 76.17 162.834 72.828 190.194C72.81 190.332 72.69 190.434 72.552 190.428Z" fill="#263238"/>
<path d="M88.1098 155.022C88.0018 155.022 87.8998 154.944 87.8638 154.836C87.8158 154.698 87.8938 154.542 88.0378 154.5C88.1338 154.47 90.5038 153.72 94.3858 154.542C94.5298 154.572 94.6198 154.716 94.5898 154.86C94.5598 155.004 94.4158 155.1 94.2718 155.064C90.5398 154.272 88.2238 154.998 88.1998 155.004C88.1698 155.016 88.1398 155.016 88.1038 155.016L88.1098 155.022Z" fill="#263238"/>
<path d="M85.1761 158.376C85.0321 158.376 84.9241 158.256 84.9181 158.112C84.8341 149.76 89.6701 143.238 89.7181 143.172C89.8081 143.052 89.9761 143.028 90.0901 143.118C90.2101 143.208 90.2341 143.376 90.1441 143.49C90.0961 143.556 85.3681 149.94 85.4521 158.1C85.4521 158.25 85.3321 158.37 85.1881 158.37H85.1761V158.376Z" fill="#263238"/>
<path d="M80.4356 165.444C80.3696 165.444 80.3037 165.414 80.2497 165.36C80.1477 165.252 80.1537 165.084 80.2617 164.982C80.2977 164.946 83.8737 161.64 88.5597 163.32C88.6977 163.368 88.7696 163.524 88.7216 163.662C88.6736 163.8 88.5177 163.872 88.3797 163.824C83.9997 162.252 80.6577 165.342 80.6277 165.372C80.5737 165.42 80.5016 165.45 80.4356 165.444Z" fill="#263238"/>
<path d="M77.9581 170.37C77.8561 170.37 77.7661 170.304 77.7241 170.208C77.6461 170.034 75.8941 165.834 76.8601 159.852C76.8841 159.708 77.0161 159.606 77.1661 159.63C77.3101 159.654 77.4121 159.792 77.3881 159.936C76.4461 165.756 78.1981 169.956 78.2161 169.998C78.2761 170.136 78.2161 170.292 78.0721 170.346C78.0361 170.364 77.9941 170.37 77.9581 170.37Z" fill="#263238"/>
<path d="M72.6536 200.292C72.5156 200.292 72.4016 200.172 72.3956 200.034L72.0476 192.72C71.0216 168.408 54.3476 151.866 54.1796 151.704C54.0716 151.602 54.0716 151.434 54.1796 151.326C54.2816 151.218 54.4496 151.218 54.5576 151.326C54.7256 151.494 71.5556 168.168 72.5876 192.708L72.9356 200.022C72.9356 200.172 72.8216 200.292 72.6776 200.298C72.6716 200.298 72.6656 200.298 72.6596 200.298L72.6536 200.292Z" fill="#263238"/>
<path d="M61.0619 160.836C61.0619 160.836 61.0319 160.836 61.0199 160.836C60.9959 160.836 60.9659 160.818 60.9419 160.806L60.8579 160.77C58.6739 159.864 56.2379 159.39 53.9879 159.444C53.8379 159.45 53.7179 159.33 53.7119 159.18C53.7119 159.03 53.8259 158.91 53.9759 158.904C56.2919 158.856 58.8119 159.336 61.0619 160.272L61.1519 160.308C61.1519 160.308 61.1819 160.32 61.1999 160.332C61.3019 160.386 61.3679 160.506 61.3379 160.626C61.3139 160.758 61.1939 160.842 61.0679 160.836H61.0619Z" fill="#263238"/>
<path d="M63.4196 163.968C63.4196 163.968 63.4136 163.968 63.4076 163.968C63.2636 163.956 63.1496 163.824 63.1676 163.68C63.8156 156.504 60.0956 150.6 60.0596 150.54C59.9816 150.414 60.0176 150.252 60.1436 150.168C60.2696 150.09 60.4316 150.126 60.5156 150.252C60.5516 150.312 64.3676 156.366 63.7076 163.728C63.6956 163.872 63.5696 163.974 63.4316 163.974L63.4196 163.968Z" fill="#263238"/>
<path d="M65.8561 168.126C65.7901 168.126 65.7241 168.096 65.6761 168.048C65.6461 168.018 62.9401 165.348 58.9741 166.404C58.8301 166.446 58.6861 166.356 58.6441 166.212C58.6081 166.068 58.6921 165.924 58.8361 165.882C63.1081 164.742 65.9341 167.55 66.0541 167.67C66.1561 167.778 66.1561 167.946 66.0541 168.048C66.0001 168.102 65.9281 168.126 65.8561 168.126Z" fill="#263238"/>
<path d="M68.9459 174.978C68.9099 174.978 68.8679 174.966 68.8319 174.948C68.6999 174.882 68.6519 174.72 68.7179 174.588C68.7359 174.552 70.5719 170.964 70.1519 165.786C70.1399 165.636 70.2479 165.51 70.3979 165.498C70.5479 165.48 70.6739 165.594 70.6859 165.744C71.1179 171.084 69.2699 174.684 69.1919 174.834C69.1439 174.93 69.0419 174.984 68.9459 174.978Z" fill="#263238"/>
<path d="M87.6959 201.444C87.6959 209.97 83.8619 216.888 72.2459 216.888C60.6299 216.888 56.7959 209.97 56.7959 201.444C56.7959 198.228 57.7859 195.234 59.4659 192.762H85.0319C86.7119 195.234 87.7019 198.228 87.7019 201.444H87.6959Z" fill="#58126A"/>
<path opacity="0.7" d="M87.6959 201.444C87.6959 209.97 83.8619 216.888 72.2459 216.888C60.6299 216.888 56.7959 209.97 56.7959 201.444C56.7959 198.228 57.7859 195.234 59.4659 192.762H85.0319C86.7119 195.234 87.7019 198.228 87.7019 201.444H87.6959Z" fill="white"/>
<path d="M176.46 209.346L182.436 208.476L180.93 194.49L174.948 195.366L176.46 209.346Z" fill="#E8BFBF"/>
<path d="M187.032 208.686C187.554 208.65 188.04 208.434 188.424 208.08C188.586 207.876 188.64 207.6 188.562 207.348C188.526 207.192 188.412 207.06 188.262 207.012C187.464 206.724 185.28 208.338 185.034 208.518C184.986 208.554 184.968 208.62 184.98 208.68C184.998 208.734 185.052 208.776 185.112 208.776C185.754 208.806 186.396 208.776 187.032 208.686ZM187.872 207.282C187.962 207.258 188.058 207.264 188.142 207.288C188.202 207.306 188.25 207.36 188.268 207.426C188.316 207.594 188.286 207.774 188.178 207.906C187.872 208.29 186.894 208.506 185.532 208.506C186.24 207.966 187.038 207.546 187.884 207.27H187.866L187.872 207.282Z" fill="#58126A"/>
<path d="M185.148 208.776L185.196 208.752C185.862 208.314 187.056 206.796 186.828 206.136C186.762 205.986 186.636 205.8 186.234 205.824C185.946 205.824 185.67 205.956 185.478 206.178C184.83 206.922 184.962 208.56 184.962 208.626C184.962 208.674 184.98 208.722 185.022 208.752C185.058 208.782 185.1 208.788 185.148 208.776ZM186.15 206.124L186.228 206.088C186.492 206.076 186.522 206.172 186.528 206.208C186.666 206.604 185.874 207.774 185.214 208.314C185.154 207.624 185.31 206.934 185.67 206.346C185.796 206.214 185.97 206.13 186.156 206.118H186.144L186.15 206.124Z" fill="#58126A"/>
<path d="M181.824 205.998L176.526 207.258C176.286 207.306 176.124 207.528 176.148 207.774L176.322 215.442C176.394 215.982 176.892 216.354 177.426 216.282C177.462 216.282 177.498 216.27 177.534 216.258C179.832 215.688 180.912 215.298 183.834 214.626C185.622 214.212 191.292 213.786 193.614 212.754C195.936 211.722 195.03 209.364 193.974 209.592C190.566 210.324 186.192 208.866 183.708 206.646C183.372 206.478 182.19 205.908 181.83 205.998H181.824Z" fill="#FBF1F8"/>
<path opacity="0.2" d="M180.93 194.49L181.704 201.702L175.728 202.578L174.948 195.372L180.93 194.49Z" fill="black"/>
<path d="M184.122 198.732L173.064 200.796C173.064 200.796 167.694 193.128 166.68 187.686C165.624 182.016 166.752 162.72 166.68 162.462C163.554 151.902 155.052 124.542 150.954 114.474C148.68 108.894 147.084 105.138 147.084 105.138L148.23 104.88L157.254 101.184L163.83 102.426C163.83 102.426 183.816 142.842 185.916 158.046C187.482 169.398 184.116 198.732 184.116 198.732H184.122Z" fill="#58126A"/>
<path opacity="0.3" d="M184.122 198.732L173.064 200.796C173.064 200.796 167.694 193.128 166.68 187.686C165.624 182.016 166.752 162.72 166.68 162.462C163.554 151.902 155.052 124.542 150.954 114.474C148.68 108.894 147.084 105.138 147.084 105.138L148.23 104.88L157.254 101.184L163.83 102.426C163.83 102.426 183.816 142.842 185.916 158.046C187.482 169.398 184.116 198.732 184.116 198.732H184.122Z" fill="white"/>
<path opacity="0.2" d="M164.076 153.324C160.95 142.764 154.638 126.75 150.534 116.682L147.816 107.088L147.294 105.24L148.248 106.986L158.958 130.716C163.686 139.8 164.148 153.582 164.076 153.33V153.324Z" fill="black"/>
<path d="M115.542 206.052L120.87 208.296L126.552 196.104L121.23 193.86L115.542 206.052Z" fill="#E8BFBF"/>
<path d="M124.338 210.852C124.758 211.116 125.262 211.23 125.754 211.17C125.994 211.104 126.192 210.924 126.27 210.684C126.33 210.546 126.318 210.378 126.228 210.252C125.772 209.58 123.174 209.586 122.886 209.592C122.826 209.592 122.778 209.634 122.754 209.682C122.736 209.736 122.754 209.796 122.802 209.832C123.282 210.216 123.792 210.558 124.332 210.846L124.338 210.852ZM125.778 210.246C125.862 210.282 125.934 210.336 125.982 210.408C126.018 210.456 126.024 210.528 126 210.582C125.946 210.738 125.82 210.858 125.658 210.906C125.202 211.026 124.332 210.642 123.276 209.874C124.128 209.856 124.98 209.982 125.79 210.252H125.772L125.778 210.246Z" fill="#58126A"/>
<path d="M122.832 209.862L122.88 209.874C123.636 209.91 125.424 209.412 125.622 208.776C125.652 208.626 125.664 208.41 125.34 208.2C125.112 208.038 124.83 207.984 124.56 208.044C123.642 208.254 122.814 209.586 122.778 209.64C122.748 209.676 122.736 209.73 122.754 209.772C122.766 209.814 122.796 209.844 122.838 209.862H122.832ZM125.106 208.38L125.19 208.398C125.4 208.536 125.37 208.632 125.358 208.662C125.244 209.046 123.972 209.502 123.156 209.55C123.498 208.986 124.014 208.542 124.62 208.29C124.794 208.26 124.974 208.29 125.124 208.392H125.112L125.106 208.38Z" fill="#58126A"/>
<path d="M121.836 205.836L117.03 203.814C116.82 203.718 116.568 203.796 116.448 204L112.248 210.018C112.002 210.474 112.17 211.044 112.626 211.29C112.656 211.308 112.692 211.32 112.722 211.338C114.816 212.196 115.872 212.508 118.512 213.636C120.126 214.332 124.746 217.2 127.122 217.716C129.498 218.232 130.128 215.904 129.186 215.472C126.144 214.11 123.588 210.516 122.922 207.396C122.754 207.078 122.166 205.968 121.836 205.836Z" fill="#FBF1F8"/>
<path opacity="0.2" d="M126.786 196.248L123.702 202.458L118.434 200.094L121.506 193.878L126.786 196.248Z" fill="black"/>
<path d="M127.896 203.016L117.288 197.364C117.288 197.364 115.254 189.81 117.288 184.992C121.2 175.722 131.388 162.09 131.454 161.832C134.172 151.158 138.936 121.938 140.568 111.186C141.474 105.228 142.002 103.944 142.002 103.944L143.124 104.31L159.354 104.34C159.354 104.34 162.414 128.922 150.678 166.98C147.756 176.448 142.866 184.32 134.814 194.976C131.76 199.02 127.89 203.016 127.89 203.016H127.896Z" fill="#58126A"/>
<path opacity="0.3" d="M127.896 203.016L117.288 197.364C117.288 197.364 115.254 189.81 117.288 184.992C121.2 175.722 131.388 162.09 131.454 161.832C134.172 151.158 138.936 121.938 140.568 111.186C141.474 105.228 142.002 103.944 142.002 103.944L143.124 104.31L159.354 104.34C159.354 104.34 162.414 128.922 150.678 166.98C147.756 176.448 142.866 184.32 134.814 194.976C131.76 199.02 127.89 203.016 127.89 203.016H127.896Z" fill="white"/>
<path d="M173.736 84.258C173.856 82.434 175.062 80.088 176.106 79.002C176.442 78.654 177.708 78.126 178.422 77.658C181.944 75.348 189 72.462 189 72.462L191.178 74.358C191.178 74.358 186.882 78.51 184.326 80.502C183.822 80.892 183.24 81.366 182.628 81.87C181.518 82.8 176.286 86.25 175.284 87.114L173.736 84.252V84.258Z" fill="#E8BFBF"/>
<path d="M195.204 71.394L191.178 74.37L188.922 72.708C188.922 72.708 189.846 71.532 190.788 70.626C191.202 70.224 191.43 69.678 191.436 69.102C191.442 68.214 191.58 67.188 192.06 66.432C192.072 66.414 192.078 66.396 192.09 66.384C192.96 65.07 195.006 65.466 195.414 66.984L195.996 69.132C196.224 69.978 195.912 70.878 195.204 71.4V71.394Z" fill="#E8BFBF"/>
<path d="M175.02 85.062L173.958 86.034C173.628 85.77 173.1 85.344 172.44 84.798C167.268 80.502 154.302 70.092 159.474 67.116C163.902 64.566 168.612 72.366 170.958 74.706C171.438 75.192 172.746 76.698 173.802 78.594C174.906 80.58 175.722 82.986 175.02 85.062Z" fill="#263238"/>
<path d="M173.796 77.664C171.96 79.008 170.394 80.712 169.212 82.656C170.064 85.476 172.206 87.924 174.906 89.1C176.388 85.668 177.072 81.972 176.784 78.246C175.848 78.042 174.732 77.868 173.796 77.664Z" fill="#263238"/>
<path d="M145.326 66.51C143.478 67.104 141.36 66.63 140.172 68.166C138.984 69.702 138.63 71.736 138.63 73.68C138.63 76.38 139.248 79.044 139.866 81.672C140.61 84.864 141.354 88.056 142.104 91.248C142.614 93.432 142.08 103.572 142.62 103.746C142.62 103.746 159.582 103.416 163.836 102.816C163.836 102.816 164.208 92.388 164.544 88.836C164.622 88.05 165.816 84.702 165.954 83.862C166.614 79.902 165.318 77.106 163.944 73.332C163.944 73.332 160.938 67.284 159.474 67.122C156.864 66.828 150.48 64.854 145.326 66.516V66.51Z" fill="black" fill-opacity="0.8"/>
<path d="M144.612 71.514C144.552 71.16 141.54 65.082 138.654 69.33C134.64 75.246 134.37 82.674 134.37 82.674C134.37 82.674 131.904 89.898 133.62 91.476C135.342 93.054 137.196 94.068 138.396 93.174C139.596 92.28 140.376 90.492 140.376 90.492C140.376 90.492 145.662 77.706 144.612 71.514Z" fill="black" fill-opacity="0.8"/>
<path d="M144.414 64.254C143.148 65.244 143.316 67.53 144.708 68.328C144.36 69.552 144.768 70.968 145.722 71.814C146.676 72.66 148.128 72.9 149.304 72.408C148.794 73.32 149.37 74.52 150.246 75.084C151.122 75.648 152.208 75.75 153.24 75.888C154.272 76.026 155.364 76.248 156.12 76.974C157.188 75.438 158.256 73.896 159.33 72.36C159.744 71.76 160.176 71.118 160.212 70.392C160.242 69.666 159.69 68.862 158.964 68.916C159.702 68.148 159.72 66.792 158.994 66.006C158.274 65.22 156.924 65.118 156.09 65.79C156.24 65.172 155.88 64.518 155.358 64.158C154.836 63.798 154.188 63.672 153.558 63.612L144.414 64.26V64.254Z" fill="#263238"/>
<path d="M146.34 56.424C147.174 59.484 148.188 65.13 146.16 67.362C146.16 67.362 151.89 69.654 155.958 74.256C157.854 72.414 157.656 70.344 157.074 68.832C156.624 67.662 155.658 66.792 154.5 66.3C152.268 65.352 152.25 63.156 152.622 61.056L146.334 56.424H146.34Z" fill="#E8BFBF"/>
<path opacity="0.2" d="M147.588 61.638L149.694 62.208C150.594 62.454 151.542 62.508 152.466 62.37C152.46 62.826 152.376 63.786 152.664 64.296C151.452 64.878 149.406 64.482 148.506 63.414C148.134 63 147.798 62.154 147.594 61.632L147.588 61.638Z" fill="black"/>
<path d="M142.254 53.82C144.486 58.524 145.326 60.564 148.764 62.064C153.936 64.326 159.216 60.546 158.43 55.272C157.728 50.526 154.194 43.626 148.704 43.602C144.78 43.566 141.57 46.71 141.528 50.634C141.516 51.738 141.762 52.83 142.248 53.826L142.254 53.82Z" fill="#E8BFBF"/>
<path d="M144.702 44.832C143.076 44.076 141.06 44.694 139.704 45.882C138.33 47.094 137.49 48.786 136.686 50.436C136.248 51.33 135.81 52.242 135.606 53.214C135.402 54.192 135.462 55.26 135.978 56.112C136.482 56.946 137.424 57.498 138.396 57.552C138.954 57.582 139.608 57.99 139.794 58.518C139.962 59.01 139.884 59.544 139.806 60.054C139.728 60.552 139.656 61.068 139.812 61.542C140.07 62.334 140.916 62.814 141.75 62.898C142.578 62.976 143.4 62.736 144.204 62.502C144.708 62.352 145.218 62.436 145.614 62.79C145.71 62.88 145.794 62.982 145.854 63.102C146.1 63.576 146.82 63.498 147.03 63.006C147.756 61.278 146.7 58.524 145.128 56.418C144.294 55.302 144.336 55.584 144.012 54.228C143.736 53.1 144.15 51.924 144.66 50.88C145.332 49.488 146.202 48.126 145.932 46.464C145.818 45.762 145.362 45.132 144.72 44.832H144.702Z" fill="#263238"/>
<path d="M142.392 58.632C143.13 59.418 144.156 59.88 145.236 59.916C146.67 59.946 147.03 58.578 146.34 57.414C145.716 56.364 144.216 55.086 142.92 55.59C141.624 56.1 141.492 57.648 142.392 58.632Z" fill="#E8BFBF"/>
<path d="M151.218 52.98C151.386 53.394 151.71 53.61 151.968 53.502C152.226 53.394 152.292 53.004 152.148 52.602C152.004 52.2 151.656 51.978 151.398 52.08C151.14 52.182 151.062 52.584 151.218 52.98Z" fill="#263238"/>
<path d="M155.61 51.0901C155.772 51.5041 156.102 51.72 156.36 51.618C156.612 51.516 156.684 51.12 156.54 50.7181C156.396 50.3161 156.048 50.0941 155.79 50.1901C155.532 50.2861 155.454 50.6941 155.61 51.0901Z" fill="#263238"/>
<path d="M155.676 50.268L156.51 49.614C156.51 49.614 156.33 50.544 155.676 50.268Z" fill="#263238"/>
<path d="M154.47 51.972C155.49 52.98 156.258 53.16 157.362 53.856C157.332 54.834 156.408 55.062 156.408 55.062L154.47 51.978V51.972Z" fill="#ED847E"/>
<path d="M155.941 56.982C156.133 56.91 156.313 56.826 156.493 56.724C156.553 56.694 156.571 56.622 156.541 56.562C156.505 56.502 156.433 56.484 156.373 56.508C155.443 57.048 154.309 57.108 153.325 56.67C153.265 56.64 153.187 56.658 153.157 56.724C153.127 56.784 153.145 56.862 153.211 56.892C154.075 57.288 155.059 57.324 155.947 56.988L155.941 56.982Z" fill="#263238"/>
<path d="M151.056 49.716C151.05 49.83 150.972 49.926 150.864 49.956C149.712 50.298 149.202 51.756 149.202 51.768C149.154 51.906 149.01 51.978 148.872 51.93C148.734 51.882 148.662 51.738 148.71 51.6C148.752 51.546 149.31 49.872 150.714 49.452C150.852 49.416 150.996 49.494 151.038 49.626C151.05 49.656 151.056 49.68 151.062 49.71L151.056 49.716Z" fill="#263238"/>
<path d="M156.366 49.008C156.27 49.068 156.15 49.056 156.06 48.984C155.124 48.234 153.63 48.648 153.624 48.648C153.486 48.69 153.342 48.612 153.3 48.474C153.258 48.336 153.336 48.192 153.474 48.15C153.546 48.15 155.238 47.658 156.384 48.57C156.492 48.66 156.51 48.822 156.426 48.936C156.414 48.96 156.39 48.984 156.366 49.002V49.008Z" fill="#263238"/>
<path d="M151.296 52.152L152.13 51.504C152.13 51.504 151.938 52.434 151.296 52.152Z" fill="#263238"/>
<path d="M145.062 44.046C143.754 44.148 142.506 44.898 141.798 46.002C141.324 46.746 141.156 47.874 141.858 48.402C142.188 48.648 142.626 48.696 143.034 48.732C144.858 48.894 147.114 47.484 147.114 47.484C146.412 44.502 152.664 42.192 155.748 46.812C156.654 48.168 156.408 49.152 157.914 49.782C158.622 50.076 159.558 49.998 160.014 50.616C160.77 51.642 159.318 53.382 160.242 54.264C160.872 54.87 162.3 54.636 162.384 55.506C162.426 55.914 162.156 56.502 162.552 56.622C162.768 56.688 162.966 56.49 163.11 56.31C163.452 55.878 163.8 55.428 163.914 54.894C164.028 54.36 163.842 53.712 163.338 53.484C162.954 53.31 161.94 53.502 162.012 53.922C162.096 54.42 161.664 51.966 161.856 51.042C162.024 50.232 162.792 49.536 162.558 48.744C162.306 47.898 161.304 47.562 160.434 47.436C159.564 47.31 158.574 47.202 158.04 46.506C157.446 45.726 157.716 44.61 157.524 43.65C157.278 42.426 156.258 41.472 155.112 40.974C151.632 39.468 146.256 39.678 145.056 44.052L145.062 44.046Z" fill="#263238"/>
<path d="M154.944 60.054L142.95 66.078C139.008 68.058 137.22 72.72 138.834 76.83L144.618 91.584C146.232 95.694 150.708 97.902 154.95 96.678L167.85 92.958C172.686 91.566 175.272 86.316 173.436 81.63L166.746 64.566C164.91 59.88 159.444 57.786 154.95 60.048L154.944 60.054ZM152.964 85.398C150.288 86.448 147.27 85.128 146.22 82.452C145.17 79.776 146.49 76.758 149.166 75.714C151.842 74.664 154.86 75.984 155.91 78.66C156.96 81.336 155.64 84.354 152.964 85.398Z" fill="#8A5997"/>
<path d="M154.944 60.054L142.95 66.078C139.008 68.058 137.22 72.72 138.834 76.83L144.618 91.584C146.232 95.694 150.708 97.902 154.95 96.678L167.85 92.958C172.686 91.566 175.272 86.316 173.436 81.63L166.746 64.566C164.91 59.88 159.444 57.786 154.95 60.048L154.944 60.054ZM152.964 85.398C150.288 86.448 147.27 85.128 146.22 82.452C145.17 79.776 146.49 76.758 149.166 75.714C151.842 74.664 154.86 75.984 155.91 78.66C156.96 81.336 155.64 84.354 152.964 85.398Z" fill="#8A5997"/>
<path opacity="0.1" d="M173.43 81.642L166.734 64.578C164.898 59.892 159.432 57.798 154.938 60.054L151.452 61.806L149.112 62.982L142.944 66.084C138.996 68.064 137.214 72.726 138.822 76.836L144.606 91.59C146.22 95.7 150.696 97.908 154.938 96.684L167.844 92.964C168.9 92.658 169.848 92.166 170.67 91.536C171.306 91.05 171.864 90.486 172.326 89.856C174.018 87.582 174.552 84.504 173.43 81.642ZM152.952 85.398C150.282 86.448 147.258 85.128 146.214 82.452C145.164 79.782 146.484 76.758 149.16 75.714C151.83 74.664 154.854 75.984 155.898 78.654C156.942 81.33 155.628 84.348 152.952 85.392V85.398Z" fill="white"/>
<path d="M155.064 61.176L143.814 66.828C140.112 68.688 138.444 73.056 139.95 76.908L145.374 90.744C146.886 94.596 151.086 96.672 155.064 95.52L167.166 92.028C171.702 90.72 174.126 85.8 172.404 81.408L166.128 65.406C164.406 61.014 159.276 59.046 155.064 61.17V61.176ZM146.214 82.446C145.164 79.77 146.484 76.752 149.16 75.708C151.836 74.658 154.854 75.978 155.904 78.654C156.954 81.33 155.634 84.348 152.958 85.392C150.282 86.442 147.264 85.122 146.214 82.446Z" fill="#8A5997"/>
<path opacity="0.1" d="M155.064 61.176L143.814 66.828C140.112 68.688 138.444 73.056 139.95 76.908L145.374 90.744C146.886 94.596 151.086 96.672 155.064 95.52L167.166 92.028C171.702 90.72 174.126 85.8 172.404 81.408L166.128 65.406C164.406 61.014 159.276 59.046 155.064 61.17V61.176ZM146.214 82.446C145.164 79.77 146.484 76.752 149.16 75.708C151.836 74.658 154.854 75.978 155.904 78.654C156.954 81.33 155.634 84.348 152.958 85.392C150.282 86.442 147.264 85.122 146.214 82.446Z" fill="#8A5997"/>
<path d="M210.972 55.842L210.63 56.472L210.438 56.82L209.898 57.81L210.126 60.348C210.138 60.456 210.126 60.564 210.09 60.666C210.018 60.888 209.85 61.068 209.628 61.158L204.888 63.012C204.666 63.102 204.42 63.078 204.216 62.964C204.15 62.928 204.09 62.88 204.036 62.826L201.354 60.102H201.348L197.538 61.584L198.09 62.994L194.28 64.488L195.192 66.81L192.384 67.908C192.156 67.998 191.898 67.98 191.688 67.872C191.616 67.836 191.556 67.788 191.496 67.734L189.876 66.21L186.066 67.704L186.978 70.026L182.97 71.598L183.882 73.926C184.032 74.304 183.846 74.736 183.462 74.886L172.482 79.182L167.718 67.032L207.432 51.486L208.056 51.804L210.072 52.836C211.17 53.4 211.584 54.756 210.996 55.836L210.972 55.842Z" fill="#8A5997"/>
<g opacity="0.1">
<path d="M210.972 55.842L210.63 56.472L210.438 56.82L209.898 57.81L210.126 60.348C210.138 60.456 210.126 60.564 210.09 60.666C210.018 60.888 209.85 61.068 209.628 61.158L204.888 63.012C204.666 63.102 204.42 63.078 204.216 62.964C204.15 62.928 204.09 62.88 204.036 62.826L201.354 60.102H201.348L197.538 61.584L198.09 62.994L194.28 64.488L195.192 66.81L192.384 67.908C192.156 67.998 191.898 67.98 191.688 67.872C191.616 67.836 191.556 67.788 191.496 67.734L189.876 66.21L186.066 67.704L186.978 70.026L182.97 71.598L183.882 73.926C184.032 74.304 183.846 74.736 183.462 74.886L172.482 79.182L167.718 67.032L207.432 51.486L208.056 51.804L210.072 52.836C211.17 53.4 211.584 54.756 210.996 55.836L210.972 55.842Z" fill="white"/>
</g>
<path d="M210.816 54.456L168.36 71.076L167.124 67.956L207.606 52.11L209.622 53.142C210.39 53.538 210.828 53.898 210.822 54.456H210.816Z" fill="#8A5997"/>
<path opacity="0.1" d="M210.816 54.456L168.36 71.076L167.124 67.956L207.606 52.11L209.622 53.142C210.39 53.538 210.828 53.898 210.822 54.456H210.816Z" fill="black"/>
<path d="M209.976 56.802L209.568 57.726C209.568 57.726 209.556 57.756 209.562 57.774L209.79 60.288C209.796 60.378 209.79 60.468 209.766 60.558C209.76 60.588 209.736 60.612 209.706 60.624L204.552 62.652C204.552 62.652 204.492 62.664 204.468 62.646C204.42 62.616 204.372 62.58 204.33 62.532L201.384 59.568C201.384 59.568 201.318 59.532 201.282 59.544L197.094 61.194C197.046 61.212 197.022 61.272 197.04 61.32L197.538 62.58C197.556 62.628 197.538 62.688 197.484 62.706L193.914 64.11C193.866 64.128 193.842 64.188 193.86 64.236L194.718 66.414C194.736 66.462 194.718 66.522 194.664 66.54L192.048 67.572C192.048 67.572 191.988 67.584 191.964 67.572C191.91 67.542 191.856 67.5 191.808 67.458L189.894 65.694C189.894 65.694 189.828 65.664 189.792 65.676L185.634 67.314C185.586 67.332 185.562 67.392 185.58 67.44L186.462 69.672C186.48 69.72 186.462 69.78 186.408 69.798L170.442 76.08C170.394 76.098 170.334 76.08 170.316 76.026L168.72 72.03C168.702 71.982 168.72 71.922 168.774 71.904L210.378 55.53C210.456 55.5 210.54 55.578 210.504 55.662L209.982 56.814L209.976 56.802Z" fill="#8A5997"/>
<path opacity="0.1" d="M209.976 56.802L209.568 57.726C209.568 57.726 209.556 57.756 209.562 57.774L209.79 60.288C209.796 60.378 209.79 60.468 209.766 60.558C209.76 60.588 209.736 60.612 209.706 60.624L204.552 62.652C204.552 62.652 204.492 62.664 204.468 62.646C204.42 62.616 204.372 62.58 204.33 62.532L201.384 59.568C201.384 59.568 201.318 59.532 201.282 59.544L197.094 61.194C197.046 61.212 197.022 61.272 197.04 61.32L197.538 62.58C197.556 62.628 197.538 62.688 197.484 62.706L193.914 64.11C193.866 64.128 193.842 64.188 193.86 64.236L194.718 66.414C194.736 66.462 194.718 66.522 194.664 66.54L192.048 67.572C192.048 67.572 191.988 67.584 191.964 67.572C191.91 67.542 191.856 67.5 191.808 67.458L189.894 65.694C189.894 65.694 189.828 65.664 189.792 65.676L185.634 67.314C185.586 67.332 185.562 67.392 185.58 67.44L186.462 69.672C186.48 69.72 186.462 69.78 186.408 69.798L170.442 76.08C170.394 76.098 170.334 76.08 170.316 76.026L168.72 72.03C168.702 71.982 168.72 71.922 168.774 71.904L210.378 55.53C210.456 55.5 210.54 55.578 210.504 55.662L209.982 56.814L209.976 56.802Z" fill="black"/>
<path opacity="0.3" d="M148.842 74.412C145.488 75.726 143.832 79.512 145.146 82.866C146.46 86.22 150.246 87.876 153.606 86.562C156.96 85.248 158.616 81.462 157.302 78.108C155.988 74.754 152.202 73.098 148.842 74.412ZM152.958 85.392C150.282 86.442 147.264 85.122 146.214 82.446C145.164 79.77 146.484 76.752 149.16 75.708C151.836 74.658 154.854 75.978 155.904 78.654C156.954 81.33 155.634 84.348 152.958 85.392Z" fill="white"/>
<path opacity="0.1" d="M172.326 89.85C171.858 90.48 171.306 91.05 170.67 91.53L149.112 62.976L149.094 62.952C149.094 62.952 150.996 61.998 151.422 61.716C151.422 61.74 151.434 61.77 151.452 61.806C152.394 63.828 169.338 85.83 172.326 89.856V89.85Z" fill="white"/>
<path opacity="0.1" d="M169.212 92.43C169.074 92.496 162.798 94.404 162.798 94.404L155.796 85.134C157.608 83.358 158.286 80.61 157.302 78.102C155.988 74.748 152.202 73.092 148.842 74.406C148.548 74.52 148.272 74.652 148.002 74.808L141.81 66.606C141.81 66.606 147.252 64.014 147.858 63.636C148.02 64.788 169.212 92.19 169.212 92.436V92.43Z" fill="white"/>
<path d="M143.514 47.394C142.812 48.228 142.524 49.398 142.764 50.46C142.998 51.522 143.754 52.458 144.744 52.92C145.254 53.16 145.818 53.274 146.328 53.52C146.832 53.772 147.306 54.21 147.36 54.774C147.42 55.398 146.964 55.974 147.006 56.598C147.048 57.168 147.492 57.618 147.942 57.972C148.392 58.326 148.896 58.656 149.142 59.172C149.388 59.688 149.232 60.45 148.68 60.6C148.566 60.78 148.518 61.206 148.668 61.356C148.818 61.506 149.076 61.542 149.256 61.428C150.102 60.906 150.684 59.928 150.69 58.932C150.696 57.936 150.072 56.97 149.166 56.562C149.004 56.232 149.13 55.812 149.268 55.47C149.544 54.786 149.82 54.096 150.09 53.412C150.198 53.142 150.102 52.65 149.916 52.428C149.73 52.206 149.454 52.08 149.184 51.966L147.414 51.21C146.748 50.922 144.762 48.27 147.114 47.496C146.808 46.812 146.274 46.602 145.542 46.464C144.81 46.326 144 46.836 143.52 47.406L143.514 47.394Z" fill="#263238"/>
<path d="M146.724 44.538C146.664 45.234 146.604 45.936 146.55 46.632C147.138 45.672 148.224 43.806 148.182 43.878C147.72 44.13 147.186 44.286 146.724 44.538Z" fill="#263238"/>
<path d="M147.516 45.684C148.338 44.928 149.154 44.166 149.976 43.41C149.346 43.176 148.578 43.35 148.116 43.842C148.128 43.788 147.75 44.952 147.522 45.684H147.516Z" fill="#263238"/>
<path d="M142.518 102.45C139.32 106.422 140.382 109.464 135.966 116.496C141.534 120.624 147.642 121.308 155.238 120.72C156.138 119.13 156.588 117.474 157.488 115.884C158.772 117.48 159.81 118.824 161.094 120.42C165.072 119.796 169.8 118.68 172.944 116.652C170.166 113.466 168.438 109.488 166.662 105.972C165.828 104.322 166.176 103.632 163.962 101.472C156.912 101.796 149.922 101.97 142.872 102.294C143.058 102.306 142.332 102.444 142.518 102.45Z" fill="black" fill-opacity="0.8"/>
<path d="M143.394 101.784L142.95 103.638C142.884 103.782 143.058 103.92 143.298 103.908L162.726 103.05C162.912 103.05 163.062 102.942 163.068 102.828L163.17 100.986C163.17 100.86 163.008 100.758 162.804 100.77L143.712 101.61C143.58 101.61 143.46 101.67 143.388 101.778L143.394 101.784Z" fill="#8A5997"/>
<path d="M143.394 101.784L142.95 103.638C142.884 103.782 143.058 103.92 143.298 103.908L162.726 103.05C162.912 103.05 163.062 102.942 163.068 102.828L163.17 100.986C163.17 100.86 163.008 100.758 162.804 100.77L143.712 101.61C143.58 101.61 143.46 101.67 143.388 101.778L143.394 101.784Z" fill="#8A5997"/>
<path d="M147.677 103.914L147.113 103.938C147.005 103.938 146.915 103.89 146.921 103.824L147.071 101.43C147.071 101.364 147.167 101.304 147.281 101.298L147.845 101.268C147.953 101.268 148.043 101.316 148.037 101.388L147.887 103.776C147.881 103.842 147.785 103.908 147.677 103.914Z" fill="#263238"/>
<path d="M161.706 103.308L161.142 103.332C161.034 103.332 160.944 103.284 160.95 103.218L161.1 100.83C161.1 100.758 161.196 100.698 161.304 100.692L161.868 100.668C161.976 100.668 162.066 100.716 162.06 100.782L161.91 103.17C161.91 103.242 161.82 103.302 161.706 103.308Z" fill="#263238"/>
<path d="M150.187 92.262C150.223 92.436 151.735 94.842 152.917 94.674C152.929 94.674 152.935 94.674 152.947 94.674C153.289 94.626 153.637 94.764 153.847 95.04C154.321 95.658 154.609 96.012 154.927 96.42C155.449 97.08 156.355 97.29 157.111 96.936C157.339 96.834 157.561 96.714 157.783 96.6C158.515 96.21 158.887 95.37 158.689 94.566C158.473 93.684 158.131 92.832 157.681 92.04C157.525 91.77 157.351 91.5 157.081 91.344C156.811 91.188 154.207 90.402 153.199 90.432C152.149 90.468 151.147 91.842 150.187 92.268V92.262Z" fill="#E8BFBF"/>
<path d="M153.228 90.348C153.228 90.348 137.28 85.518 133.836 88.734C131.814 90.624 132.768 92.412 133.902 93.558C134.742 94.416 136.578 94.206 137.772 94.146L150.336 92.916L153.228 90.348Z" fill="#E8BFBF"/>
<path d="M144.06 88.14C143.976 87.276 143.304 86.562 142.53 86.172C141.756 85.788 140.874 85.668 140.016 85.56C138.012 85.308 136.008 85.05 134.004 84.798C132.984 86.082 132.252 87.852 132.288 89.496C132.318 91.134 132.936 92.76 134.004 94.008C134.964 92.154 136.23 90.246 138.102 89.322C139.974 88.404 142.014 87.768 144.066 88.14H144.06Z" fill="black" fill-opacity="0.8"/>
<path opacity="0.1" d="M139.95 59.01C139.932 58.974 139.932 58.956 139.95 58.95C140.076 58.914 140.058 58.938 139.95 59.01Z" fill="white"/>
<path d="M179.574 33.186L184.02 41.424L202.152 26.028C202.314 25.89 202.128 25.644 201.954 25.764L184.956 36.984L182.334 31.872L179.574 33.186Z" fill="#58126A"/>
<path d="M208.182 33.228C208.182 40.572 200.472 46.524 190.968 46.524C187.32 46.524 183.936 45.654 181.152 44.148L171.042 48.54L177.42 41.436C175.122 39.186 173.748 36.336 173.748 33.234C173.748 25.89 181.458 19.938 190.962 19.938C200.466 19.938 208.176 25.89 208.176 33.234L208.182 33.228Z" stroke="#58126A" stroke-width="1.3" stroke-miterlimit="10"/>
</g>
<defs>
<clipPath id="clip0_147_833">
<rect width="300" height="223.236" fill="white"/>
</clipPath>
</defs>
</svg>
