<svg width="244" height="241" viewBox="0 0 244 241" fill="none" xmlns="http://www.w3.org/2000/svg">
<g clip-path="url(#clip0_147_452)">
<path d="M111.408 0.0106506H73.7168V39.304H111.408V0.0106506Z" fill="#F3D7EC"/>
<path d="M108.855 0.0131226H71.1641V39.3064H108.855V0.0131226Z" fill="#455A64"/>
<path d="M108.869 39.3147H71.1514V0H108.869V39.3147Z" fill="#F3D7EC"/>
<path d="M103.786 5.29553H76.2285V34.0244H103.786V5.29553Z" fill="white"/>
<path d="M76.2285 34.2106C76.2285 34.2106 75.989 34.5353 75.5473 35.0036C75.1056 35.4667 74.4882 36.0947 73.7963 36.7812C73.1044 37.4625 72.4658 38.0745 71.9974 38.5056C71.5291 38.9367 71.2257 39.1921 71.1991 39.1709C71.1725 39.1496 71.4333 38.8462 71.875 38.3832C72.3168 37.9202 72.9341 37.2868 73.6313 36.6056C74.3285 35.919 74.9672 35.3123 75.4355 34.8812C75.9039 34.4501 76.2072 34.1947 76.2285 34.2213V34.2106Z" fill="#F3D7EC"/>
<path d="M103.792 34.1415C103.792 34.1415 104.117 34.381 104.585 34.8227C105.048 35.2644 105.676 35.8818 106.363 36.5737C107.044 37.2656 107.656 37.9042 108.087 38.3726C108.518 38.8409 108.774 39.1443 108.752 39.1709C108.731 39.1922 108.428 38.9367 107.965 38.495C107.502 38.0532 106.868 37.4359 106.187 36.7387C105.5 36.0415 104.894 35.4028 104.463 34.9345C104.031 34.4661 103.776 34.1628 103.803 34.1415H103.792Z" fill="#F3D7EC"/>
<path d="M103.712 5.37002C103.712 5.37002 103.951 5.04537 104.393 4.57703C104.835 4.114 105.452 3.48599 106.144 2.79944C106.836 2.1182 107.475 1.50616 107.943 1.07507C108.411 0.643977 108.715 0.388515 108.741 0.409803C108.763 0.431092 108.507 0.734453 108.065 1.19748C107.624 1.6605 107.006 2.29383 106.309 2.97507C105.612 3.66162 104.973 4.26834 104.505 4.69943C104.037 5.13053 103.733 5.38599 103.712 5.35938V5.37002Z" fill="#F3D7EC"/>
<path d="M76.1538 5.43922C76.1538 5.43922 75.8292 5.19972 75.3608 4.75799C74.8978 4.31625 74.2698 3.69888 73.5832 3.007C72.902 2.31513 72.29 1.67647 71.8589 1.20812C71.4278 0.739775 71.1723 0.436413 71.1936 0.409803C71.2149 0.388514 71.5183 0.643977 71.9813 1.08571C72.4443 1.52745 73.0776 2.14482 73.7589 2.84202C74.4454 3.53922 75.0522 4.17787 75.4833 4.64622C75.9143 5.11457 76.1698 5.41793 76.1432 5.43922H76.1538Z" fill="#F3D7EC"/>
<path d="M103.712 34.0244C103.712 34.0244 103.712 33.9765 103.707 33.886C103.707 33.7902 103.707 33.6572 103.702 33.4869C103.702 33.125 103.696 32.6087 103.691 31.9381C103.686 30.5757 103.675 28.5958 103.664 26.0838C103.654 21.0544 103.633 13.8854 103.611 5.30084L103.718 5.40728C95.6972 5.40728 86.2717 5.41793 76.2342 5.42325L76.3566 5.30084C76.3513 15.844 76.3459 25.7112 76.3406 34.0297L76.2342 33.9233C84.4675 33.9446 91.3278 33.9659 96.1336 33.9765C98.5339 33.9871 100.423 33.9978 101.722 34.0031C102.366 34.0031 102.856 34.0138 103.201 34.0138C103.366 34.0138 103.489 34.0138 103.585 34.0191C103.67 34.0191 103.718 34.0191 103.718 34.0244C103.718 34.0244 103.68 34.0244 103.595 34.0297C103.505 34.0297 103.382 34.0297 103.223 34.035C102.882 34.035 102.398 34.0404 101.764 34.0457C100.471 34.051 98.5925 34.0616 96.1975 34.0723C91.3757 34.0829 84.4941 34.1042 76.2289 34.1255H76.1224V34.0191C76.1224 25.7006 76.1118 15.8333 76.1064 5.29019V5.16779H76.2289C86.2664 5.17311 95.6866 5.17843 103.712 5.18375H103.819V5.29019C103.798 13.9014 103.776 21.0916 103.766 26.1423C103.755 28.6437 103.744 30.6182 103.739 31.9754C103.734 32.6406 103.728 33.1516 103.728 33.5081C103.728 33.6731 103.728 33.8009 103.723 33.8967C103.723 33.9818 103.723 34.0244 103.718 34.0244H103.712Z" fill="#F3D7EC"/>
<path d="M84.9303 27.4409C82.8493 25.3599 82.7269 21.6398 84.6589 19.4205C85.4253 18.5423 86.4418 17.8983 87.1549 16.9723C88.693 14.9712 88.6717 11.8151 90.8059 10.4686C92.3653 9.48937 94.6059 10.0482 95.7449 11.4958C96.8838 12.9434 96.9796 15.0457 96.2398 16.7328C95.6916 17.9782 94.7443 19.0373 94.3558 20.3412C93.9566 21.6717 94.1855 23.1353 93.7703 24.4605C93.2701 26.0625 91.5723 27.079 90.0023 27.6591C88.4269 28.2445 86.4045 28.1062 84.9303 27.4356" fill="#F3D7EC"/>
<path d="M92.6797 14.2101C92.6797 14.2101 92.5999 14.4868 92.4136 14.9711C92.2274 15.4554 91.94 16.1473 91.5568 16.9882C90.7957 18.6753 89.6408 20.9638 88.1506 23.3695C86.6604 25.7751 85.1276 27.8294 83.9515 29.261C83.366 29.9795 82.8764 30.5437 82.5251 30.9269C82.1739 31.3101 81.9769 31.5123 81.9663 31.5017C81.9556 31.491 82.126 31.2622 82.4559 30.863C82.7859 30.4638 83.2543 29.8784 83.8184 29.1546C84.9573 27.7017 86.4582 25.6367 87.9431 23.2417C89.4226 20.8468 90.6041 18.5795 91.4024 16.919C91.8016 16.0888 92.1156 15.4075 92.3285 14.9339C92.5414 14.4655 92.6691 14.2047 92.6851 14.2101H92.6797Z" fill="#58126A"/>
<path d="M86.9799 19.1863C87.0118 19.1863 87.0917 19.7344 87.2034 20.6392C87.3099 21.544 87.4482 22.8106 87.5866 24.237L87.4003 24.1412C87.5919 24.0294 87.7888 23.9123 87.9964 23.7952C89.3748 22.9916 90.6255 22.2784 91.541 21.7675C92.4564 21.2619 93.0311 20.9638 93.0471 20.9905C93.0631 21.0224 92.5202 21.3737 91.6314 21.9165C90.7426 22.4647 89.5026 23.2045 88.1241 24.0081C87.9219 24.1252 87.7197 24.2423 87.5281 24.354L87.3631 24.4498L87.3471 24.2582C87.2141 22.8319 87.1076 21.5652 87.0438 20.6498C86.9799 19.7344 86.9533 19.1863 86.9852 19.1809L86.9799 19.1863Z" fill="#58126A"/>
<path d="M94.2178 17.0627C94.2337 17.0947 93.8772 17.2916 93.2917 17.5843C92.7063 17.877 91.8867 18.2655 90.9766 18.6807C90.8808 18.7232 90.785 18.7711 90.6945 18.8084L90.5455 18.8776L90.5189 18.7179C90.3752 17.8025 90.2581 16.9829 90.1889 16.3868C90.1144 15.7961 90.0878 15.4342 90.1197 15.4288C90.1517 15.4288 90.2368 15.7801 90.3539 16.3602C90.471 16.9456 90.6147 17.7599 90.7637 18.6753L90.5881 18.5849C90.6786 18.5423 90.7744 18.4997 90.8702 18.4571C91.7802 18.042 92.6105 17.6801 93.2172 17.4246C93.8239 17.1745 94.2071 17.0308 94.2178 17.0627Z" fill="#58126A"/>
<path d="M156.512 212.183H151.015V238.139H156.512V212.183Z" fill="#EBEBEB"/>
<path d="M203.246 212.183H197.748V238.139H203.246V212.183Z" fill="#EBEBEB"/>
<path d="M211.3 179.558H141.921V185.977H211.3V179.558Z" fill="#EBEBEB"/>
<path d="M208.531 212.513L146.14 212.646V185.977H208.531V212.513Z" fill="#EBEBEB"/>
<path d="M211.293 185.977C211.293 186.046 195.763 186.099 176.604 186.099C157.444 186.099 141.914 186.04 141.914 185.977C141.914 185.913 157.444 185.854 176.604 185.854C195.763 185.854 211.293 185.907 211.293 185.977Z" fill="#E0E0E0"/>
<path d="M208.303 212.646C208.303 212.715 194.439 212.768 177.339 212.768C160.239 212.768 146.369 212.715 146.369 212.646C146.369 212.576 160.233 212.523 177.339 212.523C194.444 212.523 208.303 212.576 208.303 212.646Z" fill="#E0E0E0"/>
<path d="M203.384 207.244C203.384 207.244 203.379 207.137 203.374 206.935C203.374 206.728 203.374 206.435 203.363 206.052C203.363 205.269 203.352 204.12 203.342 202.64C203.331 199.67 203.315 195.354 203.299 189.936L203.379 190.016C190.867 190.027 172.149 190.043 151.281 190.059L151.403 189.936C151.403 195.95 151.403 201.783 151.403 207.244L151.281 207.121C166.268 207.143 179.275 207.164 188.546 207.18C193.182 207.196 196.886 207.207 199.435 207.212C200.707 207.217 201.687 207.222 202.362 207.228C202.692 207.228 202.943 207.233 203.124 207.233C203.294 207.233 203.384 207.238 203.384 207.238C203.384 207.238 203.305 207.238 203.134 207.244C202.959 207.244 202.714 207.244 202.389 207.249C201.724 207.249 200.75 207.26 199.489 207.265C196.945 207.276 193.251 207.286 188.626 207.297C179.334 207.313 166.3 207.329 151.281 207.356H151.158V207.233C151.158 201.773 151.158 195.94 151.158 189.926V189.803H151.286C172.154 189.819 190.872 189.835 203.384 189.846H203.464V189.926C203.443 195.359 203.432 199.697 203.422 202.677C203.411 204.152 203.406 205.291 203.4 206.073C203.4 206.451 203.395 206.743 203.39 206.946C203.39 207.143 203.379 207.233 203.379 207.233L203.384 207.244Z" fill="#E0E0E0"/>
<path d="M153.352 204.971C153.4 205.019 152.995 205.535 152.447 206.126C151.899 206.717 151.409 207.159 151.361 207.111C151.313 207.063 151.718 206.547 152.266 205.956C152.814 205.365 153.304 204.923 153.352 204.971Z" fill="#E0E0E0"/>
<path d="M153.351 192.203C153.298 192.251 152.797 191.778 152.228 191.155C151.658 190.527 151.238 189.984 151.286 189.936C151.339 189.888 151.839 190.362 152.409 190.985C152.978 191.613 153.399 192.156 153.351 192.203Z" fill="#E0E0E0"/>
<path d="M203.48 189.989C203.533 190.043 203.033 190.596 202.346 191.192C201.655 191.783 201.096 192.251 201.048 192.209C200.995 192.156 201.495 191.602 202.181 191.006C202.868 190.415 203.432 189.947 203.48 189.995V189.989Z" fill="#E0E0E0"/>
<path d="M203.39 207.244C203.342 207.292 202.778 206.823 202.134 206.201C201.49 205.573 201 205.024 201.048 204.977C201.096 204.929 201.66 205.397 202.304 206.02C202.948 206.648 203.438 207.196 203.39 207.244Z" fill="#E0E0E0"/>
<path d="M201.048 204.971C201.048 204.971 201.048 204.891 201.043 204.748C201.043 204.593 201.043 204.38 201.038 204.098C201.038 203.524 201.027 202.683 201.022 201.592C201.011 199.404 200.995 196.222 200.979 192.203L201.054 192.278C190.17 192.289 172.841 192.305 153.357 192.326L153.479 192.203C153.479 196.594 153.479 200.873 153.479 204.971L153.357 204.849C166.971 204.87 178.882 204.891 187.392 204.902C191.649 204.918 195.056 204.929 197.408 204.939C198.579 204.945 199.484 204.95 200.106 204.955C200.41 204.955 200.644 204.961 200.809 204.961C200.969 204.961 201.054 204.966 201.054 204.966C201.054 204.966 200.979 204.966 200.825 204.971C200.66 204.971 200.436 204.971 200.138 204.977C199.521 204.977 198.621 204.987 197.467 204.993C195.119 205.003 191.724 205.014 187.477 205.03C178.946 205.046 167.008 205.062 153.357 205.083H153.234V204.961C153.234 200.863 153.234 196.584 153.234 192.193V192.07H153.362C172.846 192.092 190.175 192.108 201.059 192.118H201.134V192.193C201.118 196.232 201.102 199.431 201.091 201.629C201.08 202.709 201.075 203.545 201.075 204.114C201.075 204.391 201.07 204.599 201.07 204.748C201.07 204.891 201.064 204.955 201.064 204.955L201.048 204.971Z" fill="#E0E0E0"/>
<path d="M181.925 197.403C181.531 197.142 181.095 196.967 180.643 196.823C180.233 196.69 179.807 196.626 179.376 196.626H175.863C174.831 196.626 173.814 196.993 173.069 197.707C172.883 197.882 172.734 198.058 172.649 198.212C172.346 198.755 172.335 199.505 172.787 199.931C173.24 200.352 174.16 200.149 174.235 199.532C174.214 200.341 175.044 201.022 175.853 200.969C176.662 200.916 177.354 200.25 177.577 199.473C177.567 200.16 178.157 200.804 178.844 200.857C179.53 200.91 180.212 200.362 180.307 199.681C180.739 200.245 181.382 200.772 182.122 200.533C182.543 200.394 182.857 200.027 182.963 199.596C183.181 198.707 182.639 197.887 181.925 197.408V197.403Z" fill="#E0E0E0"/>
<path d="M176.492 196.605C176.529 196.674 175.683 197.036 175.05 197.925C174.4 198.798 174.31 199.718 174.235 199.702C174.203 199.702 174.182 199.468 174.257 199.101C174.326 198.734 174.512 198.239 174.847 197.776C175.188 197.313 175.598 196.983 175.928 196.807C176.252 196.626 176.481 196.578 176.492 196.605Z" fill="#EBEBEB"/>
<path d="M177.838 196.749C177.907 196.759 177.896 197.382 177.816 198.143C177.736 198.904 177.614 199.516 177.545 199.511C177.476 199.511 177.486 198.883 177.566 198.116C177.646 197.35 177.768 196.738 177.838 196.749Z" fill="#EBEBEB"/>
<path d="M179.53 196.706C179.53 196.706 179.727 196.754 179.94 196.983C180.148 197.212 180.355 197.6 180.435 198.063C180.515 198.526 180.478 198.941 180.44 199.234C180.398 199.527 180.35 199.708 180.318 199.702C180.281 199.702 180.27 199.516 180.265 199.223C180.259 198.931 180.265 198.531 180.19 198.106C180.116 197.68 179.961 197.323 179.802 197.089C179.647 196.855 179.509 196.733 179.536 196.701L179.53 196.706Z" fill="#EBEBEB"/>
<path d="M198.659 220.927H155.906V225.935H198.659V220.927Z" fill="#EBEBEB"/>
<path d="M187.908 173.06V179.51H160.179C158.396 179.51 156.954 178.068 156.954 176.285C156.954 174.502 158.396 173.06 160.179 173.06" fill="#E0E0E0"/>
<path d="M178.53 174.412H187.908V178.158H178.53C177.636 178.158 176.907 177.429 176.907 176.535V176.04C176.907 175.146 177.636 174.417 178.53 174.417V174.412Z" fill="#EBEBEB"/>
<path d="M187.908 166.609V173.06H160.179C158.396 173.06 156.954 171.617 156.954 169.834C156.954 168.052 158.396 166.609 160.179 166.609H187.908Z" fill="#EBEBEB"/>
<path d="M178.53 167.961H187.908V171.708H178.53C177.636 171.708 176.907 170.979 176.907 170.085V169.59C176.907 168.696 177.636 167.966 178.53 167.966V167.961Z" fill="#F5F5F5"/>
<path d="M167.886 156.268L163.479 166.609H166.316L168.275 161.085L167.886 156.268Z" fill="#E0E0E0"/>
<path d="M181.41 146.907L183.107 166.609H168.716L167.136 146.907H181.41Z" fill="#F5F5F5"/>
<path d="M180 148.471L181.49 164.975L170.686 165.114L169.228 148.376L180 148.471Z" fill="#FAFAFA"/>
<path d="M177.711 150.755L178.557 162.112H172.793L171.776 150.755H177.711Z" fill="#E0E0E0"/>
<path d="M233.775 238.427C233.775 238.501 183.742 238.565 122.031 238.565C60.3213 238.565 10.2773 238.501 10.2773 238.427C10.2773 238.352 60.3001 238.288 122.031 238.288C183.763 238.288 233.775 238.352 233.775 238.427Z" fill="#263238"/>
<path d="M232.646 117.731C226.356 120.988 221.534 126.598 218.069 132.771C214.599 138.945 212.369 145.725 210.155 152.452L208.218 187.147C215.536 174.699 221.411 160.063 222.997 145.709C221.374 145.566 219.751 145.422 218.128 145.278C221.39 144.778 224.131 142.415 225.877 139.61C227.622 136.805 228.516 133.57 229.395 130.387C227.415 130.68 225.435 130.978 223.455 131.27C228.107 128.168 231.481 123.202 232.652 117.731H232.646Z" fill="#455A64"/>
<g opacity="0.3">
<path d="M232.646 117.731C226.356 120.988 221.534 126.598 218.069 132.771C214.599 138.945 212.369 145.725 210.155 152.452L208.218 187.147C215.536 174.699 221.411 160.063 222.997 145.709C221.374 145.566 219.751 145.422 218.128 145.278C221.39 144.778 224.131 142.415 225.877 139.61C227.622 136.805 228.516 133.57 229.395 130.387C227.415 130.68 225.435 130.978 223.455 131.27C228.107 128.168 231.481 123.202 232.652 117.731H232.646Z" fill="black"/>
</g>
<path d="M207.127 195.28C207.127 195.28 191.245 176.269 191.426 158.121H197.845C197.845 158.121 190.878 153.538 191.426 150.973C191.974 148.408 192.161 138.689 192.161 138.689L198.026 140.158C198.026 140.158 193.624 137.96 193.076 134.474C192.528 130.994 194.359 114.857 194.359 114.857C194.359 114.857 201.506 122.372 203.71 130.073C205.908 137.774 211.682 146.752 209.99 170.218C208.292 193.683 207.127 195.28 207.127 195.28Z" fill="#455A64"/>
<path d="M215.179 197.078C215.179 197.078 232.385 185.615 236.212 170.984L231.055 169.579C231.055 169.579 237.66 167.418 237.777 165.236C237.894 163.054 239.874 155.199 239.874 155.199L234.839 155.092C234.839 155.092 238.857 154.289 240.06 151.606C241.263 148.924 243.317 135.555 243.317 135.555C243.317 135.555 235.925 140.031 232.471 145.741C229.017 151.452 222.412 157.407 218.638 176.647C214.87 195.881 215.179 197.073 215.179 197.073V197.078Z" fill="#455A64"/>
<path d="M198.701 131.435C198.701 131.435 198.722 131.499 198.759 131.632C198.791 131.776 198.839 131.973 198.898 132.218C199.015 132.75 199.185 133.506 199.398 134.474C199.616 135.454 199.872 136.656 200.149 138.056C200.431 139.456 200.761 141.042 201.08 142.809C201.761 146.332 202.474 150.547 203.214 155.236C203.927 159.93 204.646 165.098 205.279 170.537C205.902 175.982 206.386 181.176 206.759 185.913C207.11 190.644 207.371 194.912 207.514 198.5C207.605 200.293 207.647 201.916 207.69 203.343C207.738 204.769 207.765 205.993 207.775 206.999C207.786 207.989 207.796 208.766 207.802 209.309C207.802 209.564 207.802 209.761 207.802 209.91C207.802 210.043 207.802 210.113 207.791 210.118C207.791 210.118 207.78 210.049 207.77 209.916C207.765 209.767 207.754 209.57 207.743 209.314C207.727 208.771 207.701 207.994 207.663 207.004C207.637 206.004 207.594 204.774 207.53 203.353C207.472 201.927 207.413 200.309 207.312 198.516C207.142 194.934 206.86 190.671 206.498 185.939C206.109 181.213 205.62 176.019 204.997 170.58C204.364 165.14 203.656 159.978 202.953 155.284C202.229 150.595 201.532 146.38 200.878 142.851C200.569 141.084 200.255 139.493 199.984 138.093C199.723 136.694 199.483 135.491 199.276 134.506C199.084 133.532 198.93 132.771 198.823 132.239C198.775 131.989 198.738 131.792 198.712 131.648C198.69 131.515 198.68 131.446 198.685 131.446L198.701 131.435Z" fill="#263238"/>
<path d="M204.928 206.924C204.928 206.924 190.394 190.431 185.88 180.463L189.287 179.004C186.817 179.414 184.289 178.35 182.373 176.737C180.457 175.125 179.052 173.006 177.674 170.915L182.16 170.159C178.078 169.015 174.48 166.226 172.352 162.564C177.647 163.437 182.437 166.343 186.386 169.978C189.585 172.921 192.294 176.343 194.891 179.835C196.157 181.538 197.27 183.353 198.196 185.263C200.639 190.314 204.934 200.863 204.923 206.919L204.928 206.924Z" fill="#455A64"/>
<path d="M236.44 145.156C236.44 145.156 236.419 145.214 236.371 145.321C236.313 145.443 236.238 145.597 236.148 145.8C235.935 146.236 235.642 146.848 235.259 147.631C234.477 149.211 233.375 151.516 232.039 154.374C230.698 157.232 229.154 160.654 227.499 164.48C225.855 168.312 224.104 172.554 222.363 177.041C220.634 181.533 219.074 185.849 217.712 189.793C216.365 193.742 215.2 197.313 214.268 200.33C213.337 203.343 212.603 205.791 212.118 207.489C211.873 208.324 211.682 208.974 211.543 209.437C211.48 209.649 211.426 209.814 211.389 209.942C211.352 210.054 211.331 210.112 211.325 210.112C211.325 210.112 211.331 210.054 211.362 209.937C211.394 209.809 211.437 209.639 211.49 209.426C211.613 208.958 211.788 208.303 212.017 207.462C212.475 205.759 213.177 203.3 214.087 200.277C214.992 197.254 216.136 193.672 217.472 189.718C218.824 185.769 220.373 181.447 222.108 176.95C223.848 172.458 225.61 168.222 227.265 164.39C228.936 160.563 230.501 157.147 231.863 154.299C233.226 151.452 234.354 149.158 235.168 147.593C235.568 146.822 235.882 146.215 236.1 145.789C236.201 145.592 236.286 145.443 236.35 145.321C236.408 145.214 236.44 145.166 236.446 145.166L236.44 145.156Z" fill="#263238"/>
<path d="M206.158 213.992C206.158 213.992 206.126 213.891 206.089 213.689C206.051 213.46 206.004 213.167 205.95 212.811C205.897 212.428 205.823 211.965 205.727 211.427C205.631 210.89 205.535 210.272 205.391 209.602C205.131 208.25 204.758 206.658 204.284 204.902C203.795 203.151 203.193 201.246 202.454 199.282C201.709 197.323 200.9 195.493 200.112 193.853C199.308 192.225 198.537 190.777 197.839 189.596C197.504 188.994 197.169 188.473 196.887 188.004C196.605 187.536 196.354 187.137 196.142 186.818C195.95 186.514 195.79 186.264 195.668 186.067C195.561 185.892 195.508 185.801 195.519 185.796C195.524 185.79 195.593 185.876 195.716 186.035C195.854 186.227 196.025 186.466 196.232 186.759C196.456 187.073 196.727 187.462 197.02 187.925C197.312 188.388 197.664 188.904 198.01 189.5C198.728 190.676 199.526 192.113 200.346 193.747C201.15 195.386 201.969 197.217 202.72 199.186C203.46 201.161 204.056 203.077 204.535 204.838C204.998 206.605 205.354 208.207 205.588 209.57C205.721 210.246 205.801 210.863 205.886 211.406C205.972 211.949 206.025 212.417 206.067 212.8C206.105 213.157 206.131 213.449 206.158 213.684C206.174 213.886 206.179 213.992 206.169 213.992H206.158Z" fill="#263238"/>
<path d="M225.339 210.112H193.528V216.6H225.339V210.112Z" fill="#CDB8D2"/>
<path d="M196.557 216.6L200 238.426H219.224L222.428 216.6H196.557Z" fill="#CDB8D2"/>
<path d="M223.386 216.6C223.386 216.675 217.366 216.739 209.947 216.739C202.528 216.739 196.509 216.675 196.509 216.6C196.509 216.526 202.523 216.462 209.947 216.462C217.372 216.462 223.386 216.526 223.386 216.6Z" fill="#263238"/>
<path d="M70.9121 51.1882C71.4284 48.591 73.2645 47.2073 75.7127 46.1907C78.1555 45.1742 81.0987 45.451 83.3074 46.9146C84.7816 47.8938 85.9897 49.3734 87.6981 49.8417C90.5082 50.6134 93.5951 48.3462 96.3147 49.4053C97.922 50.0333 98.9545 51.8748 98.6511 53.5725C98.3477 55.2703 96.7351 56.6434 95.0108 56.67C96.8469 57.2076 97.576 59.7303 96.634 61.3961C95.692 63.0619 93.5791 63.807 91.6791 63.5835C89.7791 63.3599 88.0654 62.3275 86.5645 61.1459C85.0583 59.9644 83.6906 58.602 82.0992 57.5429C80.5026 56.4837 78.6079 55.728 76.7079 55.9569C74.1373 56.2655 72.051 58.3625 71.0505 60.7521C70.0552 63.1417 69.9648 65.8081 69.9914 68.3947C70.018 70.9866 70.1457 73.6104 69.5443 76.1331C69.4751 76.4311 69.358 76.7611 69.076 76.8728C68.6662 77.0272 68.2776 76.6067 68.0435 76.2342C65.4037 72.0297 63.6048 67.309 62.7745 62.4126C62.2956 59.5706 62.1891 56.8563 63.6048 54.3443C65.0205 51.8322 68.8737 49.7991 70.9227 51.1882" fill="#333333"/>
<path d="M66.7125 63.4983L67.2553 89.9493C67.3564 94.8882 69.8366 99.9975 77.6388 99.4812C84.3766 98.5233 84.5523 93.7972 84.515 87.9429C84.515 87.9429 91.8968 87.0966 92.28 79.7681C92.4663 76.2235 92.2534 68.9003 91.982 62.2742C91.6946 55.1585 85.9786 49.4585 78.8629 49.1765L78.1551 49.1498C70.5071 49.2882 66.3559 55.8664 66.7071 63.5036L66.7125 63.4983Z" fill="#FFBE9D"/>
<path d="M84.5201 87.9428C84.5201 87.9428 79.8846 88.0279 75.084 84.7389C75.084 84.7389 77.1649 90.5187 84.5095 90.1515L84.5201 87.9428Z" fill="#EB996E"/>
<path d="M89.3899 69.64C89.3899 70.1935 88.9162 70.6459 88.3361 70.6566C87.7613 70.6619 87.293 70.2255 87.293 69.6666C87.293 69.1131 87.7666 68.6554 88.3414 68.6501C88.9215 68.6395 89.3846 69.0865 89.3846 69.64H89.3899Z" fill="#263238"/>
<path d="M90.2682 65.8028C90.1351 65.9358 89.3634 65.3132 88.2351 65.2759C87.1121 65.2174 86.2606 65.7655 86.1435 65.6218C86.085 65.558 86.2287 65.3185 86.5959 65.0683C86.9631 64.8235 87.5752 64.5893 88.2777 64.6213C88.9802 64.6532 89.5603 64.9353 89.8903 65.212C90.2256 65.4941 90.332 65.7442 90.2682 65.8028Z" fill="#263238"/>
<path d="M78.9485 69.1823C78.9485 69.7358 78.4748 70.1882 77.8947 70.1988C77.3199 70.2095 76.8516 69.7678 76.8516 69.2089C76.8516 68.6554 77.3252 68.1977 77.9053 68.1924C78.4855 68.1818 78.9485 68.6288 78.9485 69.1823Z" fill="#263238"/>
<path d="M79.1822 65.5739C79.0492 65.707 78.2775 65.0843 77.1492 65.0471C76.0262 64.9885 75.1746 65.5367 75.0576 65.393C74.999 65.3291 75.1427 65.0896 75.5153 64.8395C75.8825 64.5947 76.4945 64.3605 77.1971 64.3924C77.8996 64.4244 78.4797 64.7064 78.8097 64.9832C79.145 65.2653 79.2514 65.5154 79.1875 65.5739H79.1822Z" fill="#263238"/>
<path d="M82.9401 74.0947C82.9401 74.0308 83.6426 73.935 84.7815 73.8392C85.0689 73.8233 85.3457 73.7754 85.3989 73.5784C85.4734 73.3709 85.367 73.0569 85.2392 72.7163C84.9944 72.0084 84.7443 71.2686 84.4782 70.4916C83.4191 67.3249 82.6687 64.7277 82.7964 64.6852C82.9241 64.6426 83.8874 67.1759 84.9412 70.3426C85.1967 71.1249 85.4362 71.87 85.6703 72.5779C85.7661 72.9079 85.9364 73.2857 85.7768 73.7115C85.6916 73.9244 85.4734 74.0734 85.2871 74.1107C85.1009 74.1586 84.9359 74.1586 84.7975 74.1586C83.6532 74.1745 82.9454 74.1532 82.9401 74.0894V74.0947Z" fill="#263238"/>
<path d="M79.6502 61.1672C79.5278 61.4706 78.4048 61.279 77.0796 61.3854C75.7491 61.4653 74.6687 61.8112 74.5037 61.5291C74.4292 61.3961 74.6261 61.114 75.0731 60.8319C75.5096 60.5552 76.2068 60.2997 77.0051 60.2412C77.8034 60.1879 78.5219 60.3423 78.9956 60.5552C79.4745 60.7681 79.7087 61.0182 79.6555 61.1619L79.6502 61.1672Z" fill="#263238"/>
<path d="M89.9855 62.5244C89.7779 62.7745 89.0115 62.4765 88.0801 62.4286C87.1488 62.3434 86.3504 62.5297 86.1801 62.2583C86.1056 62.1252 86.2387 61.8751 86.5953 61.6462C86.9465 61.4174 87.5213 61.2417 88.1653 61.2896C88.8039 61.3375 89.3521 61.5877 89.6661 61.8644C89.9855 62.1412 90.0813 62.4073 89.9908 62.5297L89.9855 62.5244Z" fill="#263238"/>
<path d="M67.0962 68.9535C66.9738 68.8949 62.1147 67.261 62.0774 72.2798C62.0348 77.2986 67.0855 76.3033 67.0962 76.1596C67.1068 76.0159 67.0962 68.9481 67.0962 68.9481V68.9535Z" fill="#FFBE9D"/>
<path d="M65.5798 74.249C65.5798 74.249 65.4893 74.3076 65.3456 74.3768C65.2019 74.4406 64.9518 74.4832 64.691 74.3874C64.1641 74.1905 63.7224 73.3443 63.7064 72.4395C63.6957 71.9818 63.7969 71.5507 63.9619 71.1888C64.1162 70.8216 64.3557 70.5661 64.6271 70.5235C64.8932 70.465 65.0795 70.6246 65.1434 70.7683C65.2072 70.9067 65.1753 71.0078 65.2019 71.0185C65.2179 71.0291 65.3084 70.9333 65.2711 70.7258C65.2498 70.6246 65.1913 70.5076 65.0742 70.4118C64.9571 70.3106 64.7761 70.2627 64.5899 70.2787C64.2014 70.3 63.8501 70.6566 63.6691 71.0504C63.4669 71.4443 63.3445 71.9339 63.3551 72.4448C63.3817 73.456 63.8873 74.4087 64.6112 74.6216C64.9624 74.7174 65.2605 74.6109 65.4095 74.4938C65.5638 74.3714 65.5958 74.2597 65.5745 74.249H65.5798Z" fill="#EB996E"/>
<path d="M92.3494 55.4406C91.7533 53.9717 90.6356 52.7742 89.4115 51.7683C86.7718 49.6022 83.4827 48.1919 80.0712 48.0003C76.6651 47.814 73.1578 48.8944 70.5978 51.1563C68.5488 52.9605 67.1597 55.4512 66.4572 58.091C65.7547 60.7308 65.7121 63.5143 66.0847 66.2232C66.2497 67.4101 66.5211 68.6501 67.3141 69.5442C67.809 70.1084 68.6819 70.4969 69.2939 70.0658C69.6558 69.8103 69.7995 69.358 69.9219 68.9322C71.0396 65.1003 72.1572 60.9809 70.8905 57.1969C71.8964 55.9835 73.062 54.8658 74.4723 54.1633C75.8827 53.4554 77.5645 53.2 79.0547 53.7215C81.2634 54.4986 82.5513 56.7286 84.2757 58.3145C86.7398 60.5765 90.3376 61.5398 93.6001 60.8106L92.3494 55.4459V55.4406Z" fill="#333333"/>
<path d="M83.4929 77.2347C83.3492 77.6871 83.2001 78.1448 82.934 78.5386C82.6679 78.9325 82.2581 79.2571 81.7844 79.3104C81.2788 79.3689 80.7732 79.1028 80.4646 78.6983C80.1559 78.2991 80.0228 77.7776 80.0122 77.272C80.0015 76.8143 80.1772 76.2554 80.6242 76.1703C80.8105 76.133 81.0021 76.1969 81.183 76.2554C81.9973 76.5269 82.8169 76.793 83.6312 77.0644" fill="#EB996E"/>
<path d="M82.6734 79.2571C82.6575 79.1826 82.1466 79.4327 81.3908 79.1826C81.0236 79.0602 80.6138 78.8047 80.369 78.3736C80.1241 77.9479 80.0443 77.3518 80.2359 76.8143C80.2785 76.6812 80.353 76.5535 80.4222 76.4417C80.5127 76.3353 80.4914 76.3406 80.5978 76.3512C80.6989 76.3725 80.8586 76.4364 80.9917 76.4736C81.13 76.5215 81.2631 76.5641 81.3961 76.6067C81.923 76.777 82.3967 76.9313 82.7959 77.0484C83.5942 77.2879 84.0998 77.4103 84.1211 77.3518C84.1424 77.2986 83.6687 77.075 82.897 76.761C82.5085 76.6067 82.0454 76.4257 81.5292 76.2341C81.4015 76.1862 81.2684 76.1383 81.13 76.0851C80.9863 76.0372 80.8746 75.984 80.683 75.9361C80.5872 75.9148 80.4541 75.9095 80.3317 75.968C80.2093 76.0266 80.1348 76.1171 80.0816 76.1916C79.9858 76.3406 79.9006 76.4949 79.8421 76.6599C79.6026 77.3305 79.7197 78.049 80.039 78.5652C80.369 79.0921 80.8852 79.3689 81.3163 79.4647C81.7527 79.5658 82.1199 79.5126 82.3541 79.4381C82.5883 79.3582 82.6947 79.2731 82.6841 79.2465L82.6734 79.2571Z" fill="#263238"/>
<path d="M97.8204 50.64C97.8204 50.64 97.847 50.7518 97.8736 50.9807C97.8736 51.2042 97.8843 51.5395 97.7672 51.9546C97.5703 52.7742 96.905 53.9557 95.5532 54.7274C94.2067 55.5204 92.2322 55.6375 90.3002 55.0521C88.3364 54.4933 86.4736 53.2532 84.5044 52.0983C82.5459 50.9434 80.4702 50.0599 78.5011 50.1398C76.5319 50.193 74.8873 51.0924 73.7537 52.0344C72.6041 52.9871 71.891 53.9983 71.4599 54.7115C71.0341 55.4353 70.8638 55.8717 70.8319 55.8557C70.8212 55.8557 70.8585 55.7386 70.9383 55.5311C71.0128 55.3182 71.1565 55.0255 71.3481 54.6476C71.7526 53.9078 72.4445 52.8594 73.6047 51.8588C74.7436 50.8689 76.4307 49.9162 78.4904 49.8417C80.5554 49.7406 82.6949 50.656 84.6694 51.8162C86.6546 52.9818 88.4907 54.2112 90.3854 54.7647C92.2588 55.3448 94.1481 55.249 95.4414 54.5252C96.7507 53.812 97.4159 52.6997 97.6448 51.9174C97.8843 51.1137 97.7778 50.6347 97.8204 50.6347V50.64Z" fill="#455A64"/>
<path d="M63.3495 61.0874C63.3176 61.0768 63.3921 60.5445 63.7327 59.7515C64.0627 58.9585 64.6907 57.9154 65.6487 56.9947C66.1223 56.5316 66.6279 56.1538 67.1176 55.8557C67.6072 55.5524 68.1128 55.3555 68.5705 55.3395C69.0229 55.3182 69.3795 55.4566 69.5817 55.6003C69.7893 55.744 69.8531 55.8717 69.8372 55.8823C69.8159 55.9302 69.4114 55.4779 68.5865 55.5683C67.7828 55.6588 66.7982 56.3667 65.8722 57.2288C64.9515 58.1176 64.3181 59.1022 63.9403 59.8473C63.5517 60.5924 63.3974 61.098 63.3495 61.0821V61.0874Z" fill="#455A64"/>
<path d="M64.0522 65.5367C64.0203 65.526 64.1374 64.9991 64.5259 64.2168C64.9091 63.4398 65.5956 62.4286 66.5802 61.5344C67.5701 60.6403 68.6452 60.0655 69.4595 59.7622C70.2738 59.4588 70.8113 59.3949 70.8166 59.4269C70.8326 59.4801 70.3163 59.6238 69.5446 59.9751C68.7729 60.321 67.7511 60.9118 66.7931 61.7739C65.8351 62.6414 65.1486 63.5941 64.7228 64.3286C64.297 65.063 64.1001 65.5526 64.0469 65.5367H64.0522Z" fill="#455A64"/>
<path d="M100.972 138.035L127.673 148.785L123.415 156.412L93.1377 151.771L100.972 138.035Z" fill="#FFBE9D"/>
<path d="M101.025 106.953C101.164 114.468 100.919 132.558 100.919 132.558L105.198 139.285L97.7096 149.376L89.0558 150.595L88.1936 157.306C88.1936 157.306 73.0362 164.092 60.9071 159.978C51.4709 156.779 40.4381 167.54 40.4381 167.54C40.4381 167.54 39.4323 165.784 41.0661 150.6C42.6255 136.129 45.3558 112.254 45.3558 112.254L54.0788 90.439L67.1819 88.1664C72.669 97.4961 83.6379 97.5493 84.5214 91.8759L93.2337 95.5003C95.7723 96.5541 97.9491 98.3689 99.3329 100.743C100.264 102.35 100.983 104.404 101.031 106.953H101.025Z" fill="#58126A"/>
<path d="M93.4727 109.242C93.5472 109.253 92.6264 117.869 91.4183 128.487C90.2049 139.11 89.1617 147.71 89.0872 147.705C89.0127 147.694 89.9334 139.083 91.1416 128.46C92.355 117.843 93.3982 109.237 93.4727 109.247V109.242Z" fill="white"/>
<path d="M89.1512 128.695C89.1937 128.758 84.9148 131.584 79.5926 135.007C74.2705 138.429 69.9223 141.148 69.8851 141.084C69.8425 141.021 74.1215 138.195 79.4436 134.772C84.7657 131.35 89.1086 128.631 89.1512 128.695Z" fill="white"/>
<path d="M73.8393 238.426H68.8046L65.9307 204.593H73.8393V238.426Z" fill="#263238"/>
<path d="M34.6417 238.426H29.6122L26.7383 204.593H34.6417V238.426Z" fill="#263238"/>
<path d="M129.445 238.426H124.416L121.542 204.593H129.445V238.426Z" fill="#263238"/>
<path d="M48.4422 174.449L53.2374 101.099H8.00468C4.56127 101.099 1.96407 104.223 2.59208 107.608L20.7884 205.86C26.5789 205.78 132.101 205.86 132.101 205.86V174.449H48.4422Z" fill="#455A64"/>
<path d="M115.544 195.051C115.544 195.125 105.517 195.189 93.1539 195.189C80.7906 195.189 70.7637 195.125 70.7637 195.051C70.7637 194.976 80.7852 194.912 93.1539 194.912C105.522 194.912 115.544 194.976 115.544 195.051Z" fill="#263238"/>
<path d="M155.593 212.113L158.85 227.643C158.85 227.643 175.727 229.549 176.61 232.359L146.726 239.751L140.659 215.764L155.593 212.113Z" fill="#F3D7EC"/>
<path d="M149.286 228.633C148.749 228.937 148.509 229.682 148.786 230.235C149.063 230.789 149.824 231.034 150.366 230.746C150.909 230.454 151.223 229.565 150.888 229.049C150.547 228.532 149.643 228.287 149.185 228.703" fill="black" fill-opacity="0.8"/>
<path d="M146.859 240.39L146.269 238.064L175.051 231.135C175.051 231.135 176.525 231.385 176.605 232.359L146.854 240.39H146.859Z" fill="black" fill-opacity="0.8"/>
<path d="M159.297 227.372C159.329 227.521 158.616 227.766 158.014 228.415C157.397 229.048 157.184 229.772 157.035 229.746C156.892 229.746 156.897 228.825 157.637 228.053C158.371 227.276 159.297 227.234 159.297 227.372Z" fill="#263238"/>
<path d="M162.751 227.894C162.821 228.027 162.251 228.431 161.905 229.171C161.543 229.9 161.581 230.597 161.432 230.629C161.298 230.688 160.99 229.857 161.432 228.947C161.868 228.032 162.709 227.761 162.746 227.899L162.751 227.894Z" fill="#263238"/>
<path d="M165.46 231.204C165.338 231.268 164.949 230.587 165.13 229.698C165.301 228.804 165.913 228.319 166.003 228.426C166.115 228.527 165.78 229.064 165.647 229.799C165.497 230.528 165.604 231.156 165.466 231.204H165.46Z" fill="#263238"/>
<path d="M158.158 223.918C158.132 224.067 157.413 224.03 156.599 224.291C155.785 224.535 155.21 224.972 155.103 224.865C154.992 224.78 155.487 224.083 156.445 223.79C157.403 223.492 158.201 223.79 158.158 223.918Z" fill="#263238"/>
<g opacity="0.3">
<path d="M155.593 212.113L158.85 227.643C158.85 227.643 175.727 229.549 176.61 232.359L146.859 240.39L140.659 215.77L155.593 212.119V212.113Z" fill="black" fill-opacity="0.8"/>
</g>
<path d="M139.716 165.295L158.631 220.214L142.292 226.254L112.185 166.05L62.1729 158.227L92.1896 150.153L135.006 160.968C137.204 161.521 138.971 163.15 139.711 165.289L139.716 165.295Z" fill="#263238"/>
<path d="M155.071 206.015L165.875 217.878C165.875 217.878 181.564 210.879 183.773 212.88L161.521 234.653L143.932 216.856L155.076 206.009L155.071 206.015Z" fill="#F3D7EC"/>
<path d="M158.051 223.647C157.737 224.184 157.913 224.961 158.44 225.296C158.967 225.632 159.755 225.461 160.079 224.929C160.404 224.397 160.223 223.46 159.659 223.184C159.1 222.907 158.184 223.162 157.993 223.758" fill="black" fill-opacity="0.8"/>
<path d="M161.963 235.137L160.255 233.413L181.788 212.609C181.788 212.609 183.199 212.071 183.773 212.88L161.963 235.137Z" fill="black" fill-opacity="0.8"/>
<path d="M166.125 217.414C166.226 217.526 165.731 218.106 165.54 218.979C165.321 219.847 165.508 220.586 165.369 220.64C165.247 220.714 164.773 219.91 165.029 218.857C165.273 217.803 166.056 217.287 166.13 217.414H166.125Z" fill="#58126A"/>
<path d="M169.403 216.094C169.531 216.174 169.243 216.818 169.323 217.643C169.382 218.468 169.77 219.054 169.659 219.155C169.573 219.272 168.876 218.708 168.796 217.686C168.706 216.664 169.302 215.993 169.403 216.094Z" fill="#58126A"/>
<path d="M173.459 217.59C173.385 217.712 172.698 217.313 172.4 216.446C172.091 215.578 172.373 214.844 172.506 214.886C172.655 214.918 172.639 215.557 172.895 216.265C173.14 216.978 173.555 217.468 173.459 217.585V217.59Z" fill="#58126A"/>
<path d="M163.362 214.982C163.416 215.126 162.766 215.461 162.197 216.105C161.611 216.738 161.335 217.409 161.186 217.372C161.047 217.356 161.116 216.494 161.803 215.749C162.484 214.998 163.33 214.844 163.362 214.982Z" fill="#58126A"/>
<path d="M56.7928 181.368L100.402 181.181L148.802 226.249L163.847 212.236C163.847 212.236 122.75 165.859 118.003 161.074C113.25 156.29 67.5063 153.102 67.5063 153.102L40.0068 165.05L40.6295 168.169C42.1676 175.865 48.9427 181.4 56.7928 181.362V181.368Z" fill="#263238"/>
<path d="M99.3856 175.455C99.4601 175.444 99.673 176.636 99.854 178.116C100.035 179.595 100.125 180.798 100.046 180.809C99.9711 180.819 99.7582 179.627 99.5772 178.148C99.3963 176.668 99.3058 175.465 99.3856 175.455Z" fill="#455A64"/>
<path d="M158.823 206.648C158.823 206.648 158.642 206.887 158.281 207.281C157.919 207.675 157.386 208.239 156.721 208.931C155.391 210.309 153.523 212.183 151.41 214.2C149.297 216.217 147.333 217.995 145.896 219.261C145.177 219.895 144.587 220.4 144.177 220.741C143.767 221.081 143.533 221.268 143.517 221.252C143.506 221.236 143.714 221.028 144.102 220.661C144.528 220.262 145.087 219.745 145.763 219.117C147.168 217.819 149.105 216.02 151.218 214.003C153.331 211.986 155.22 210.139 156.583 208.798C157.237 208.154 157.786 207.622 158.201 207.212C158.584 206.839 158.807 206.642 158.818 206.653L158.823 206.648Z" fill="#455A64"/>
<path d="M132.787 211.336C132.787 211.336 132.889 211.416 133.075 211.587C133.266 211.762 133.543 212.012 133.905 212.342C134.64 213.018 135.715 214.008 137.098 215.28C139.871 217.851 143.884 221.566 148.871 226.18H148.738C153.012 222.188 158.116 217.425 163.768 212.145L163.757 212.316C157.418 204.923 149.824 196.828 141.867 188.212C138.349 184.412 134.916 180.692 131.638 177.073C128.359 173.454 125.23 169.925 122.372 166.46C120.951 164.731 119.535 163.049 117.854 161.766C117.018 161.122 116.113 160.601 115.171 160.207C114.229 159.808 113.255 159.541 112.287 159.323C110.344 158.903 108.428 158.658 106.603 158.365C104.772 158.083 103.015 157.806 101.339 157.546C94.6384 156.497 89.2151 155.646 85.4577 155.06C83.5897 154.762 82.1367 154.528 81.1415 154.368C80.6572 154.289 80.2793 154.225 80.0185 154.182C79.7684 154.14 79.6406 154.108 79.6406 154.108C79.6406 154.108 79.7737 154.118 80.0238 154.15C80.2846 154.187 80.6625 154.241 81.1468 154.31C82.142 154.459 83.6003 154.672 85.4684 154.949C89.2311 155.518 94.6597 156.338 101.366 157.349C103.042 157.604 104.804 157.87 106.634 158.152C108.465 158.445 110.376 158.679 112.34 159.1C113.319 159.318 114.309 159.589 115.267 159.994C116.23 160.393 117.156 160.925 118.003 161.58C119.716 162.878 121.143 164.576 122.569 166.301C125.427 169.755 128.562 173.273 131.84 176.892C135.119 180.511 138.551 184.22 142.069 188.026C150.026 196.637 157.615 204.742 163.949 212.156L164.028 212.247L163.943 212.326C158.28 217.59 153.161 222.343 148.876 226.318L148.807 226.382L148.743 226.318C143.783 221.677 139.791 217.936 137.035 215.355C135.667 214.067 134.608 213.066 133.879 212.38C133.527 212.044 133.256 211.784 133.064 211.603C132.883 211.427 132.793 211.331 132.793 211.331L132.787 211.336Z" fill="#455A64"/>
<path d="M94.5155 146.497L81.3593 150.93L57.133 141.079L44.2002 153.102L78.7514 159.302C79.917 159.494 81.1091 159.408 82.2374 159.052L92.424 155.853C92.424 155.853 95.7556 159.616 96.4475 159.669C97.1394 159.722 98.5444 159.627 97.8791 158.387C97.2139 157.147 95.5001 154.98 95.5001 154.98C95.5001 154.98 100.178 158.839 100.711 158.323C101.243 157.806 101.03 156.614 100.2 155.64C99.3693 154.666 96.6178 151.51 96.6178 151.51C96.6178 151.51 102.382 156.284 102.93 155.561C103.478 154.837 103.749 153.692 101.44 151.478C99.9228 150.026 97.5864 147.95 96.357 146.864C95.8514 146.417 95.1489 146.279 94.5102 146.492L94.5155 146.497Z" fill="#FFBE9D"/>
<path d="M80.9971 151.047C81.0503 151.101 80.4649 151.777 79.7411 152.601C79.0173 153.426 78.4265 154.097 78.368 154.049C78.3094 154.006 78.8044 153.251 79.5335 152.415C80.2627 151.58 80.9439 150.989 80.9971 151.042V151.047Z" fill="#EB996E"/>
<path d="M100.402 155.896C100.37 155.933 99.9177 155.513 99.295 154.762C98.6617 154.017 97.8208 152.958 96.8681 151.814C95.8995 150.717 95.0852 149.467 94.0314 149.674C93.5631 149.701 93.2012 149.855 92.9723 149.994C92.7435 150.132 92.637 150.238 92.621 150.222C92.6104 150.212 92.6902 150.079 92.9138 149.903C93.132 149.727 93.5098 149.531 94.0154 149.477C94.2709 149.451 94.553 149.467 94.8457 149.547C94.9894 149.578 95.1437 149.658 95.2821 149.754C95.4045 149.855 95.5376 149.956 95.6547 150.068C96.1337 150.52 96.5967 151.058 97.081 151.633C98.0337 152.782 98.8533 153.857 99.444 154.634C99.7101 154.975 99.9443 155.278 100.147 155.55C100.312 155.768 100.413 155.875 100.397 155.896H100.402Z" fill="#EB996E"/>
<path d="M91.0668 152.522C91.0668 152.522 91.1467 152.389 91.3702 152.245C91.5937 152.106 91.9769 151.957 92.4612 151.968C92.7061 151.973 92.9615 152.005 93.2436 152.122C93.5203 152.25 93.7492 152.474 93.9408 152.724C94.1377 152.974 94.3027 153.256 94.4837 153.522C94.6646 153.783 94.8881 154.06 95.0957 154.342C96.8094 156.593 98.0814 158.52 97.9643 158.589C97.943 158.6 97.8685 158.477 97.7142 158.27C97.5173 158.009 97.2991 157.721 97.0542 157.391C96.4422 156.577 95.6971 155.592 94.8722 154.507C94.6593 154.219 94.4517 153.959 94.2548 153.671C94.0685 153.389 93.9089 153.112 93.7332 152.873C93.5576 152.633 93.3607 152.436 93.1425 152.325C92.9243 152.224 92.6688 152.176 92.4506 152.16C91.5352 152.101 91.0828 152.57 91.0615 152.516L91.0668 152.522Z" fill="#EB996E"/>
<path d="M101.77 151.808C101.743 151.835 101.339 151.51 100.7 150.962C100.067 150.414 99.1992 149.642 98.2572 148.78C97.7942 148.349 97.3471 147.939 96.932 147.556C96.5328 147.162 96.1709 146.854 95.7984 146.683C95.0479 146.337 94.5104 146.54 94.5104 146.497C94.4998 146.481 94.6222 146.406 94.8617 146.369C95.1012 146.332 95.4631 146.343 95.8729 146.502C96.0751 146.582 96.2827 146.699 96.4956 146.848C96.7031 147.003 96.8947 147.178 97.1023 147.364C97.5227 147.742 97.9698 148.152 98.4435 148.573C99.3908 149.435 100.232 150.233 100.838 150.819C101.44 151.404 101.802 151.782 101.775 151.808H101.77Z" fill="#EB996E"/>
<path d="M42.9764 153.432C42.9764 153.432 38.0588 147.913 38.3675 140.547C38.6761 133.181 40.789 111.861 41.7311 106.006C42.6624 100.221 47.0691 92.174 54.0784 90.4336C59.2036 89.1616 60.2627 104.665 60.2627 104.665L56.3935 138.892L64.1106 143.373L56.9098 155.571L42.9764 153.426V153.432Z" fill="#58126A"/>
<path d="M59.5976 102.962C59.5444 102.967 59.4805 102.212 59.1559 101.046C58.9962 100.461 58.7514 99.7846 58.4214 99.0608C58.0808 98.3423 57.6497 97.5759 57.1122 96.8255C56.5693 96.0804 55.9732 95.4364 55.3984 94.8829C54.813 94.3454 54.2435 93.8983 53.7379 93.563C52.7321 92.8924 52.0348 92.5944 52.0561 92.5465C52.0615 92.5305 52.2424 92.5944 52.5564 92.7275C52.7161 92.7913 52.9077 92.8765 53.1206 92.9936C53.3334 93.1106 53.5889 93.2277 53.8391 93.398C54.3659 93.7121 54.9567 94.1538 55.5634 94.6913C56.1595 95.2395 56.7715 95.8994 57.3304 96.6605C57.8785 97.4269 58.3096 98.2093 58.6449 98.9544C58.9696 99.6995 59.1984 100.397 59.3368 100.998C59.422 101.296 59.4539 101.573 59.4965 101.812C59.5444 102.052 59.5603 102.259 59.571 102.43C59.5976 102.77 59.6029 102.962 59.5816 102.962H59.5976Z" fill="white"/>
<path d="M56.3775 138.918C56.3935 138.955 55.9145 139.2 55.1587 139.631C54.403 140.057 53.3812 140.685 52.3167 141.473C51.2576 142.266 50.3635 143.064 49.7302 143.66C49.0968 144.256 48.7137 144.639 48.687 144.608C48.6604 144.586 48.9904 144.155 49.5918 143.522C50.1932 142.888 51.0767 142.053 52.1517 141.255C53.2268 140.456 54.2806 139.85 55.0683 139.466C55.8559 139.078 56.3669 138.897 56.3775 138.929V138.918Z" fill="white"/>
<path d="M107.47 131.116L99.0078 161.857H138.535L148.163 132.569C148.541 131.425 147.695 130.248 146.492 130.233L109.205 129.807C108.396 129.796 107.683 130.334 107.47 131.116Z" fill="#E0E0E0"/>
<path d="M110.029 129.817C110.104 129.839 108.188 137.029 105.745 145.874C103.307 154.725 101.269 161.878 101.194 161.857C101.12 161.835 103.036 154.65 105.479 145.8C107.916 136.954 109.955 129.796 110.029 129.817Z" fill="#263238"/>
<path d="M125.309 145.358C124.852 146.3 125.15 147.386 125.975 147.785C126.794 148.184 127.832 147.742 128.29 146.795C128.748 145.853 128.45 144.767 127.625 144.368C126.805 143.969 125.767 144.411 125.309 145.358Z" fill="white"/>
<path d="M99.0076 161.857H72.5566C72.5566 160.606 73.5678 159.595 74.8185 159.595H99.9869L99.0076 161.857Z" fill="#E0E0E0"/>
<path d="M38.3672 140.547C38.3672 140.547 38.3779 140.632 38.3832 140.797C38.3832 140.973 38.3939 141.218 38.3992 141.526C38.3939 141.846 38.4364 142.239 38.479 142.702C38.5056 143.171 38.6121 143.698 38.7079 144.288C38.9474 145.47 39.3465 146.896 40.0384 148.461C40.725 150.015 41.6936 151.729 43.0561 153.368L42.9922 153.336C46.9625 153.937 51.7152 154.661 56.9309 155.454L56.7978 155.518C58.5488 152.548 60.4435 149.334 62.4073 146.007C62.9396 145.103 63.4718 144.203 63.9933 143.32L64.0412 143.511C61.3482 141.947 58.7564 140.44 56.3295 139.025L56.255 138.982V138.897C56.9681 131.063 57.5802 124.325 58.0113 119.53C58.2348 117.151 58.4157 115.256 58.5382 113.936C58.602 113.298 58.6552 112.797 58.6925 112.446C58.7085 112.286 58.7244 112.159 58.7351 112.063C58.7457 111.978 58.7564 111.935 58.7564 111.935C58.7564 111.935 58.7564 111.978 58.7564 112.068C58.751 112.169 58.7457 112.292 58.7351 112.457C58.7085 112.813 58.6712 113.314 58.6233 113.952C58.5169 115.272 58.3625 117.172 58.1709 119.551C57.7611 124.352 57.1863 131.09 56.5211 138.929L56.4572 138.801C58.8894 140.212 61.4813 141.718 64.1743 143.277L64.2967 143.346L64.2275 143.469C63.7059 144.358 63.1737 145.252 62.6415 146.156C60.6777 149.483 58.7776 152.692 57.0213 155.662L56.9734 155.742L56.883 155.726C51.6726 154.911 46.9252 154.172 42.9549 153.554H42.9124L42.8911 153.522C40.1555 150.143 39.0219 146.699 38.5855 144.326C38.495 143.724 38.3992 143.192 38.3832 142.724C38.3513 142.255 38.314 141.861 38.33 141.542C38.3353 141.233 38.3406 140.994 38.346 140.813C38.346 140.648 38.3566 140.563 38.3619 140.563L38.3672 140.547Z" fill="#263238"/>
<path d="M18.5693 150.153C18.5693 150.153 65.3137 156.072 66.9848 157.711C68.4484 159.153 70.3218 197.116 70.7369 196.935L27.1114 195.28L18.5693 150.153Z" fill="#455A64"/>
<path d="M57.1336 205.743C57.0591 205.748 56.0851 194.801 54.9622 181.288C53.8392 167.77 52.9876 156.811 53.0622 156.806C53.1367 156.801 54.1106 167.748 55.2336 181.266C56.3566 194.779 57.2081 205.738 57.1336 205.748V205.743Z" fill="#263238"/>
<path d="M9.37793 101.099C9.37793 101.099 9.39922 101.158 9.43115 101.28C9.46308 101.413 9.50566 101.594 9.5642 101.818C9.67597 102.307 9.83563 103.005 10.0379 103.893C10.4424 105.719 11.0225 108.327 11.7356 111.547C13.146 118.029 15.0939 126.954 17.2387 136.816C17.7709 139.286 18.2925 141.696 18.7928 144.022C19.0429 145.188 19.2877 146.332 19.5325 147.45C19.5911 147.732 19.655 148.009 19.7135 148.285C19.7774 148.567 19.8199 148.839 19.9264 149.078C20.1286 149.573 20.4959 149.983 20.9429 150.249C21.1664 150.382 21.4113 150.478 21.6614 150.537C21.9062 150.59 22.183 150.616 22.4438 150.654C22.9706 150.723 23.4922 150.792 24.0085 150.861C25.0356 150.994 26.0362 151.127 26.9995 151.255C28.9261 151.511 30.725 151.75 32.3642 151.963C35.632 152.405 38.2824 152.761 40.1345 153.011C41.0393 153.139 41.7471 153.24 42.2474 153.309C42.4762 153.347 42.6572 153.373 42.7956 153.395C42.918 153.416 42.9818 153.426 42.9818 153.432C42.9818 153.432 42.918 153.432 42.7902 153.421C42.6519 153.405 42.4709 153.389 42.2367 153.363C41.7365 153.304 41.0233 153.219 40.1185 153.118C38.2664 152.889 35.6107 152.564 32.3376 152.16C30.693 151.952 28.8942 151.729 26.9676 151.484C26.0043 151.361 25.0037 151.234 23.9765 151.106C23.4603 151.042 22.9387 150.973 22.4118 150.909C22.1457 150.872 21.8849 150.851 21.6029 150.792C21.3261 150.728 21.06 150.627 20.8099 150.478C20.3149 150.191 19.9051 149.733 19.6816 149.19C19.5645 148.913 19.5166 148.626 19.458 148.354C19.3995 148.078 19.3356 147.801 19.2771 147.519C19.0323 146.401 18.7874 145.257 18.532 144.091C18.0264 141.766 17.5048 139.355 16.9726 136.885C14.8544 127.018 12.9384 118.082 11.5494 111.594C10.8681 108.369 10.3199 105.751 9.93675 103.925C9.7558 103.031 9.6121 102.329 9.51098 101.834C9.46841 101.605 9.43115 101.424 9.40986 101.291C9.38857 101.168 9.37793 101.105 9.38325 101.105L9.37793 101.099Z" fill="#263238"/>
<path d="M67.6873 160.728C67.7618 160.723 68.6559 170.819 69.6778 183.283C70.6996 195.748 71.4714 205.855 71.3915 205.86C71.317 205.865 70.4229 195.769 69.401 183.305C68.3792 170.846 67.6075 160.734 67.6873 160.728Z" fill="#263238"/>
<path d="M230.107 15.5885H121.706V110.509H230.107V15.5885Z" fill="white"/>
<path d="M230.108 59.1448H121.973V110.514H230.108V59.1448Z" fill="#E6B0D9" fill-opacity="0.5"/>
<path d="M210.006 47.1913C210.006 47.2658 195.173 47.3297 176.876 47.3297C158.578 47.3297 143.74 47.2658 143.74 47.1913C143.74 47.1168 158.573 47.0529 176.876 47.0529C195.179 47.0529 210.006 47.1168 210.006 47.1913Z" fill="#263238"/>
<path d="M229.48 25.8602C229.48 25.9347 205.471 25.9986 175.859 25.9986C146.247 25.9986 122.233 25.9347 122.233 25.8602C122.233 25.7857 146.236 25.7219 175.859 25.7219C205.482 25.7219 229.48 25.7857 229.48 25.8602Z" fill="#263238"/>
<path d="M127.576 22.1773C128.484 22.1773 129.221 21.441 129.221 20.5328C129.221 19.6245 128.484 18.8882 127.576 18.8882C126.668 18.8882 125.932 19.6245 125.932 20.5328C125.932 21.441 126.668 22.1773 127.576 22.1773Z" fill="#58126A"/>
<path d="M133.079 22.1773C133.987 22.1773 134.724 21.441 134.724 20.5328C134.724 19.6245 133.987 18.8882 133.079 18.8882C132.171 18.8882 131.435 19.6245 131.435 20.5328C131.435 21.441 132.171 22.1773 133.079 22.1773Z" fill="#58126A"/>
<path d="M140.228 20.5328C140.228 21.4429 139.493 22.1773 138.583 22.1773C137.673 22.1773 136.938 21.4429 136.938 20.5328C136.938 19.6227 137.673 18.8882 138.583 18.8882C139.493 18.8882 140.228 19.6227 140.228 20.5328Z" fill="#58126A"/>
<path d="M142.299 49.9565C143.989 48.2668 143.989 45.5272 142.299 43.8374C140.609 42.1477 137.869 42.1477 136.18 43.8374C134.49 45.5272 134.49 48.2668 136.18 49.9565C137.869 51.6463 140.609 51.6463 142.299 49.9565Z" fill="#58126A"/>
<path d="M139.966 44.7272V48.9157H138.998V45.5042H138.162V44.7272H139.972H139.966Z" fill="white"/>
<path d="M182.815 47.0423C182.778 47.0423 182.815 46.4782 182.565 45.5202C182.32 44.5782 181.687 43.1891 180.266 42.114C179.564 41.5925 178.675 41.1454 177.658 40.9698C176.647 40.7995 175.503 40.8314 174.417 41.2465C173.869 41.4381 173.342 41.7255 172.858 42.0874C172.368 42.444 171.921 42.8857 171.554 43.3967C170.798 44.4079 170.367 45.7011 170.356 47.037C170.367 48.3728 170.793 49.6715 171.554 50.6773C171.921 51.1883 172.363 51.63 172.858 51.9866C173.342 52.3485 173.869 52.6359 174.417 52.8275C175.503 53.2426 176.647 53.2745 177.658 53.1042C178.68 52.9286 179.564 52.4815 180.266 51.96C181.687 50.8902 182.32 49.5011 182.565 48.5538C182.81 47.5905 182.778 47.0264 182.815 47.0317C182.826 47.0317 182.826 47.17 182.821 47.4362C182.821 47.5692 182.821 47.7342 182.783 47.9258C182.757 48.1174 182.736 48.3409 182.666 48.5857C182.448 49.5544 181.831 50.9913 180.383 52.1196C179.665 52.6678 178.755 53.1415 177.696 53.3331C176.647 53.5193 175.46 53.4927 174.321 53.067C173.752 52.87 173.198 52.572 172.693 52.1995C172.182 51.8322 171.713 51.3692 171.33 50.837C170.537 49.7832 170.085 48.4314 170.074 47.0317C170.085 45.6373 170.537 44.2801 171.33 43.2317C171.713 42.6995 172.182 42.2364 172.693 41.8692C173.198 41.4913 173.752 41.1933 174.321 41.0017C175.455 40.5759 176.642 40.5493 177.696 40.7356C178.755 40.9325 179.665 41.4009 180.383 41.949C181.831 43.0773 182.448 44.5143 182.666 45.4829C182.736 45.7278 182.757 45.9513 182.783 46.1429C182.815 46.3345 182.821 46.4995 182.821 46.6325C182.821 46.8986 182.821 47.037 182.815 47.037V47.0423Z" fill="#58126A"/>
<path d="M218.649 46.8987C218.617 46.8987 218.639 46.5155 218.463 45.8555C218.293 45.2115 217.856 44.2642 216.882 43.5351C216.403 43.1785 215.796 42.8804 215.099 42.758C214.407 42.6409 213.63 42.6676 212.891 42.9496C212.151 43.2157 211.448 43.7213 210.948 44.4185C210.432 45.1051 210.144 45.9886 210.134 46.8933C210.144 47.8034 210.432 48.6816 210.948 49.3681C211.448 50.0653 212.156 50.5709 212.891 50.837C213.63 51.1191 214.407 51.1457 215.099 51.0286C215.796 50.9115 216.398 50.6082 216.882 50.2516C217.856 49.5225 218.293 48.5804 218.463 47.9311C218.639 47.2712 218.617 46.888 218.649 46.888C218.66 46.888 218.665 46.9838 218.665 47.1648C218.665 47.3457 218.644 47.6171 218.569 47.9578C218.426 48.6283 218.005 49.6236 217.005 50.4059C216.51 50.7891 215.876 51.1138 215.147 51.2521C214.418 51.3852 213.598 51.3692 212.811 51.0712C212.023 50.7944 211.273 50.2622 210.735 49.5225C210.182 48.7933 209.873 47.8513 209.862 46.8827C209.873 45.9141 210.182 44.972 210.735 44.2429C211.273 43.5031 212.023 42.9762 212.811 42.6995C213.598 42.4068 214.423 42.3908 215.147 42.5185C215.876 42.6569 216.51 42.9816 217.005 43.3648C218.005 44.1471 218.426 45.1423 218.569 45.8129C218.644 46.1536 218.67 46.425 218.665 46.6059C218.665 46.7869 218.665 46.8827 218.649 46.8827V46.8987Z" fill="#263238"/>
<path d="M185.008 46.7177H142.974V47.4788H185.008V46.7177Z" fill="#58126A"/>
<path d="M180.779 47.5897C181.163 45.231 179.562 43.0079 177.203 42.6241C174.845 42.2404 172.621 43.8414 172.238 46.2001C171.854 48.5588 173.455 50.7819 175.814 51.1656C178.172 51.5493 180.396 49.9483 180.779 47.5897Z" fill="#58126A"/>
<path d="M178.147 48.128V48.9157H174.981V48.2877L176.599 46.7602C176.971 46.409 177.035 46.1908 177.035 45.9885C177.035 45.6586 176.806 45.467 176.364 45.467C176.008 45.467 175.699 45.6053 175.497 45.8874L174.789 45.435C175.114 44.9614 175.699 44.658 176.455 44.658C177.386 44.658 178.009 45.137 178.009 45.898C178.009 46.3025 177.897 46.6751 177.306 47.2233L176.343 48.1333H178.142L178.147 48.128Z" fill="white"/>
<path d="M215.966 47.6384C215.966 48.3463 215.424 48.9902 214.231 48.9902C213.646 48.9902 213.039 48.8306 212.635 48.5432L213.013 47.8034C213.332 48.0429 213.774 48.1813 214.21 48.1813C214.694 48.1813 214.992 47.9843 214.992 47.6437C214.992 47.3244 214.758 47.1275 214.21 47.1275H213.768V46.4888L214.631 45.5149H212.848V44.7379H215.78V45.3659L214.833 46.4409C215.589 46.5633 215.972 47.0264 215.972 47.6437L215.966 47.6384Z" fill="#263238"/>
<path d="M202.677 33.2793C202.677 33.3538 192.15 33.4177 179.169 33.4177C166.189 33.4177 155.656 33.3538 155.656 33.2793C155.656 33.2048 166.178 33.1409 179.169 33.1409C192.161 33.1409 202.677 33.2048 202.677 33.2793Z" fill="#263238"/>
<path d="M173.624 59.7622L176.876 55.3502L180.122 59.7622H173.624Z" fill="#EBEBEB"/>
<path d="M230.102 110.514C230.102 109.53 230.054 72.7057 229.985 15.5938L230.102 15.7109C198.936 15.7163 161.67 15.7269 121.712 15.7322H121.701L121.839 15.5938C121.834 50.0813 121.829 82.5623 121.823 110.514L121.701 110.392C186.365 110.466 229.038 110.514 230.102 110.514C229.043 110.514 186.365 110.562 121.701 110.637H121.578V110.514C121.578 82.5623 121.568 50.0813 121.562 15.5938V15.4555H121.712C161.67 15.4608 198.936 15.4714 230.102 15.4768H230.219V15.5938C230.15 72.7057 230.102 109.53 230.102 110.514Z" fill="#263238"/>
<path d="M148.722 70.2362C148.722 70.3107 145.416 70.3745 141.334 70.3745C137.252 70.3745 133.947 70.3107 133.947 70.2362C133.947 70.1616 137.252 70.0978 141.334 70.0978C145.416 70.0978 148.722 70.1616 148.722 70.2362Z" fill="#58126A"/>
<path d="M163.89 82.163H135.97C133.878 82.163 132.186 80.4706 132.186 78.379C132.186 76.2874 133.878 74.5949 135.97 74.5949H163.89C165.981 74.5949 167.674 76.2874 167.674 78.379C167.674 80.4706 165.981 82.163 163.89 82.163Z" fill="#FAFAFA"/>
<path d="M200.389 70.2362C200.389 70.3107 197.254 70.3745 193.39 70.3745C189.526 70.3745 186.392 70.3107 186.392 70.2362C186.392 70.1616 189.526 70.0978 193.39 70.0978C197.254 70.0978 200.389 70.1616 200.389 70.2362Z" fill="#58126A"/>
<path d="M148.333 90.8701C148.333 90.9446 145.198 91.0085 141.335 91.0085C137.471 91.0085 134.336 90.9446 134.336 90.8701C134.336 90.7956 137.471 90.7318 141.335 90.7318C145.198 90.7318 148.333 90.7956 148.333 90.8701Z" fill="#58126A"/>
<path d="M214.599 82.163H186.679C184.587 82.163 182.895 80.4706 182.895 78.379C182.895 76.2874 184.587 74.5949 186.679 74.5949H214.599C216.69 74.5949 218.383 76.2874 218.383 78.379C218.383 80.4706 216.69 82.163 214.599 82.163Z" fill="#FAFAFA"/>
<path d="M215.631 103.111H136.172C134.08 103.111 132.388 101.419 132.388 99.327C132.388 97.2354 134.08 95.543 136.172 95.543H215.631C217.723 95.543 219.415 97.2354 219.415 99.327C219.415 101.419 217.723 103.111 215.631 103.111Z" fill="#FAFAFA"/>
<path d="M235.042 22.242C238.114 19.1701 238.114 14.1895 235.042 11.1176C231.97 8.04573 226.99 8.04573 223.918 11.1176C220.846 14.1895 220.846 19.1701 223.918 22.242C226.99 25.3139 231.97 25.3139 235.042 22.242Z" fill="#58126A"/>
<path d="M232.715 14.4893L231.601 13.3754L226.603 18.373L227.717 19.487L232.715 14.4893Z" fill="white"/>
<path d="M227.731 13.3702L226.617 14.4841L231.615 19.4818L232.729 18.3679L227.731 13.3702Z" fill="white"/>
</g>
<defs>
<clipPath id="clip0_147_452">
<rect width="243.317" height="240.39" fill="white"/>
</clipPath>
</defs>
</svg>
