<svg width="446" height="164" viewBox="0 0 446 164" fill="none" xmlns="http://www.w3.org/2000/svg">
<path d="M5.47974 133.411C5.47974 133.411 15.154 139.907 16.0014 140.119C16.8488 140.331 27.441 140.119 27.441 140.119V137.083L119.594 132.352L394.64 128.891C394.64 128.891 395.064 113.144 387.72 100.645C380.376 88.1465 367.029 78.684 352.412 77.4129C337.795 76.1419 319.858 80.6612 311.032 88.4289C302.205 96.1966 294.013 126.561 294.013 126.561L124.961 128.75C124.961 128.75 120.441 104.388 104.482 91.2535C88.5232 78.1191 66.1382 75.0827 46.2953 81.1556C26.4524 87.1579 20.662 125.926 20.662 125.926L5.47974 133.411Z" fill="#1A2131" stroke="#1A2131" stroke-width="0.706152" stroke-miterlimit="10"/>
<path d="M440.893 89.8416C437.927 83.9805 437.362 73.3882 437.362 69.2925C437.362 65.1969 437.927 59.6183 437.927 59.6183C437.927 59.6183 440.893 55.5226 437.927 49.944C434.961 44.3654 432.066 43.8005 432.066 43.8005L407.986 18.2378C407.986 18.2378 415.33 13.8596 414.765 12.6592C414.2 11.4587 412.153 11.4587 412.153 11.4587L376.916 9.41087C376.916 9.41087 322.895 7.36303 294.084 6.79811C265.344 6.23319 208.64 5.59766 208.64 5.59766C208.64 5.59766 202.214 5.88011 197.2 7.64549C192.186 9.41087 119.665 48.7435 115.286 50.2264C110.908 51.7094 53.0038 54.0397 40.7168 56.0875C28.3591 58.1353 16.0721 63.149 13.1063 66.6798C10.1404 70.2105 2.51399 97.1855 1.94907 101.069C1.38414 104.883 0.74861 128.115 1.10169 130.445C1.38415 132.776 4.06752 133.976 4.06752 133.976H25.817C25.817 133.976 26.0995 132.423 26.735 129.951C26.6644 129.174 26.6644 128.397 26.6644 127.691C26.6644 102.623 46.9309 82.3563 71.9993 82.3563C97.0677 82.3563 117.334 102.623 117.334 127.691C117.334 130.022 117.193 132.211 116.84 134.47C116.84 134.541 116.84 134.612 116.84 134.612H299.451C299.451 134.612 299.804 131.928 300.792 127.762V127.691C300.792 102.482 321.2 82.0739 346.41 82.0739C371.619 82.0739 392.027 102.482 392.027 127.691C392.027 128.609 391.957 129.527 391.957 130.445C396.547 130.375 417.237 129.88 428.888 125.149C442.093 119.853 445.059 115.757 445.059 107.566C445.059 99.3746 443.788 95.7026 440.893 89.8416Z" fill="#35837F" stroke="#1A2131" stroke-width="0.706152" stroke-miterlimit="10"/>
<path opacity="0.24" d="M93.6074 71.2696C93.6074 71.2696 202.425 66.3971 262.731 62.4427C323.036 58.4882 344.574 57.0759 344.574 57.0759L105.824 74.2354L93.6074 71.2696Z" fill="#1A2131"/>
<path d="M444.989 106.154C444.989 106.012 444.989 105.871 444.989 105.73C444.989 105.589 444.989 105.447 444.989 105.306C444.989 105.165 444.989 105.024 444.989 104.883C444.989 104.671 444.989 104.459 444.989 104.247C444.989 104.035 444.989 103.823 444.989 103.682C444.989 103.611 444.989 103.611 444.989 103.541C444.989 103.329 444.989 103.117 444.918 102.835C444.918 102.764 444.918 102.623 444.918 102.552C444.847 101.776 444.777 100.999 444.636 100.293C440.187 101.564 428.253 104.247 426.205 104.247C423.804 104.247 415.683 110.037 414.554 110.744C413.636 111.309 402.408 112.015 399.512 112.227C396.194 100.787 389.344 90.9008 380.235 83.7686C378.61 82.4269 376.916 81.1559 375.15 80.1673C374.515 79.8142 373.738 79.3905 372.961 78.9668C365.052 74.6593 356.014 72.1877 346.41 72.1877C319.082 72.1877 296.344 92.0306 291.895 118.158L286.034 118.511C286.034 118.511 277.631 115.687 273.959 114.839C270.287 113.992 159.986 117.876 154.831 117.876C149.676 117.876 132.234 122.395 132.234 122.395L124.255 121.971C121.501 95.5614 99.1155 74.9417 71.9287 74.9417C46.0835 74.9417 24.6165 93.5841 20.1678 118.158C18.9673 121.971 18.473 124.514 18.473 124.514H5.26798L1.24292 112.297C1.24292 112.438 1.24292 112.65 1.24292 112.791C1.24292 112.933 1.24292 113.074 1.24292 113.286C1.24292 113.498 1.24292 113.78 1.24292 113.992C1.24292 114.204 1.24292 114.416 1.24292 114.557C1.24292 114.698 1.24292 114.91 1.24292 115.051C1.24292 115.263 1.24292 115.545 1.24292 115.757C1.24292 115.969 1.24292 116.181 1.24292 116.393C1.24292 116.534 1.24292 116.746 1.24292 116.887C1.24292 117.099 1.24292 117.311 1.24292 117.523C1.24292 117.593 1.24292 117.664 1.24292 117.735C1.24292 117.876 1.24292 118.088 1.24292 118.229C1.24292 118.37 1.24292 118.511 1.24292 118.653C1.24292 118.935 1.24292 119.217 1.24292 119.5C1.24292 119.641 1.24292 119.712 1.24292 119.853C1.24292 120.065 1.24292 120.277 1.24292 120.418C1.24292 120.489 1.24292 120.489 1.24292 120.559C1.24292 120.7 1.24292 120.842 1.24292 120.983C1.24292 121.265 1.24292 121.477 1.24292 121.76C1.24292 121.901 1.24292 121.971 1.24292 122.113C1.24292 122.395 1.24292 122.678 1.24292 122.96C1.24292 123.031 1.24292 123.172 1.24292 123.243C1.24292 123.525 1.24292 123.737 1.24292 124.019C1.24292 124.09 1.24292 124.161 1.24292 124.231C1.24292 124.514 1.24292 124.725 1.24292 125.008C1.24292 125.079 1.24292 125.149 1.24292 125.22C1.24292 125.361 1.24292 125.432 1.24292 125.573C1.24292 125.714 1.24292 125.855 1.24292 125.997C1.24292 126.067 1.24292 126.067 1.24292 126.138C1.24292 126.208 1.24292 126.279 1.24292 126.35C1.24292 126.561 1.24292 126.703 1.24292 126.915C1.24292 127.056 1.24292 127.197 1.24292 127.268C1.24292 127.338 1.24292 127.479 1.24292 127.55C1.24292 127.621 1.24292 127.621 1.24292 127.691C1.24292 127.762 1.24292 127.832 1.24292 127.903C1.24292 128.044 1.24292 128.115 1.24292 128.256C1.24292 128.327 1.24292 128.327 1.24292 128.397C1.24292 128.609 1.24292 128.75 1.24292 128.962C1.24292 129.104 1.24292 129.245 1.24292 129.386V129.457C1.24292 129.598 1.24292 129.668 1.24292 129.81C1.24292 129.81 1.24292 129.81 1.24292 129.88C1.24292 129.951 1.24292 130.092 1.24292 130.163C1.52538 132.493 4.20876 133.694 4.20876 133.694H19.8853H25.8876C25.8876 133.694 26.1701 132.14 26.8056 129.668C26.735 128.892 26.735 128.115 26.735 127.409C26.735 102.34 47.0015 82.0739 72.0699 82.0739C97.1383 82.0739 117.405 102.34 117.405 127.409C117.405 129.739 117.264 131.928 116.911 134.188C116.911 134.258 116.911 134.329 116.911 134.329H124.184H291.683H299.592C299.592 134.329 299.945 131.646 300.934 127.479V127.409C300.934 102.199 321.341 81.7914 346.551 81.7914C371.761 81.7914 392.169 102.199 392.169 127.409C392.169 128.327 392.098 129.245 392.098 130.163C393.722 130.163 397.323 130.092 401.772 129.739C402.266 129.739 402.761 129.668 403.255 129.668C403.326 129.668 403.396 129.668 403.396 129.668C404.456 129.598 405.515 129.527 406.645 129.386C406.645 129.386 406.645 129.386 406.715 129.386C407.21 129.315 407.774 129.315 408.269 129.245C408.41 129.245 408.481 129.245 408.622 129.174C409.046 129.104 409.54 129.104 409.964 129.033C410.105 129.033 410.175 129.033 410.317 128.962C411.446 128.821 412.576 128.68 413.635 128.539C413.777 128.539 413.918 128.468 414.059 128.468C414.483 128.397 414.907 128.327 415.33 128.256C415.471 128.256 415.683 128.186 415.825 128.186C416.319 128.115 416.743 128.044 417.237 127.974C417.307 127.974 417.378 127.974 417.449 127.903C418.014 127.832 418.508 127.691 419.073 127.621C419.214 127.621 419.355 127.55 419.497 127.55C419.92 127.479 420.273 127.409 420.697 127.338C420.838 127.268 421.05 127.268 421.191 127.197C421.615 127.126 421.968 126.985 422.321 126.915C422.462 126.915 422.604 126.844 422.745 126.844C423.239 126.703 423.733 126.561 424.228 126.42C424.298 126.42 424.44 126.35 424.51 126.35C424.934 126.208 425.287 126.138 425.711 125.997C425.852 125.926 425.993 125.926 426.205 125.855C426.558 125.714 426.911 125.643 427.194 125.502C427.335 125.432 427.476 125.432 427.617 125.361C428.041 125.22 428.535 125.008 428.959 124.867C442.164 119.571 445.13 115.475 445.13 107.283C444.989 107.001 444.989 106.577 444.989 106.154Z" fill="#1D3058" stroke="#1A2131" stroke-width="0.706152" stroke-miterlimit="10"/>
<path d="M185.69 13.7887H184.842C162.669 25.3696 118.676 49.0963 115.216 50.2261C114.439 50.5086 111.897 50.7911 108.296 51.0735C113.168 54.3924 122.701 56.0872 126.656 56.0872C130.751 56.0872 316.893 48.1783 316.893 48.1783C316.893 48.1783 323.036 43.4471 323.036 42.0348C323.036 40.6225 298.957 13.8593 298.957 13.8593H185.69V13.7887Z" fill="#1A2131" stroke="#1A2131" stroke-width="0.706152" stroke-miterlimit="10"/>
<path d="M183.148 14.6363C160.48 26.4996 118.535 49.0965 115.216 50.1557C114.439 50.4382 111.897 50.7206 108.296 51.0031C111.05 52.9097 115.357 54.2514 119.241 55.0988L185.69 13.7183L183.148 14.6363Z" fill="#1D3058" stroke="#1A2131" stroke-width="0.706152" stroke-miterlimit="10"/>
<path d="M197.129 16.684C197.129 16.684 149.252 45.1419 147.204 46.9073C145.157 48.6726 146.004 50.438 147.769 51.0029C149.535 51.5679 224.387 49.2375 224.387 49.2375L229.4 16.9664L197.129 16.684Z" fill="white" stroke="#1A2131" stroke-width="0.706152" stroke-miterlimit="10"/>
<path d="M244.159 17.602L243.241 47.8252L305.806 46.3423L310.184 35.1851L296.414 16.684L244.159 17.602Z" fill="white" stroke="#1A2131" stroke-width="0.706152" stroke-miterlimit="10"/>
<path d="M158.15 39.7043C158.15 39.7043 157.232 40.2692 153.207 41.3284C149.182 42.4583 144.027 44.6473 143.533 47.1895C143.038 49.7316 143.18 53.2624 145.722 53.6155C148.264 53.9686 161.257 54.8865 165.141 53.0505C168.954 51.2146 168.46 47.5426 167.895 44.4355C167.33 41.3284 165.494 40.4104 163.305 39.8455C161.116 39.2806 158.15 39.7043 158.15 39.7043Z" fill="#1D3058" stroke="#1A2131" stroke-width="0.706152" stroke-miterlimit="10"/>
<path d="M208.993 62.7956C213.79 62.7956 217.678 61.7207 217.678 60.3947C217.678 59.0687 213.79 57.9938 208.993 57.9938C204.196 57.9938 200.307 59.0687 200.307 60.3947C200.307 61.7207 204.196 62.7956 208.993 62.7956Z" stroke="#1A2131" stroke-width="0.706152" stroke-miterlimit="10"/>
<path d="M312.797 58.9828C317.594 58.9828 321.483 57.9078 321.483 56.5818C321.483 55.2558 317.594 54.1809 312.797 54.1809C308 54.1809 304.111 55.2558 304.111 56.5818C304.111 57.9078 308 58.9828 312.797 58.9828Z" stroke="#1A2131" stroke-width="0.706152" stroke-miterlimit="10"/>
<path d="M329.321 36.3855C333.629 41.1873 336.877 45.283 337.018 46.8365C337.442 51.7796 333.346 73.1054 333.346 73.1054" stroke="#1A2131" stroke-width="0.706152" stroke-miterlimit="10"/>
<path d="M305.736 12.3766C305.736 12.3766 316.822 23.0395 325.79 32.5725" stroke="#1A2131" stroke-width="0.706152" stroke-miterlimit="10"/>
<path d="M396.335 78.9667C402.973 74.2355 414.695 65.1261 414.695 65.1261" stroke="#1A2131" stroke-width="0.706152" stroke-miterlimit="10"/>
<path d="M382 82.9916C382 82.9916 390.403 82.1442 392.098 81.7205C392.38 81.6499 393.298 81.085 394.64 80.167" stroke="#1A2131" stroke-width="0.706152" stroke-miterlimit="10"/>
<path d="M231.378 109.048L230.954 129.95" stroke="#1A2131" stroke-width="0.706152" stroke-miterlimit="10"/>
<path d="M232.296 63.2898L231.448 105.871" stroke="#1A2131" stroke-width="0.706152" stroke-miterlimit="10"/>
<path d="M232.507 53.6868L232.366 60.3246" stroke="#1A2131" stroke-width="0.706152" stroke-miterlimit="10"/>
<path d="M291.047 120.488L133.011 125.007" stroke="#1A2131" stroke-width="0.706152" stroke-miterlimit="10"/>
<path d="M125.596 72.1877C126.726 88.288 130.186 132.352 130.186 132.352" stroke="#1A2131" stroke-width="0.706152" stroke-miterlimit="10"/>
<path d="M126.938 57.7821C126.938 57.7821 125.243 64.4906 125.243 66.3972C125.243 66.609 125.314 67.4564 125.384 68.9393" stroke="#1A2131" stroke-width="0.706152" stroke-miterlimit="10"/>
<path d="M12.753 67.0333C10.4933 70.4934 5.90336 85.3226 3.50244 94.3613C5.83274 90.4069 10.7052 82.3568 13.4592 80.4502C17.1312 77.8374 44.6711 72.8944 47.072 72.047C49.4729 71.1996 53.7804 66.2565 54.416 64.2793C54.9103 62.5845 22.2861 65.9741 12.753 67.0333Z" fill="#1A2131" stroke="#1A2131" stroke-width="0.706152" stroke-miterlimit="10"/>
<path d="M54.3453 64.2787C54.9103 62.6546 22.2861 65.9735 12.753 67.0327C12.753 67.0327 9.08102 78.0487 13.3885 80.4496C17.0605 77.8368 44.6004 72.8938 47.0014 72.0464C49.4023 71.1284 53.7098 66.1853 54.3453 64.2787Z" fill="white" stroke="#1A2131" stroke-width="0.706152" stroke-miterlimit="10"/>
<path d="M11.9059 93.7958L12.5414 109.755H9.50495C9.50495 109.755 1.10175 94.7138 3.43205 94.3607C5.90358 94.0076 11.9059 93.7958 11.9059 93.7958Z" fill="#1A2131" stroke="#1A2131" stroke-width="0.706152" stroke-miterlimit="10"/>
<path d="M324.025 16.4722C324.025 16.4722 367.524 45.9893 369.713 45.9893C371.902 45.9893 432.066 43.7296 432.066 43.7296L407.986 18.1669L324.025 16.4722Z" fill="#1A2131" stroke="#1A2131" stroke-width="0.706152" stroke-miterlimit="10"/>
<path d="M339.56 21.4155C339.56 21.4155 365.617 42.1058 370.136 42.7413C374.656 43.3769 400.925 41.8939 400.925 41.8939C400.925 41.8939 385.177 23.1809 383.271 22.7572C381.364 22.2629 339.56 21.4155 339.56 21.4155Z" fill="white" stroke="#1A2131" stroke-width="0.706152" stroke-miterlimit="10"/>
<path d="M433.69 52.2036C433.69 52.2036 400.289 53.2628 400.289 54.1102C400.289 54.9576 403.749 59.2651 406.08 60.3244C408.48 61.3836 412.082 60.9599 412.788 61.5954C413.423 62.231 422.674 71.9052 424.439 73.2469C426.134 74.518 431.36 76.4952 432.207 76.4952C432.137 76.5658 434.114 53.2628 433.69 52.2036Z" fill="#D62E27" stroke="#1A2131" stroke-width="0.706152" stroke-miterlimit="10"/>
<path d="M71.8581 163.14C91.514 163.14 107.448 147.206 107.448 127.55C107.448 107.894 91.514 91.9598 71.8581 91.9598C52.2023 91.9598 36.2681 107.894 36.2681 127.55C36.2681 147.206 52.2023 163.14 71.8581 163.14Z" fill="#1A2131" stroke="#1A2131" stroke-width="0.706152" stroke-miterlimit="10"/>
<path d="M71.8581 101.21C57.3114 101.21 45.448 113.003 45.448 127.62C45.448 142.167 57.2407 154.03 71.8581 154.03C86.4048 154.03 98.2681 142.238 98.2681 127.62C98.1975 113.003 86.4048 101.21 71.8581 101.21ZM93.1839 120.206L75.7419 125.007L85.275 109.401C88.8763 112.085 91.7009 115.827 93.1839 120.206ZM69.1747 150.005C64.5141 149.44 60.3478 147.534 56.9583 144.568L69.669 131.998L69.1747 150.005ZM73.9059 132.069L87.7465 143.579C84.5688 146.686 80.4731 148.946 75.9537 149.793L73.9059 132.069ZM77.6485 105.729L71.8581 122.112L65.7852 105.8C67.6918 105.306 69.7396 104.953 71.7875 104.953C73.8353 104.953 75.8125 105.235 77.6485 105.729ZM58.3 109.543L67.5505 124.231L50.956 118.864C52.5801 115.121 55.0517 111.944 58.3 109.543ZM49.2612 127.126L66.6325 128.962L52.5801 139.342C50.4617 135.882 49.2612 131.857 49.2612 127.55C49.2612 127.408 49.2612 127.267 49.2612 127.126ZM91.7716 138.142L77.0836 129.032L94.3843 126.843C94.3843 127.055 94.3843 127.338 94.3843 127.55C94.4549 131.363 93.4663 134.964 91.7716 138.142Z" fill="white" stroke="#1A2131" stroke-width="0.706152" stroke-miterlimit="10"/>
<path d="M71.8581 134.541C75.7191 134.541 78.849 131.411 78.849 127.55C78.849 123.689 75.7191 120.559 71.8581 120.559C67.9971 120.559 64.8672 123.689 64.8672 127.55C64.8672 131.411 67.9971 134.541 71.8581 134.541Z" fill="white" stroke="#1A2131" stroke-width="0.706152" stroke-miterlimit="10"/>
<path d="M346.339 163.14C365.995 163.14 381.929 147.206 381.929 127.55C381.929 107.894 365.995 91.9598 346.339 91.9598C326.683 91.9598 310.749 107.894 310.749 127.55C310.749 147.206 326.683 163.14 346.339 163.14Z" fill="#1A2131" stroke="#1A2131" stroke-width="0.706152" stroke-miterlimit="10"/>
<path d="M346.339 101.21C331.793 101.21 319.929 113.003 319.929 127.62C319.929 142.167 331.722 154.03 346.339 154.03C360.886 154.03 372.749 142.238 372.749 127.62C372.679 113.003 360.886 101.21 346.339 101.21ZM367.665 120.206L350.223 125.007L359.756 109.401C363.358 112.085 366.182 115.827 367.665 120.206ZM343.656 150.005C338.995 149.44 334.829 147.534 331.439 144.568L344.15 131.998L343.656 150.005ZM348.387 132.069L362.228 143.579C359.05 146.686 354.954 148.946 350.435 149.793L348.387 132.069ZM352.13 105.729L346.339 122.112L340.266 105.8C342.173 105.306 344.221 104.953 346.269 104.953C348.317 104.953 350.294 105.235 352.13 105.729ZM332.711 109.543L341.961 124.231L325.367 118.864C326.991 115.121 329.533 111.944 332.711 109.543ZM323.742 127.126L341.114 128.962L327.061 139.342C324.943 135.882 323.742 131.857 323.742 127.55C323.742 127.408 323.742 127.267 323.742 127.126ZM366.253 138.142L351.565 129.032L368.866 126.843C368.866 127.055 368.866 127.338 368.866 127.55C368.866 131.363 367.948 134.964 366.253 138.142Z" fill="white" stroke="#1A2131" stroke-width="0.706152" stroke-miterlimit="10"/>
<path d="M346.339 134.541C350.2 134.541 353.33 131.411 353.33 127.55C353.33 123.689 350.2 120.559 346.339 120.559C342.478 120.559 339.348 123.689 339.348 127.55C339.348 131.411 342.478 134.541 346.339 134.541Z" fill="white" stroke="#1A2131" stroke-width="0.706152" stroke-miterlimit="10"/>
<path d="M214.501 5.52681C214.501 5.52681 224.387 2.70221 229.047 1.85483C233.708 0.936829 301.146 0.513137 328.685 1.85483C356.296 3.19651 367.594 5.66805 370.066 6.30358C372.537 6.93912 376.845 9.41065 376.845 9.41065L355.096 8.42204C355.096 8.42204 355.802 6.30358 354.036 6.09174C352.271 5.87989 307.783 4.75004 305.735 4.75004C303.758 4.75004 303.688 6.8685 303.688 6.8685L294.013 6.79789L290.412 4.32636C290.412 4.32636 236.321 3.90267 235.05 4.5382C233.708 5.17374 233.849 5.66804 233.849 5.66804L214.501 5.52681Z" fill="#1A2131" stroke="#1A2131" stroke-width="0.706152" stroke-miterlimit="10"/>
</svg>
