<svg width="60" height="60" viewBox="0 0 60 60" fill="none" xmlns="http://www.w3.org/2000/svg">
<g clip-path="url(#clip0_64_1191)">
<path d="M30.8902 58.25C30.7602 57.2 31.5102 56.23 32.5702 56.11C33.6302 55.98 34.5902 56.73 34.7102 57.79C34.8402 58.84 34.0902 59.81 33.0302 59.93C32.9502 59.93 32.8702 59.94 32.7902 59.94C31.8302 59.94 31.0002 59.22 30.8802 58.25H30.8902ZM18.7002 58.21C17.7002 57.83 17.2002 56.72 17.5802 55.73C17.9502 54.74 19.0602 54.23 20.0602 54.61C21.0502 54.99 21.5602 56.1 21.1802 57.09C20.8802 57.86 20.1502 58.34 19.3802 58.34C19.1602 58.34 18.9202 58.3 18.7002 58.22V58.21ZM43.8502 54.31C43.2502 53.44 43.4602 52.24 44.3402 51.63C45.2102 51.03 46.4102 51.24 47.0202 52.12C47.6302 52.99 47.4102 54.19 46.5402 54.8C46.2002 55.03 45.8202 55.14 45.4402 55.14C44.8302 55.14 44.2302 54.85 43.8502 54.31ZM6.82024 50.02C6.11024 49.22 6.18024 48 6.97024 47.3C7.77024 46.59 8.99024 46.66 9.69024 47.46C10.4002 48.26 10.3302 49.48 9.53024 50.18C9.16024 50.51 8.71024 50.67 8.25024 50.67C7.72024 50.67 7.19024 50.45 6.81024 50.02H6.82024ZM53.5002 44.81C52.5602 44.31 52.2002 43.15 52.6902 42.2C53.1802 41.26 54.3502 40.9 55.2902 41.39C56.2302 41.88 56.5902 43.05 56.1002 43.99C55.7502 44.65 55.0902 45.02 54.3902 45.02C54.0902 45.02 53.7802 44.95 53.5002 44.8V44.81ZM0.0802367 37.25C-0.169763 36.22 0.460237 35.17 1.49024 34.92C2.52024 34.66 3.56024 35.29 3.82024 36.33C4.08024 37.36 3.44024 38.4 2.41024 38.66C2.26024 38.7 2.10024 38.72 1.94024 38.72C1.08024 38.72 0.290237 38.13 0.0702367 37.26L0.0802367 37.25ZM55.6902 29.98V29.93V29.88C55.6902 28.81 56.5402 27.95 57.6102 27.95C58.6802 27.95 59.5402 28.8 59.5402 29.86V29.92V29.98C59.5402 31.05 58.6802 31.91 57.6102 31.91C56.5402 31.91 55.6802 31.05 55.6802 29.98H55.6902ZM1.47024 25.15C0.440237 24.9 -0.199763 23.86 0.0502366 22.83C0.300237 21.8 1.35024 21.16 2.38024 21.41C3.41024 21.66 4.04024 22.71 3.79024 23.74C3.58024 24.62 2.79024 25.21 1.92024 25.21C1.77024 25.21 1.62024 25.19 1.46024 25.15H1.47024ZM52.6302 17.66C52.1402 16.72 52.5002 15.56 53.4302 15.06C54.3702 14.56 55.5402 14.92 56.0302 15.86C56.5302 16.8 56.1702 17.97 55.2302 18.47C54.9402 18.62 54.6302 18.69 54.3302 18.69C53.6402 18.69 52.9702 18.32 52.6202 17.66H52.6302ZM6.91024 12.74C6.11024 12.03 6.04024 10.82 6.74024 10.02C7.44024 9.22002 8.66024 9.15002 9.46024 9.85002C10.2602 10.56 10.3302 11.77 9.63024 12.57C9.24024 13 8.72024 13.22 8.18024 13.22C7.73024 13.22 7.27024 13.06 6.91024 12.74ZM44.2502 8.26002C43.3702 7.66002 43.1502 6.46002 43.7502 5.58002C44.3502 4.71002 45.5502 4.48002 46.4302 5.09002C47.3102 5.69002 47.5302 6.89002 46.9302 7.77002C46.5602 8.32001 45.9502 8.60002 45.3402 8.60002C44.9702 8.60002 44.5902 8.49002 44.2602 8.26002H44.2502ZM17.4802 4.27002C17.1002 3.27002 17.6002 2.16002 18.5902 1.79002C19.5802 1.41002 20.7002 1.91002 21.0802 2.90002C21.4602 3.89002 20.9602 5.01002 19.9702 5.38002C19.7402 5.47002 19.5102 5.51002 19.2802 5.51002C18.5102 5.51002 17.7802 5.04002 17.4802 4.27002ZM32.4602 3.83002C31.4102 3.71002 30.6502 2.75002 30.7702 1.69002C30.8902 0.640015 31.8502 -0.119985 32.9102 1.52811e-05C33.9702 0.120015 34.7202 1.08002 34.6002 2.14002C34.4802 3.12002 33.6602 3.84002 32.6902 3.84002C32.6102 3.84002 32.5402 3.84002 32.4602 3.83002Z" fill="white"/>
<path d="M30.6203 53.1099C30.5103 52.2499 31.1303 51.4599 31.9903 51.3599C32.8503 51.2599 33.6403 51.8699 33.7403 52.7299C33.8403 53.5999 33.2303 54.3799 32.3703 54.4799C32.3103 54.4899 32.2403 54.4899 32.1803 54.4899C31.4003 54.4899 30.7203 53.9099 30.6203 53.0999V53.1099ZM20.6403 53.0799C19.8203 52.7699 19.4103 51.8599 19.7303 51.0499C20.0303 50.2299 20.9403 49.8199 21.7603 50.1299C22.5803 50.4399 22.9903 51.3499 22.6803 52.1599C22.4403 52.7999 21.8403 53.1799 21.2003 53.1799C21.0103 53.1799 20.8303 53.1499 20.6403 53.0799ZM41.2103 49.8999C40.7203 49.1799 40.9003 48.1999 41.6103 47.6999C42.3303 47.2099 43.3003 47.3899 43.8103 48.0999C44.3003 48.8099 44.1203 49.7999 43.4103 50.2999C43.1303 50.4899 42.8203 50.5799 42.5103 50.5799C42.0103 50.5799 41.5203 50.3399 41.2103 49.9099V49.8999ZM10.9103 46.3799C10.3303 45.7299 10.3903 44.7399 11.0403 44.1599C11.6903 43.5799 12.6803 43.6399 13.2603 44.2899C13.8403 44.9399 13.7803 45.9299 13.1303 46.5199C12.8303 46.7799 12.4603 46.9199 12.0803 46.9199C11.6403 46.9199 11.2103 46.7399 10.9003 46.3899L10.9103 46.3799ZM49.1103 42.1199C48.3403 41.7099 48.0403 40.7599 48.4503 39.9899C48.8503 39.2199 49.8003 38.9199 50.5703 39.3299C51.3403 39.7299 51.6403 40.6899 51.2303 41.4499C50.9503 41.9899 50.4003 42.2999 49.8403 42.2999C49.5903 42.2999 49.3403 42.2399 49.1103 42.1199ZM5.41032 35.9399C5.20032 35.0899 5.72033 34.2399 6.56033 34.0299C7.41033 33.8199 8.26033 34.3299 8.47033 35.1799C8.68033 36.0199 8.16033 36.8799 7.31033 37.0899C7.18033 37.1199 7.06032 37.1299 6.93032 37.1299C6.22032 37.1299 5.58033 36.6499 5.40033 35.9399H5.41032ZM50.9103 29.9899V29.9599C50.9103 29.9599 50.9103 29.9199 50.9103 29.8999C50.9103 29.0299 51.6103 28.3199 52.4803 28.3099C53.3503 28.3099 54.0603 29.0099 54.0603 29.8799V29.9299V29.9799C54.0603 30.8499 53.3603 31.5599 52.4903 31.5599C51.6203 31.5599 50.9103 30.8499 50.9103 29.9799V29.9899ZM6.55033 26.0399C5.70033 25.8299 5.18032 24.9799 5.39032 24.1299C5.60032 23.2899 6.45033 22.7699 7.30033 22.9699C8.15033 23.1799 8.66033 24.0299 8.46033 24.8799C8.28033 25.5999 7.64032 26.0799 6.93032 26.0799C6.81032 26.0799 6.68033 26.0699 6.56033 26.0399H6.55033ZM48.4103 19.9199C48.0103 19.1499 48.2903 18.1999 49.0603 17.7899C49.8303 17.3899 50.7803 17.6699 51.1903 18.4399C51.6003 19.2099 51.3103 20.1699 50.5403 20.5699C50.3103 20.6899 50.0503 20.7599 49.8003 20.7599C49.2403 20.7599 48.7003 20.4499 48.4103 19.9199ZM10.9903 15.8799C10.3403 15.3099 10.2803 14.3099 10.8603 13.6599C11.4303 13.0099 12.4303 12.9399 13.0803 13.5199C13.7303 14.0999 13.7903 15.0899 13.2203 15.7499C12.9103 16.0999 12.4703 16.2799 12.0303 16.2799C11.6603 16.2799 11.2903 16.1499 10.9903 15.8799ZM41.5403 12.2199C40.8203 11.7299 40.6403 10.7399 41.1403 10.0199C41.6303 9.29995 42.6103 9.11994 43.3303 9.61994C44.0503 10.1099 44.2303 11.0899 43.7403 11.8099C43.4303 12.2499 42.9403 12.4999 42.4403 12.4999C42.1303 12.4999 41.8203 12.4099 41.5503 12.2199H41.5403ZM19.6403 8.94994C19.3303 8.13994 19.7403 7.22994 20.5503 6.91994C21.3703 6.60994 22.2803 7.01994 22.5803 7.82994C22.8903 8.63994 22.4803 9.54994 21.6803 9.85994C21.4903 9.92994 21.3003 9.95994 21.1103 9.95994C20.4703 9.95994 19.8803 9.56994 19.6403 8.94994ZM31.9003 8.58994C31.0303 8.48994 30.4203 7.70994 30.5103 6.83994C30.6103 5.96994 31.4003 5.35994 32.2603 5.45994C33.1203 5.55994 33.7403 6.34994 33.6403 7.20994C33.5403 8.00994 32.8603 8.59995 32.0703 8.59995C32.0103 8.59995 31.9503 8.59994 31.8903 8.58994H31.9003Z" fill="white"/>
<path d="M30.3798 48.72C30.2998 48.02 30.7898 47.38 31.4898 47.3C32.1898 47.22 32.8298 47.71 32.9198 48.42C32.9998 49.11 32.4998 49.76 31.7998 49.84C31.7498 49.84 31.6998 49.84 31.6498 49.84C31.0098 49.84 30.4598 49.36 30.3898 48.72H30.3798ZM22.2998 48.69C21.6398 48.44 21.3098 47.7 21.5598 47.05C21.8098 46.39 22.5398 46.06 23.1998 46.31C23.8598 46.56 24.1898 47.3 23.9398 47.95C23.7498 48.46 23.2598 48.78 22.7498 48.78C22.5998 48.78 22.4398 48.75 22.2898 48.7L22.2998 48.69ZM38.9698 46.11C38.5698 45.53 38.7098 44.74 39.2898 44.33C39.8698 43.93 40.6598 44.07 41.0698 44.65C41.4698 45.23 41.3298 46.03 40.7498 46.43C40.5298 46.58 40.2798 46.65 40.0198 46.65C39.6198 46.65 39.2198 46.46 38.9698 46.1V46.11ZM14.4198 43.26C13.9498 42.73 13.9998 41.93 14.5198 41.46C15.0498 40.99 15.8598 41.04 16.3198 41.56C16.7898 42.09 16.7398 42.9 16.2198 43.36C15.9798 43.57 15.6698 43.68 15.3698 43.68C15.0198 43.68 14.6598 43.54 14.4098 43.25L14.4198 43.26ZM45.3598 39.81C44.7398 39.48 44.4898 38.71 44.8298 38.08C45.1598 37.46 45.9298 37.22 46.5498 37.55C47.1698 37.88 47.4198 38.65 47.0898 39.27C46.8598 39.71 46.4198 39.96 45.9498 39.96C45.7498 39.96 45.5498 39.91 45.3598 39.81ZM9.95981 34.8C9.78981 34.11 10.1998 33.42 10.8898 33.25C11.5698 33.08 12.2598 33.5 12.4398 34.18C12.6098 34.87 12.1898 35.56 11.4998 35.73C11.3998 35.76 11.2898 35.77 11.1998 35.77C10.6198 35.77 10.0998 35.38 9.95981 34.8ZM46.8198 29.98V29.94V29.91C46.8198 29.2 47.3898 28.63 48.0898 28.63C48.7998 28.63 49.3698 29.19 49.3698 29.9C49.3698 29.9 49.3698 29.93 49.3698 29.94C49.3698 29.94 49.3698 29.97 49.3698 29.98C49.3698 30.69 48.7898 31.26 48.0898 31.26C47.3798 31.26 46.8098 30.69 46.8098 29.98H46.8198ZM10.8798 26.78C10.1898 26.61 9.77981 25.92 9.93981 25.24C10.1098 24.55 10.7898 24.14 11.4798 24.3C12.1698 24.47 12.5798 25.16 12.4198 25.85C12.2798 26.43 11.7598 26.83 11.1798 26.83C11.0798 26.83 10.9798 26.82 10.8798 26.79V26.78ZM44.7998 21.82C44.4698 21.2 44.6998 20.43 45.3298 20.1C45.9498 19.77 46.7198 20 47.0598 20.63C47.3898 21.25 47.1598 22.02 46.5298 22.36C46.3398 22.46 46.1298 22.51 45.9298 22.51C45.4698 22.51 45.0298 22.27 44.8098 21.83L44.7998 21.82ZM14.4898 18.56C13.9598 18.09 13.9098 17.29 14.3698 16.76C14.8398 16.23 15.6398 16.18 16.1698 16.64C16.6998 17.11 16.7498 17.91 16.2798 18.44C16.0298 18.72 15.6798 18.87 15.3198 18.87C15.0198 18.87 14.7198 18.77 14.4798 18.55L14.4898 18.56ZM39.2398 15.59C38.6598 15.19 38.5098 14.4 38.9098 13.81C39.3098 13.23 40.0998 13.08 40.6798 13.48C41.2598 13.88 41.4098 14.67 41.0098 15.25C40.7598 15.62 40.3598 15.81 39.9598 15.81C39.7098 15.81 39.4598 15.73 39.2298 15.59H39.2398ZM21.4998 12.95C21.2498 12.29 21.5798 11.55 22.2398 11.3C22.8998 11.05 23.6398 11.38 23.8898 12.04C24.1398 12.69 23.8098 13.43 23.1498 13.69C22.9998 13.75 22.8498 13.77 22.6898 13.77C22.1798 13.77 21.6998 13.46 21.4998 12.95ZM31.4398 12.66C30.7398 12.58 30.2398 11.94 30.3198 11.24C30.3998 10.54 31.0398 10.04 31.7398 10.12C32.4398 10.2 32.9398 10.83 32.8598 11.54C32.7898 12.19 32.2398 12.66 31.5998 12.66C31.5498 12.66 31.4998 12.66 31.4498 12.66H31.4398Z" fill="white"/>
<g clip-path="url(#clip1_64_1191)">
<path d="M35.8902 58.25C35.7602 57.2 36.5102 56.23 37.5702 56.11C38.6302 55.98 39.5902 56.73 39.7102 57.79C39.8402 58.84 39.0902 59.81 38.0302 59.93C37.9502 59.93 37.8702 59.94 37.7902 59.94C36.8302 59.94 36.0002 59.22 35.8802 58.25H35.8902ZM23.7002 58.21C22.7002 57.83 22.2002 56.72 22.5802 55.73C22.9502 54.74 24.0602 54.23 25.0602 54.61C26.0502 54.99 26.5602 56.1 26.1802 57.09C25.8802 57.86 25.1502 58.34 24.3802 58.34C24.1602 58.34 23.9202 58.3 23.7002 58.22V58.21ZM48.8502 54.31C48.2502 53.44 48.4602 52.24 49.3402 51.63C50.2102 51.03 51.4102 51.24 52.0202 52.12C52.6302 52.99 52.4102 54.19 51.5402 54.8C51.2002 55.03 50.8202 55.14 50.4402 55.14C49.8302 55.14 49.2302 54.85 48.8502 54.31ZM11.8202 50.02C11.1102 49.22 11.1802 48 11.9702 47.3C12.7702 46.59 13.9902 46.66 14.6902 47.46C15.4002 48.26 15.3302 49.48 14.5302 50.18C14.1602 50.51 13.7102 50.67 13.2502 50.67C12.7202 50.67 12.1902 50.45 11.8102 50.02H11.8202ZM58.5002 44.81C57.5602 44.31 57.2002 43.15 57.6902 42.2C58.1802 41.26 59.3502 40.9 60.2902 41.39C61.2302 41.88 61.5902 43.05 61.1002 43.99C60.7502 44.65 60.0902 45.02 59.3902 45.02C59.0902 45.02 58.7802 44.95 58.5002 44.8V44.81ZM5.08024 37.25C4.83024 36.22 5.46024 35.17 6.49024 34.92C7.52024 34.66 8.56024 35.29 8.82024 36.33C9.08024 37.36 8.44024 38.4 7.41024 38.66C7.26024 38.7 7.10024 38.72 6.94024 38.72C6.08024 38.72 5.29024 38.13 5.07024 37.26L5.08024 37.25ZM60.6902 29.98V29.93V29.88C60.6902 28.81 61.5402 27.95 62.6102 27.95C63.6802 27.95 64.5402 28.8 64.5402 29.86V29.92V29.98C64.5402 31.05 63.6802 31.91 62.6102 31.91C61.5402 31.91 60.6802 31.05 60.6802 29.98H60.6902ZM6.47024 25.15C5.44024 24.9 4.80024 23.86 5.05024 22.83C5.30024 21.8 6.35024 21.16 7.38024 21.41C8.41024 21.66 9.04024 22.71 8.79024 23.74C8.58024 24.62 7.79024 25.21 6.92024 25.21C6.77024 25.21 6.62024 25.19 6.46024 25.15H6.47024ZM57.6302 17.66C57.1402 16.72 57.5002 15.56 58.4302 15.06C59.3702 14.56 60.5402 14.92 61.0302 15.86C61.5302 16.8 61.1702 17.97 60.2302 18.47C59.9402 18.62 59.6302 18.69 59.3302 18.69C58.6402 18.69 57.9702 18.32 57.6202 17.66H57.6302ZM11.9102 12.74C11.1102 12.03 11.0402 10.82 11.7402 10.02C12.4402 9.22002 13.6602 9.15002 14.4602 9.85002C15.2602 10.56 15.3302 11.77 14.6302 12.57C14.2402 13 13.7202 13.22 13.1802 13.22C12.7302 13.22 12.2702 13.06 11.9102 12.74ZM49.2502 8.26002C48.3702 7.66002 48.1502 6.46002 48.7502 5.58002C49.3502 4.71002 50.5502 4.48002 51.4302 5.09002C52.3102 5.69002 52.5302 6.89002 51.9302 7.77002C51.5602 8.32001 50.9502 8.60002 50.3402 8.60002C49.9702 8.60002 49.5902 8.49002 49.2602 8.26002H49.2502ZM22.4802 4.27002C22.1002 3.27002 22.6002 2.16002 23.5902 1.79002C24.5802 1.41002 25.7002 1.91002 26.0802 2.90002C26.4602 3.89002 25.9602 5.01002 24.9702 5.38002C24.7402 5.47002 24.5102 5.51002 24.2802 5.51002C23.5102 5.51002 22.7802 5.04002 22.4802 4.27002ZM37.4602 3.83002C36.4102 3.71002 35.6502 2.75002 35.7702 1.69002C35.8902 0.640015 36.8502 -0.119985 37.9102 1.52811e-05C38.9702 0.120015 39.7202 1.08002 39.6002 2.14002C39.4802 3.12002 38.6602 3.84002 37.6902 3.84002C37.6102 3.84002 37.5402 3.84002 37.4602 3.83002Z" fill="#9758DA"/>
<path d="M35.6203 53.1099C35.5103 52.2499 36.1303 51.4599 36.9903 51.3599C37.8503 51.2599 38.6403 51.8699 38.7403 52.7299C38.8403 53.5999 38.2303 54.3799 37.3703 54.4799C37.3103 54.4899 37.2403 54.4899 37.1803 54.4899C36.4003 54.4899 35.7203 53.9099 35.6203 53.0999V53.1099ZM25.6403 53.0799C24.8203 52.7699 24.4103 51.8599 24.7303 51.0499C25.0303 50.2299 25.9403 49.8199 26.7603 50.1299C27.5803 50.4399 27.9903 51.3499 27.6803 52.1599C27.4403 52.7999 26.8403 53.1799 26.2003 53.1799C26.0103 53.1799 25.8303 53.1499 25.6403 53.0799ZM46.2103 49.8999C45.7203 49.1799 45.9003 48.1999 46.6103 47.6999C47.3303 47.2099 48.3003 47.3899 48.8103 48.0999C49.3003 48.8099 49.1203 49.7999 48.4103 50.2999C48.1303 50.4899 47.8203 50.5799 47.5103 50.5799C47.0103 50.5799 46.5203 50.3399 46.2103 49.9099V49.8999ZM15.9103 46.3799C15.3303 45.7299 15.3903 44.7399 16.0403 44.1599C16.6903 43.5799 17.6803 43.6399 18.2603 44.2899C18.8403 44.9399 18.7803 45.9299 18.1303 46.5199C17.8303 46.7799 17.4603 46.9199 17.0803 46.9199C16.6403 46.9199 16.2103 46.7399 15.9003 46.3899L15.9103 46.3799ZM54.1103 42.1199C53.3403 41.7099 53.0403 40.7599 53.4503 39.9899C53.8503 39.2199 54.8003 38.9199 55.5703 39.3299C56.3403 39.7299 56.6403 40.6899 56.2303 41.4499C55.9503 41.9899 55.4003 42.2999 54.8403 42.2999C54.5903 42.2999 54.3403 42.2399 54.1103 42.1199ZM10.4103 35.9399C10.2003 35.0899 10.7203 34.2399 11.5603 34.0299C12.4103 33.8199 13.2603 34.3299 13.4703 35.1799C13.6803 36.0199 13.1603 36.8799 12.3103 37.0899C12.1803 37.1199 12.0603 37.1299 11.9303 37.1299C11.2203 37.1299 10.5803 36.6499 10.4003 35.9399H10.4103ZM55.9103 29.9899V29.9599C55.9103 29.9599 55.9103 29.9199 55.9103 29.8999C55.9103 29.0299 56.6103 28.3199 57.4803 28.3099C58.3503 28.3099 59.0603 29.0099 59.0603 29.8799V29.9299V29.9799C59.0603 30.8499 58.3603 31.5599 57.4903 31.5599C56.6203 31.5599 55.9103 30.8499 55.9103 29.9799V29.9899ZM11.5503 26.0399C10.7003 25.8299 10.1803 24.9799 10.3903 24.1299C10.6003 23.2899 11.4503 22.7699 12.3003 22.9699C13.1503 23.1799 13.6603 24.0299 13.4603 24.8799C13.2803 25.5999 12.6403 26.0799 11.9303 26.0799C11.8103 26.0799 11.6803 26.0699 11.5603 26.0399H11.5503ZM53.4103 19.9199C53.0103 19.1499 53.2903 18.1999 54.0603 17.7899C54.8303 17.3899 55.7803 17.6699 56.1903 18.4399C56.6003 19.2099 56.3103 20.1699 55.5403 20.5699C55.3103 20.6899 55.0503 20.7599 54.8003 20.7599C54.2403 20.7599 53.7003 20.4499 53.4103 19.9199ZM15.9903 15.8799C15.3403 15.3099 15.2803 14.3099 15.8603 13.6599C16.4303 13.0099 17.4303 12.9399 18.0803 13.5199C18.7303 14.0999 18.7903 15.0899 18.2203 15.7499C17.9103 16.0999 17.4703 16.2799 17.0303 16.2799C16.6603 16.2799 16.2903 16.1499 15.9903 15.8799ZM46.5403 12.2199C45.8203 11.7299 45.6403 10.7399 46.1403 10.0199C46.6303 9.29995 47.6103 9.11994 48.3303 9.61994C49.0503 10.1099 49.2303 11.0899 48.7403 11.8099C48.4303 12.2499 47.9403 12.4999 47.4403 12.4999C47.1303 12.4999 46.8203 12.4099 46.5503 12.2199H46.5403ZM24.6403 8.94994C24.3303 8.13994 24.7403 7.22994 25.5503 6.91994C26.3703 6.60994 27.2803 7.01994 27.5803 7.82994C27.8903 8.63994 27.4803 9.54994 26.6803 9.85994C26.4903 9.92994 26.3003 9.95994 26.1103 9.95994C25.4703 9.95994 24.8803 9.56994 24.6403 8.94994ZM36.9003 8.58994C36.0303 8.48994 35.4203 7.70994 35.5103 6.83994C35.6103 5.96994 36.4003 5.35994 37.2603 5.45994C38.1203 5.55994 38.7403 6.34994 38.6403 7.20994C38.5403 8.00994 37.8603 8.59995 37.0703 8.59995C37.0103 8.59995 36.9503 8.59994 36.8903 8.58994H36.9003Z" fill="#9758DA"/>
<path d="M35.3798 48.72C35.2998 48.02 35.7898 47.38 36.4898 47.3C37.1898 47.22 37.8298 47.71 37.9198 48.42C37.9998 49.11 37.4998 49.76 36.7998 49.84C36.7498 49.84 36.6998 49.84 36.6498 49.84C36.0098 49.84 35.4598 49.36 35.3898 48.72H35.3798ZM27.2998 48.69C26.6398 48.44 26.3098 47.7 26.5598 47.05C26.8098 46.39 27.5398 46.06 28.1998 46.31C28.8598 46.56 29.1898 47.3 28.9398 47.95C28.7498 48.46 28.2598 48.78 27.7498 48.78C27.5998 48.78 27.4398 48.75 27.2898 48.7L27.2998 48.69ZM43.9698 46.11C43.5698 45.53 43.7098 44.74 44.2898 44.33C44.8698 43.93 45.6598 44.07 46.0698 44.65C46.4698 45.23 46.3298 46.03 45.7498 46.43C45.5298 46.58 45.2798 46.65 45.0198 46.65C44.6198 46.65 44.2198 46.46 43.9698 46.1V46.11ZM19.4198 43.26C18.9498 42.73 18.9998 41.93 19.5198 41.46C20.0498 40.99 20.8598 41.04 21.3198 41.56C21.7898 42.09 21.7398 42.9 21.2198 43.36C20.9798 43.57 20.6698 43.68 20.3698 43.68C20.0198 43.68 19.6598 43.54 19.4098 43.25L19.4198 43.26ZM50.3598 39.81C49.7398 39.48 49.4898 38.71 49.8298 38.08C50.1598 37.46 50.9298 37.22 51.5498 37.55C52.1698 37.88 52.4198 38.65 52.0898 39.27C51.8598 39.71 51.4198 39.96 50.9498 39.96C50.7498 39.96 50.5498 39.91 50.3598 39.81ZM14.9598 34.8C14.7898 34.11 15.1998 33.42 15.8898 33.25C16.5698 33.08 17.2598 33.5 17.4398 34.18C17.6098 34.87 17.1898 35.56 16.4998 35.73C16.3998 35.76 16.2898 35.77 16.1998 35.77C15.6198 35.77 15.0998 35.38 14.9598 34.8ZM51.8198 29.98V29.94V29.91C51.8198 29.2 52.3898 28.63 53.0898 28.63C53.7998 28.63 54.3698 29.19 54.3698 29.9C54.3698 29.9 54.3698 29.93 54.3698 29.94C54.3698 29.94 54.3698 29.97 54.3698 29.98C54.3698 30.69 53.7898 31.26 53.0898 31.26C52.3798 31.26 51.8098 30.69 51.8098 29.98H51.8198ZM15.8798 26.78C15.1898 26.61 14.7798 25.92 14.9398 25.24C15.1098 24.55 15.7898 24.14 16.4798 24.3C17.1698 24.47 17.5798 25.16 17.4198 25.85C17.2798 26.43 16.7598 26.83 16.1798 26.83C16.0798 26.83 15.9798 26.82 15.8798 26.79V26.78ZM49.7998 21.82C49.4698 21.2 49.6998 20.43 50.3298 20.1C50.9498 19.77 51.7198 20 52.0598 20.63C52.3898 21.25 52.1598 22.02 51.5298 22.36C51.3398 22.46 51.1298 22.51 50.9298 22.51C50.4698 22.51 50.0298 22.27 49.8098 21.83L49.7998 21.82ZM19.4898 18.56C18.9598 18.09 18.9098 17.29 19.3698 16.76C19.8398 16.23 20.6398 16.18 21.1698 16.64C21.6998 17.11 21.7498 17.91 21.2798 18.44C21.0298 18.72 20.6798 18.87 20.3198 18.87C20.0198 18.87 19.7198 18.77 19.4798 18.55L19.4898 18.56ZM44.2398 15.59C43.6598 15.19 43.5098 14.4 43.9098 13.81C44.3098 13.23 45.0998 13.08 45.6798 13.48C46.2598 13.88 46.4098 14.67 46.0098 15.25C45.7598 15.62 45.3598 15.81 44.9598 15.81C44.7098 15.81 44.4598 15.73 44.2298 15.59H44.2398ZM26.4998 12.95C26.2498 12.29 26.5798 11.55 27.2398 11.3C27.8998 11.05 28.6398 11.38 28.8898 12.04C29.1398 12.69 28.8098 13.43 28.1498 13.69C27.9998 13.75 27.8498 13.77 27.6898 13.77C27.1798 13.77 26.6998 13.46 26.4998 12.95ZM36.4398 12.66C35.7398 12.58 35.2398 11.94 35.3198 11.24C35.3998 10.54 36.0398 10.04 36.7398 10.12C37.4398 10.2 37.9398 10.83 37.8598 11.54C37.7898 12.19 37.2398 12.66 36.5998 12.66C36.5498 12.66 36.4998 12.66 36.4498 12.66H36.4398Z" fill="#9758DA"/>
</g>
</g>
<defs>
<clipPath id="clip0_64_1191">
<rect width="59.55" height="59.95" fill="white"/>
</clipPath>
<clipPath id="clip1_64_1191">
<rect width="59.55" height="59.95" fill="white" transform="translate(5)"/>
</clipPath>
</defs>
</svg>
